<?xml version="1.0" encoding="utf-8"?>
<!-- Generator: Adobe Illustrator 27.5.0, SVG Export Plug-In . SVG Version: 6.00 Build 0)  -->
<svg version="1.1" xmlns="http://www.w3.org/2000/svg" xmlns:xlink="http://www.w3.org/1999/xlink" x="0px" y="0px"
	 viewBox="0 0 3710 3710" style="enable-background:new 0 0 3710 3710;" xml:space="preserve">
<g id="Background">
	<g>
		<g>
			<rect style="fill:#FFFFFF;" width="3710" height="3710"/>
		</g>
	</g>
</g>
<g id="Illustration">
	<g>
		<linearGradient id="SVGID_1_" gradientUnits="userSpaceOnUse" x1="3571.6919" y1="3998.3618" x2="1137.2755" y2="974.9694">
			<stop  offset="0" style="stop-color:#DAE3FE"/>
			<stop  offset="1" style="stop-color:#E9EFFD"/>
		</linearGradient>
		<path style="fill:url(#SVGID_1_);" d="M2901.969,2806.045c-55.918,58.867-108.826,96.831-150.628,126.824
			c-491.376,352.568-1072.804,249.796-1196.374,224.698c-182.474-37.061-535.192-108.7-790.201-408.585
			c-385.807-453.701-325.731-1168.495-26.473-1640.34c54.739-86.309,343.886-565.341,931.577-642.162
			c355.664-46.492,770.254,47.277,1070.488,298.813C3370.576,1293.291,3325.711,2359.942,2901.969,2806.045z"/>
		<g>
			<g>
				<path style="fill:#91B3FA;" d="M699.316,1217.096c-2.42-1.115-4.108-3.537-4.117-6.323c-0.036-9.192,0.123-18.537,0.471-27.777
					c0.143-3.796,3.383-6.703,7.238-6.496c9.35,0.451,6.164,9.586,6.259,34.46c0.017,3.799-3.1,6.84-6.958,6.787
					C701.179,1217.734,700.199,1217.503,699.316,1217.096z"/>
				<path style="fill:#91B3FA;" d="M704.546,1096.985c2.949-17.412,6.641-34.916,10.974-52.026c0.931-3.673,4.719-5.855,8.463-4.874
					c10.19,2.734,3.04,8.08-5.657,59.395c-0.634,3.739-4.23,6.209-8.037,5.52C706.432,1104.298,703.919,1100.677,704.546,1096.985z
					 M741.999,962.844c6.511-16.495,13.801-33.039,21.426-48.591c4.086-8.365,16.531-1.858,12.6,6.152
					c-7.588,15.511-14.62,31.474-20.992,47.619c-1.39,3.523-5.435,5.215-9.033,3.786
					C742.362,970.361,740.625,966.329,741.999,962.844z M806.261,839.389c9.734-14.701,20.192-29.198,31.089-43.095
					c5.624-7.159,16.701,1.406,11.111,8.532c-10.677,13.615-20.926,27.822-30.46,42.221
					C812.984,854.625,801.256,846.942,806.261,839.389z M895.1,741.618c-2.745-2.717-2.773-7.074-0.06-9.73
					c12.624-12.375,25.925-24.409,39.529-35.768c6.995-5.838,16.13,4.728,9.141,10.565c-13.328,11.13-26.363,22.921-38.735,35.044
					C902.266,744.389,897.837,744.337,895.1,741.618z M1002.627,654.435c-2.136-3.202-1.261-7.457,1.953-9.506
					c14.977-9.544,30.524-18.616,46.212-26.962c8.076-4.274,14.875,7.84,6.802,12.14c-15.373,8.179-30.609,17.066-45.283,26.418
					C1009.101,658.571,1004.763,657.636,1002.627,654.435z M1129.841,594.664c-1.589-0.732-2.91-2.037-3.61-3.767
					c-1.441-3.549,0.292-7.53,3.873-8.887c16.688-6.327,33.826-12.075,50.942-17.089c3.682-1.077,7.599,1,8.761,4.649
					c1.155,3.646-0.888,7.473-4.567,8.552c-16.774,4.91-33.569,10.547-49.924,16.748
					C1133.479,595.563,1131.514,595.435,1129.841,594.664z M1264.731,558.693c-2.031-0.936-3.589-2.8-4.014-5.125
					c-0.683-3.753,1.842-7.287,5.637-7.897c17.672-2.834,35.695-5.013,53.566-6.472c3.836-0.322,7.265,2.496,7.647,6.291
					c0.385,3.785-2.414,7.112-6.253,7.425c-17.509,1.432-35.168,3.568-52.483,6.345
					C1267.391,559.491,1265.972,559.265,1264.731,558.693z M1400.592,544.129c0.106-3.798,3.319-6.736,7.176-6.565
					c17.937,0.796,36.102,2.309,53.988,4.493c9.211,1.15,7.682,14.776-1.483,13.658c-17.521-2.141-35.317-3.62-52.892-4.4
					C1403.534,551.147,1400.485,547.934,1400.592,544.129z M1836.942,724.716c-39.523-34.864-48.955-35.013-42.61-43.258
					c2.309-3.008,6.681-3.544,9.775-1.226c14.392,10.84,28.539,22.381,42.051,34.3
					C1853.097,720.647,1843.904,730.845,1836.942,724.716z M1539.972,563.156c0.893-3.682,4.657-5.902,8.411-4.957
					c17.456,4.392,34.987,9.515,52.104,15.232c8.798,2.941,4.51,15.964-4.276,13.028c-16.776-5.601-33.956-10.625-51.061-14.928
					C1541.355,570.571,1539.088,566.799,1539.972,563.156z M1723.597,643.518c-45.667-26.204-55.039-24.505-50.546-33.915
					c2.849-5.968,10.124-3.146,9.284-3.17c16.329,7.779,32.525,16.266,48.133,25.216c3.361,1.928,4.542,6.146,2.645,9.421
					C1731.301,644.2,1727.176,645.511,1723.597,643.518z"/>
				<path style="fill:#91B3FA;" d="M1916.027,807.117c-14.809-18.246-24.34-24.747-17.214-30.804c2.89-2.46,7.306-2.127,9.858,0.788
					c16.074,18.251,24.26,25.656,17.183,31.191C1923.732,809.952,1918.456,810.098,1916.027,807.117z"/>
			</g>
			<g>
				<path style="fill:#91B3FA;" d="M2067.235,1320.08c-2.715-1.251-4.444-4.126-4.06-7.185c1.123-8.974,2.069-18.071,2.814-27.044
					c0.315-3.783,3.686-6.544,7.532-6.168c3.834,0.385,6.706,3.742,6.393,7.53c-0.762,9.156-1.729,18.438-2.873,27.598
					c-0.471,3.763-3.957,6.386-7.785,5.857C2068.54,1320.572,2067.86,1320.369,2067.235,1320.08z"/>
				<path style="fill:#91B3FA;" d="M1085.725,1829.328c-17.427-8.612-34.697-18.048-51.33-28.049
					c-3.32-1.994-4.415-6.235-2.446-9.47c5.55-9.112,8.875,0.037,59.864,25.238c3.474,1.715,4.925,5.855,3.242,9.247
					C1092.117,1832.219,1084.885,1829.295,1085.725,1829.328z M1169.013,1856.962c3.372-10.102,8.917-1.81,63.743,11.936
					c3.766,0.924,6.075,4.693,5.187,8.37c-0.891,3.684-4.655,5.906-8.407,4.966c-18.762-4.702-37.622-10.261-56.055-16.518
					C1169.789,1864.458,1167.822,1860.531,1169.013,1856.962z M956.481,1747.001c-15.117-12.128-29.923-25.046-43.999-38.393
					c-2.802-2.659-2.928-7.017-0.276-9.734c7.471-7.66,8.661,1.96,52.983,37.51c3.016,2.422,3.513,6.759,1.111,9.691
					C963.893,1749.003,959.502,1749.415,956.481,1747.001z M1320.667,1898.477c-2.653-1.222-4.375-3.995-4.083-7.003
					c0.368-3.777,3.779-6.491,7.619-6.062c18.897,2.107,38.071,3.444,56.987,3.973c3.867,0.109,6.952,3.274,6.909,7.072
					c-0.04,3.802-3.201,6.794-7.058,6.686c-19.312-0.538-38.883-1.903-58.171-4.055
					C1322.089,1898.999,1321.345,1898.789,1320.667,1898.477z M1471.686,1898.776c-2.143-0.987-3.748-3.009-4.068-5.482
					c-0.485-3.776,2.224-7.174,6.053-7.587c18.784-2.023,37.712-4.868,56.262-8.454c3.775-0.73,7.483,1.705,8.29,5.434
					c0.803,3.731-1.601,7.346-5.371,8.074c-18.932,3.661-38.252,6.561-57.426,8.629
					C1474.104,1899.533,1472.82,1899.299,1471.686,1898.776z M1618.554,1866.419c-1.664-0.767-3.033-2.164-3.702-4.001
					c-1.31-3.596,0.571-7.508,4.199-8.737c17.823-6.033,35.599-12.89,52.836-20.383c3.509-1.519,7.65,0.065,9.262,3.545
					c1.607,3.482,0.069,7.542-3.438,9.065c-17.588,7.644-35.727,14.641-53.918,20.8
					C1622.017,1867.308,1620.149,1867.154,1618.554,1866.419z M1754.22,1803.162c-1.2-0.553-2.264-1.445-3.023-2.635
					c-2.067-3.245-1.103-7.48,2.154-9.461c16.002-9.731,31.771-20.267,46.871-31.306c3.072-2.247,7.451-1.589,9.786,1.485
					c2.335,3.065,1.738,7.371-1.336,9.617c-15.41,11.268-31.501,22.02-47.833,31.953
					C1758.776,1804.068,1756.292,1804.117,1754.22,1803.162z M1870.079,1710.581c-7.682-7.682,2.053-8.421,38.567-50.535
					c5.946-6.862,16.642,2.178,10.687,9.044c-12.457,14.368-25.705,28.383-39.376,41.646
					C1877.243,1713.368,1872.824,1713.327,1870.079,1710.581z M1965.543,1596.707c-9.188-5.85,0.056-8.628,26.15-57.837
					c4.231-7.977,16.665-1.486,12.408,6.536c-8.904,16.794-18.636,33.383-28.927,49.309
					C1973.087,1597.943,1968.718,1598.763,1965.543,1596.707z M2032.338,1464.358c-3.284-1.513-4.936-5.266-3.704-8.645
					c6.393-17.564,12.091-35.541,16.928-53.427c0.991-3.656,4.815-5.777,8.545-4.74c3.736,1.062,5.948,4.845,4.961,8.502
					c-4.939,18.253-10.75,36.593-17.277,54.512c-1.292,3.557-5.288,5.357-8.923,4.016
					C2032.686,1464.511,2032.51,1464.437,2032.338,1464.358z"/>
				<path style="fill:#91B3FA;" d="M848.043,1638.602c-15.236-18.981-23.05-26.719-15.713-31.918
					c7.631-5.412,11.018,4.056,26.613,23.498c2.415,3.007,1.927,7.329-1.082,9.653
					C854.851,1642.16,850.455,1641.606,848.043,1638.602z"/>
			</g>
			<g>
				<path style="fill:#91B3FA;" d="M936.584,1470.669l100.008-5.26c27.69,37.667,61.599,71.361,101.017,99.336
					c-2.899,95.868-9.897,102.385,0.08,106.513l111.561,46.151c3.26,1.347,6.994,0.523,9.296-2.05l65.669-73.419
					c47.626,8.028,95.365,8.114,141.489,0.979l67.216,74.435c2.357,2.608,6.108,3.485,9.339,2.185l110.64-44.534
					c3.234-1.302,5.237-4.495,4.988-7.952l-7.078-98.639c37.755-26.629,71.367-59.459,99.081-97.813l100.065,6.709
					c3.511,0.236,6.745-1.746,8.058-4.934l44.906-109.13c1.313-3.189,0.412-6.883-2.242-9.197l-75.673-65.988
					c7.325-46.79,6.579-93.829-1.466-139.404c71.301-64.953,80.634-64.352,76.448-74.104
					c-48.117-106.884-44.34-115.424-55.292-114.852l-100.008,5.26c-27.688-37.669-61.599-71.361-101.016-99.336
					c2.897-95.81,9.901-102.382-0.079-106.516c-111.629-43.947-113.8-51.995-120.859-44.098l-65.67,73.42
					c-47.623-8.033-95.364-8.117-141.49-0.982c-66.358-70.519-66.579-80.637-76.554-76.619
					c-108.705,45.995-116.39,41.831-115.627,52.486l7.077,98.638c-37.756,26.63-71.368,59.459-99.08,97.813
					c-95.656-4.445-104.029-11.74-108.125-1.773c-42.484,108.754-50.848,111.184-42.665,118.325l75.672,65.988
					c-7.323,46.786-6.577,93.828,1.466,139.404c-71.059,64.733-80.648,64.301-76.447,74.105
					C929.409,1462.701,925.632,1471.242,936.584,1470.669z"/>
				<g>
					<path style="fill:#BDD0FB;" d="M1274.453,1197.599c8.729-62.962,67.952-106.296,132.018-96.599
						c64.057,9.715,109.085,68.809,100.36,131.771c-8.732,62.96-67.952,106.295-132.019,96.602l0,0
						C1310.729,1319.675,1265.725,1260.546,1274.453,1197.599z M1376.225,1319.168l0.062,0.029L1376.225,1319.168z
						 M1403.641,1121.407c-52-7.873-101.15,26.847-108.423,79.333c-7.171,51.71,29.8,100.275,82.422,108.224
						c52.616,7.962,101.257-27.627,108.424-79.336C1493.244,1177.84,1456.164,1129.345,1403.641,1121.407z"/>
				</g>
				<path style="fill:#BDD0FB;" d="M1269.318,1481.932L1269.318,1481.932c-15.801-7.281-30.965-15.864-45.21-25.604
					c-4.283-2.928-5.742-8.38-3.692-12.837c0.245-0.532,0.54-1.049,0.886-1.545c3.244-4.666,9.774-5.781,14.55-2.515
					c16.385,11.202,34.089,20.759,52.604,28.433l0,0c139.513,57.709,298.209-3.333,359.422-136.166
					c1.563-3.392,3.061-6.833,4.497-10.316c57.939-140.809-12.198-302.022-155.03-361.151
					c-142.639-59.006-306.062,6.067-363.918,146.482c-34.391,83.596-13.695,142.791-17.647,151.368
					c-4.271,9.268-18.283,7.157-19.907-2.953c-8.873-55.231-1.897-113.628,22.949-167.547
					c107.215-232.649,448.414-223.132,550.686,15.13c31.476,73.321,32.294,153.836,2.302,226.713
					c-1.549,3.771-3.176,7.498-4.87,11.184c-31.083,67.47-86.145,119.742-156.206,147.945
					c-73.885,29.736-155.604,29.142-230.104-1.676C1276.827,1485.304,1273.052,1483.653,1269.318,1481.932z"/>
			</g>
		</g>
		<g>
			<path style="fill:#91B3FA;" d="M2060.248,846.092c12.322,14.527,27.051,27.194,43.844,37.307l0.819,40.756
				c0.089,4.522,3.956,2.773,48.887,18.14c4.159,1.34,3.699-2.543,28.185-33.775c19.538,1.602,38.89-0.072,57.378-4.662
				l29.417,28.258c3.271,3.136,4.758-0.838,47.396-21.742c1.274-0.653,1.992-2.04,1.791-3.455l-5.748-40.383
				c14.527-12.322,27.193-27.051,37.306-43.844c38.932-1.595,42.511,1.094,43.879-3.141c14.06-46.37,17.362-47.632,13.84-50.275
				l-32.599-24.476c1.604-19.538-0.071-38.89-4.662-57.378l28.259-29.417c3.134-3.262-0.837-4.758-21.742-47.395
				c-1.979-3.873-4.241-0.839-43.838,3.957c-12.323-14.528-27.05-27.194-43.844-37.307l-0.819-40.756
				c-0.091-4.527-3.957-2.773-48.888-18.14c-4.135-1.335-3.575,2.386-28.184,33.776c-19.538-1.604-38.892,0.071-57.38,4.662
				l-29.416-28.258c-1.031-0.991-2.578-1.218-3.85-0.566l-43.546,22.308c-1.272,0.652-1.992,2.039-1.79,3.455l5.747,40.383
				c-14.527,12.323-27.193,27.051-37.307,43.844c-38.932,1.595-42.516-1.095-43.878,3.142
				c-14.056,46.352-17.364,47.627-13.841,50.274l32.598,24.476c-1.603,19.538,0.071,38.89,4.662,57.379
				c-26.402,28.656-30.859,29.292-28.824,33.266l22.308,43.546C2018.404,853.942,2020.853,850.864,2060.248,846.092z"/>
			<g>
				<g>
					<path style="fill:#BDD0FB;" d="M2145.507,727.03c1.827-28.157,26.086-49.472,54.25-47.645
						c28.149,1.823,49.469,26.085,47.644,54.244c-1.821,28.091-26.156,49.467-54.248,47.648l0,0
						C2165.06,779.453,2143.689,755.127,2145.507,727.03z M2193.643,773.685l0.045,0.021L2193.643,773.685z M2160.691,728.011
						c-1.273,19.723,13.736,36.803,33.443,38.082l0,0c31.666,2.048,50.26-35.484,29.247-59.411
						C2202.459,682.864,2162.757,696.141,2160.691,728.011z"/>
				</g>
				<g>
					<path style="fill:#91B3FA;" d="M1940.206,806.706c-1.962-6.567-3.689-13.305-5.134-20.028
						c-0.589-2.739,1.152-5.435,3.891-6.025c6.892-1.483,5.911,6.213,10.962,23.152c0.802,2.685-0.725,5.51-3.41,6.31
						C1943.844,810.915,1941.011,809.402,1940.206,806.706z"/>
					<path style="fill:#91B3FA;" d="M1929.358,719.112c0.567-13.455,2.174-27.464,4.976-41.483
						c1.317-6.594,11.258-4.572,9.948,1.988c-7.257,36.32-1.591,45.143-10.072,44.779
						C1931.387,724.272,1929.24,721.894,1929.358,719.112z M1958.314,620.143c-2.519-1.226-3.567-4.261-2.343-6.781
						c6.081-12.493,13.205-24.615,21.18-36.028c3.846-5.495,12.161,0.307,8.317,5.812c-7.671,10.978-14.527,22.637-20.373,34.655
						C1962.941,622.223,1957.701,620.127,1958.314,620.143z M2023.856,535.588c-0.646-0.298-1.238-0.734-1.729-1.307
						c-1.822-2.13-1.572-5.33,0.556-7.153c10.571-9.045,21.929-17.325,33.761-24.611c2.382-1.465,5.514-0.723,6.978,1.658
						c1.47,2.384,0.727,5.511-1.658,6.977c-11.385,7.012-22.313,14.981-32.483,23.683
						C2027.724,536.165,2025.599,536.391,2023.856,535.588z M2117.554,484.035c-1.266-0.583-2.289-1.685-2.728-3.122
						c-0.822-2.677,0.685-5.515,3.363-6.334c13.292-4.074,27.017-7.122,40.794-9.058c2.777-0.387,5.34,1.544,5.73,4.32
						c0.388,2.772-1.544,5.338-4.319,5.727c-13.249,1.86-26.449,4.79-39.234,8.708
						C2119.921,484.657,2118.645,484.538,2117.554,484.035z M2221.144,469.112c0.317-2.783,2.827-4.786,5.611-4.471
						c13.861,1.569,27.665,4.231,41.033,7.916c6.454,1.747,3.792,11.565-2.696,9.78c-12.858-3.544-26.141-6.106-39.477-7.612
						C2222.765,474.39,2220.838,471.84,2221.144,469.112z"/>
					<path style="fill:#91B3FA;" d="M2342.252,518.314c-15.323-10.558-22.074-11.648-18.638-17.571
						c1.406-2.423,4.455-3.289,6.933-1.842c5.912,3.427,11.786,7.149,17.463,11.06c2.306,1.589,2.887,4.747,1.298,7.056
						C2347.741,519.287,2344.612,519.924,2342.252,518.314z"/>
				</g>
				<g>
					<path style="fill:#91B3FA;" d="M2451.658,697.485c-2.369-18.528-6.054-24.227,0.654-25.615c2.747-0.57,5.427,1.195,5.996,3.935
						c1.39,6.695,2.539,13.556,3.412,20.393c0.355,2.779-1.61,5.321-4.387,5.674
						C2454.563,702.229,2452.013,700.268,2451.658,697.485z"/>
					<path style="fill:#91B3FA;" d="M2109.016,977.691c2.645-7.999,8.646,0.239,44.79,6.273c6.602,1.088,4.965,11.113-1.671,10.007
						c-13.516-2.257-26.94-5.58-39.897-9.871C2109.62,983.242,2108.123,980.385,2109.016,977.691z M2213.266,992.12
						c-0.228-2.791,1.847-5.241,4.642-5.469c36.829-3.025,43.153-10.752,45.144-2.532c0.656,2.724-1.018,5.465-3.74,6.122
						c-13.282,3.206-26.933,5.402-40.576,6.521C2215.942,996.988,2213.498,994.912,2213.266,992.12z M2314.776,964.494
						c-3.958-7.463,6.056-6.033,35.497-28.016c5.378-4.007,11.452,4.113,6.07,8.131c-10.973,8.189-22.65,15.589-34.709,21.987
						C2319.163,967.907,2316.089,966.971,2314.776,964.494z M2397.271,899.162c-6.578-5.33,3.233-7.931,21.702-39.676
						c3.368-5.794,12.147-0.707,8.771,5.099c-6.871,11.811-14.722,23.191-23.338,33.828
						C2402.638,900.594,2399.445,900.919,2397.271,899.162z M2444.014,800.432c10.034-35.536,5.018-44.214,13.429-43.186
						c2.784,0.337,4.76,2.867,4.422,5.648c-1.662,13.619-4.382,27.175-8.089,40.296c-0.762,2.695-3.563,4.265-6.26,3.502
						C2444.826,805.932,2443.251,803.133,2444.014,800.432z"/>
					<path style="fill:#91B3FA;" d="M2051.858,955.214c-5.774-3.721-11.47-7.71-16.93-11.856c-2.229-1.695-2.664-4.876-0.97-7.109
						c4.268-5.615,8.51,0.846,23.396,10.437c2.354,1.519,3.033,4.656,1.517,7.012
						C2057.329,956.086,2054.167,956.708,2051.858,955.214z"/>
				</g>
				<path style="fill:#BDD0FB;" d="M2134.575,838.683c-4.179-2.389-5.024-7.113-3.038-10.546c2.105-3.638,6.796-4.872,10.396-2.777
					c6.752,3.905,13.985,7.118,21.503,9.543c1.644,0.198,40.307,15.624,84.262-6.816c87.172-44.664,76.869-173.344-16.456-203.428
					c-53.692-17.313-111.156,8.821-134.197,58.834c-23.21,50.369,3.026,76.577-13.031,80.292c-4.093,0.953-8.179-1.595-9.131-5.691
					c-5.127-22.078-4.14-45.206,2.853-66.886c21.218-65.837,92.128-102.33,158.177-81.031
					c71.072,22.913,107.341,103.264,75.468,172.433c-25.701,55.789-90.351,86.856-152.616,66.774l-0.002-0.001
					C2150.336,846.665,2142.195,843.065,2134.575,838.683z"/>
			</g>
		</g>
		<g>
			
				<linearGradient id="SVGID_00000048462654431717425120000010968289288159168941_" gradientUnits="userSpaceOnUse" x1="8819.9648" y1="1738.6691" x2="8437.2041" y2="2209.2205" gradientTransform="matrix(0.9922 -0.1247 0.1247 0.9922 -6658.7378 715.4178)">
				<stop  offset="0" style="stop-color:#FEBBBA"/>
				<stop  offset="1" style="stop-color:#FF928E"/>
			</linearGradient>
			<path style="fill:url(#SVGID_00000048462654431717425120000010968289288159168941_);" d="M2272.773,1473.914
				c-2.493-4.764-9.542-4.013-10.981,1.166c-5.327,19.175-18.221,52.635-45.275,64.516c-1.363,0.599-2.653,1.204-3.901,1.813
				c-1.227-3.679-1.244-7.951,1.694-12.443c8.412-12.855-6.773-30.41-6.773-30.41s-1.005,15.462-12.759,25.197
				c-10.123,8.387-14.983,27.048-8.065,42.357c14.642,56.875,36.569,132.098-48.842,187.053
				c-85.408,54.955-205.689-103.713-205.689-103.713l59.698,189.252c0,0,92.144,67.997,199.324-27.618
				c107.18-95.615,36.139-234.748,36.139-234.748S2309.093,1543.358,2272.773,1473.914z"/>
			
				<linearGradient id="SVGID_00000019674331024908926500000015024325365785295280_" gradientUnits="userSpaceOnUse" x1="-8229.2734" y1="2910.7434" x2="-8480.2686" y2="3208.9846" gradientTransform="matrix(-0.9602 0.2794 0.2794 0.9602 -7297.1421 797.6744)">
				<stop  offset="0" style="stop-color:#09005D"/>
				<stop  offset="1" style="stop-color:#1A0F91"/>
			</linearGradient>
			<path style="fill:url(#SVGID_00000019674331024908926500000015024325365785295280_);" d="M1917.225,1371.383
				c0,0,24.744-110.995-102.397-81.613c0,0-61.716-10.085-64.854,48.165c0,0-39.782,26.214-10.654,76.626
				c0,0-118.229-45.667-169.742,57.963c-51.513,103.628-4.162,160.649,45.477,175.501c0,0-40.217,20.193-21.181,65.787
				c19.036,45.594,115.439,77.734,172.386,22.287c0,0,162.041,21.414,158.797-93.043c0,0,75.367-48.669-3.793-143.259
				C1842.105,1405.207,1917.225,1371.383,1917.225,1371.383z"/>
			
				<linearGradient id="SVGID_00000070098519453855726700000010599153544158623138_" gradientUnits="userSpaceOnUse" x1="2024.3347" y1="1694.6792" x2="1335.6691" y2="2409.8315">
				<stop  offset="0" style="stop-color:#FE7062"/>
				<stop  offset="1" style="stop-color:#FF928E"/>
			</linearGradient>
			<path style="fill:url(#SVGID_00000070098519453855726700000010599153544158623138_);" d="M1924.208,1628.659
				c-25.549-7.659-99.938-21.8-170.696,43.497c-12,11.075-16.904,27.903-12.625,43.661c19.005,69.968,69.148,276.682,25.181,366.125
				c0,0,77.48,85.411,162.007,16.571c0,0,37.925-165.291,87.598-237.853c34.296-50.096-54.685-188.12-77.198-221.466
				C1935.066,1634.145,1930.042,1630.409,1924.208,1628.659z"/>
			
				<linearGradient id="SVGID_00000036930995855861096210000015667232929270931598_" gradientUnits="userSpaceOnUse" x1="-8592.7295" y1="3436.5654" x2="-8572.2803" y2="3291.3767" gradientTransform="matrix(-0.9602 0.2794 0.2794 0.9602 -7297.1421 797.6744)">
				<stop  offset="0" style="stop-color:#FEBBBA"/>
				<stop  offset="1" style="stop-color:#FF928E"/>
			</linearGradient>
			<path style="fill:url(#SVGID_00000036930995855861096210000015667232929270931598_);" d="M1853.666,1489.653
				c0,0-37.785,106.877-40.627,154.027c0,0,41.76,18.989,81.11-13.062c0,0,4.128-106.752,10.094-125.868L1853.666,1489.653z"/>
			
				<linearGradient id="SVGID_00000117663458220096157980000014407633217102592902_" gradientUnits="userSpaceOnUse" x1="-8686.4795" y1="3125.4675" x2="-8495.2764" y2="3345.3005" gradientTransform="matrix(-0.9602 0.2794 0.2794 0.9602 -7297.1421 797.6744)">
				<stop  offset="0" style="stop-color:#FEBBBA"/>
				<stop  offset="1" style="stop-color:#FF928E"/>
			</linearGradient>
			<path style="fill:url(#SVGID_00000117663458220096157980000014407633217102592902_);" d="M1906.149,1343.929
				c0,0,98.828,138.305,39.752,178.477c-59.077,40.172-129.43-58.115-129.43-58.115s-22.931-75.7,1.047-101.379
				C1841.496,1337.232,1906.149,1343.929,1906.149,1343.929z"/>
			
				<linearGradient id="SVGID_00000089556394180130999970000015860526019049615498_" gradientUnits="userSpaceOnUse" x1="-8349.4883" y1="2809.5774" x2="-8600.4873" y2="3107.8245" gradientTransform="matrix(-0.9602 0.2794 0.2794 0.9602 -7297.1421 797.6744)">
				<stop  offset="0" style="stop-color:#09005D"/>
				<stop  offset="1" style="stop-color:#1A0F91"/>
			</linearGradient>
			<path style="fill:url(#SVGID_00000089556394180130999970000015860526019049615498_);" d="M1860.405,1310.878
				c0,0,45.401,10.758,51.764,31.299c6.363,20.543-64.383,39.592-84.206,40.524l-15.973,82.895c0,0-47.217-77.98-28.513-123.016
				C1802.181,1297.542,1860.405,1310.878,1860.405,1310.878z"/>
			
				<linearGradient id="SVGID_00000137830825059843694200000002682729167178250660_" gradientUnits="userSpaceOnUse" x1="-8638.709" y1="3083.9138" x2="-8447.5068" y2="3303.7449" gradientTransform="matrix(-0.9602 0.2794 0.2794 0.9602 -7297.1421 797.6744)">
				<stop  offset="0" style="stop-color:#FEBBBA"/>
				<stop  offset="1" style="stop-color:#FF928E"/>
			</linearGradient>
			<path style="fill:url(#SVGID_00000137830825059843694200000002682729167178250660_);" d="M1835.63,1454.114
				c0,0-38.467-44.549-53.767-15.506c-15.301,29.043,34.624,50.848,51.907,36.588L1835.63,1454.114z"/>
			
				<linearGradient id="SVGID_00000088846680413724167730000016205919717675959213_" gradientUnits="userSpaceOnUse" x1="7946.4785" y1="3380.1536" x2="8402.6475" y2="2574.917" gradientTransform="matrix(1 -0.0095 0.0095 1 -6402.6318 56.9446)">
				<stop  offset="0" style="stop-color:#FEBBBA"/>
				<stop  offset="1" style="stop-color:#FF928E"/>
			</linearGradient>
			<path style="fill:url(#SVGID_00000088846680413724167730000016205919717675959213_);" d="M2026.75,2445.558
				c-0.29,7.503,12.885,67.023,20.055,98.771c2.886,12.774,0.877,26.142-5.628,37.509l-248.314,417.924
				c-3.004,5.055-5.191,10.531-6.52,16.259c-4.55,19.613-13.989,67.677-9.06,111.404l12.845,26.679l-55.556-12.615l-12.087-149.194
				l15.728-9.59c13.587-8.284,24.167-20.669,30.224-35.385c22.453-54.54,78.212-193.375,92.585-261.035
				c16.334-76.896,101.724-139.353,101.724-139.353l-15.001-35.467L2026.75,2445.558z"/>
			
				<linearGradient id="SVGID_00000168834048940081328150000007197950210829138091_" gradientUnits="userSpaceOnUse" x1="8045.9199" y1="3095.4563" x2="8179.2598" y2="3095.4563" gradientTransform="matrix(1 -0.0095 0.0095 1 -6402.6318 56.9446)">
				<stop  offset="0" style="stop-color:#09005D"/>
				<stop  offset="1" style="stop-color:#1A0F91"/>
			</linearGradient>
			<path style="fill:url(#SVGID_00000168834048940081328150000007197950210829138091_);" d="M1672.83,3090.152
				c0,0,30.001-47.564,33.531-66.079c3.529-18.515,13.356-51.21,31.852-41.367c0,0,8.716,89.939,5.711,125.083
				c-3.004,35.143,39.728,34.012,39.728,34.012s11.777,1.656,20.402,10.278c5.955,5.955,1.696,16.285-6.707,16.826
				c-13.984,0.901-36.196,1.137-59.518-3.37c-8.152-1.575-14.193-8.51-14.687-16.797l-6.157-103.513l-37.844,47.785
				L1672.83,3090.152z"/>
			
				<linearGradient id="SVGID_00000088109084200448602760000003342758393563408800_" gradientUnits="userSpaceOnUse" x1="8463.4307" y1="2784.4597" x2="7781.2114" y2="3002.6111" gradientTransform="matrix(1 -0.0095 0.0095 1 -6402.6318 56.9446)">
				<stop  offset="0" style="stop-color:#FEBBBA"/>
				<stop  offset="1" style="stop-color:#FF928E"/>
			</linearGradient>
			<path style="fill:url(#SVGID_00000088109084200448602760000003342758393563408800_);" d="M1878.412,2512.129
				c0,0-8.758,373.83-9.944,426.923c-1.186,53.094,8.384,170.754,61.608,205.924l-23.16,17.146c0,0-28.944-24.6-57.221-71.943
				c-31.765-53.187-41.37-62.904-41.37-62.904l10.541-21.586c4.615-9.451,5.971-20.142,3.846-30.442
				c-11.485-55.668-49.856-240.827-60.323-280.702c-12.356-47.069-13.234-109.926,29.75-162.542
				C1835.122,2479.388,1878.412,2512.129,1878.412,2512.129z"/>
			
				<linearGradient id="SVGID_00000044871696953364013160000008592944360601744265_" gradientUnits="userSpaceOnUse" x1="8169.5435" y1="3119.5388" x2="8328.4971" y2="3119.5388" gradientTransform="matrix(1 -0.0095 0.0095 1 -6402.6318 56.9446)">
				<stop  offset="0" style="stop-color:#09005D"/>
				<stop  offset="1" style="stop-color:#1A0F91"/>
			</linearGradient>
			<path style="fill:url(#SVGID_00000044871696953364013160000008592944360601744265_);" d="M1829.262,3178.971
				c-1.651,0.015-3.054-1.167-3.287-2.802c-1.773-12.463-9.145-62.428-15.179-75.366c-6.912-14.817-29.488-77.179,0.013-82.475
				c0,0,73.342,107.154,87.42,121.6c14.08,14.449,31.848,5.048,31.848,5.048s13.717,4.052,24.062,17.273
				c4.924,6.292,0.337,15.528-7.652,15.604l-49.401,0.471c-14.347,0.137-27.251-8.578-32.584-21.898
				c-8.696-21.72-23.634-53.577-41.043-67.71l9.046,86.621C1832.707,3177.267,1831.204,3178.953,1829.262,3178.971
				L1829.262,3178.971z"/>
			
				<linearGradient id="SVGID_00000155866440681043105120000012256540243673670537_" gradientUnits="userSpaceOnUse" x1="2112.1687" y1="2014.3419" x2="1502.9635" y2="2795.7124">
				<stop  offset="0" style="stop-color:#4F52FF"/>
				<stop  offset="1" style="stop-color:#4042E2"/>
			</linearGradient>
			<path style="fill:url(#SVGID_00000155866440681043105120000012256540243673670537_);" d="M1939.768,2058.207
				c0,0-11.132,35.483,5.97,93.925l106.091,370.476c1.667,5.822-1.474,11.914-7.174,13.959
				c-31.734,11.389-136.053,43.581-278.459,33.764c-7.17-0.495-13.182-5.571-14.741-12.587
				c-9.383-42.235-41.398-186.339-47.99-215.948c-25.118-112.822-53.163-234.491,70.213-308.061
				C1830.538,2058.088,1883.571,2072.444,1939.768,2058.207z"/>
			
				<linearGradient id="SVGID_00000134939861312534354360000004966917901331636365_" gradientUnits="userSpaceOnUse" x1="8038.8853" y1="2418.5037" x2="8795.6162" y2="1552.9143" gradientTransform="matrix(0.9922 -0.1247 0.1247 0.9922 -6658.7378 715.4178)">
				<stop  offset="0" style="stop-color:#FEBBBA"/>
				<stop  offset="1" style="stop-color:#FF928E"/>
			</linearGradient>
			<path style="fill:url(#SVGID_00000134939861312534354360000004966917901331636365_);" d="M1743.389,1686.118
				c0,0-120.709,100.313-150.665,237.391c-29.956,137.076,176.386,151.645,176.386,151.645s28.012-31.28,61.267-20.124
				c33.256,11.156,2.576-54.592-36.335-54.419c-38.909,0.173-20.885,30.939-75.927,6.006
				c-53.62-24.287-86.761-99.402,50.044-213.268c7.93-6.6,14.258-15.014,18.068-24.603
				C1812.805,1701.844,1791.725,1657.989,1743.389,1686.118z"/>
		</g>
		<g>
			
				<linearGradient id="SVGID_00000109717120645628274740000001416983158912359086_" gradientUnits="userSpaceOnUse" x1="684.2549" y1="2544.9121" x2="317.5149" y2="3374.9043">
				<stop  offset="0" style="stop-color:#FE7062"/>
				<stop  offset="1" style="stop-color:#FF928E"/>
			</linearGradient>
			<path style="fill:url(#SVGID_00000109717120645628274740000001416983158912359086_);" d="M556.474,2612.517
				c-10.631,15.731-52.884,371.913-59.498,503.462c-0.448,8.896,6.669,16.313,15.576,16.313l0,0c7.682,0,14.218-5.596,15.403-13.185
				l77.284-495.261L556.474,2612.517z"/>
			
				<linearGradient id="SVGID_00000103256982051906810210000018345176259551365773_" gradientUnits="userSpaceOnUse" x1="986.968" y1="2678.6694" x2="620.2275" y2="3508.6626">
				<stop  offset="0" style="stop-color:#FE7062"/>
				<stop  offset="1" style="stop-color:#FF928E"/>
			</linearGradient>
			<path style="fill:url(#SVGID_00000103256982051906810210000018345176259551365773_);" d="M896.191,2612.517
				c10.632,15.731,52.885,371.913,59.498,503.462c0.448,8.896-6.667,16.313-15.576,16.313l0,0c-7.681,0-14.218-5.596-15.402-13.185
				l-77.285-495.261L896.191,2612.517z"/>
			
				<linearGradient id="SVGID_00000005972526402317968500000007061272985670106256_" gradientUnits="userSpaceOnUse" x1="634.0889" y1="3031.8718" x2="698.4294" y2="2723.0378">
				<stop  offset="0" style="stop-color:#FE7062"/>
				<stop  offset="1" style="stop-color:#FF928E"/>
			</linearGradient>
			<path style="fill:url(#SVGID_00000005972526402317968500000007061272985670106256_);" d="M492.557,2584.719l-0.036,3.883
				c-0.255,27.943,23.818,50.864,53.96,51.377l357.225,6.076c29.708,0.505,54.473-20.963,55.914-48.473l0.187-3.554
				c1.503-28.69-22.861-52.862-53.843-53.417l-357.377-6.405C518.001,2533.656,492.816,2556.362,492.557,2584.719z"/>
		</g>
		<g>
			<g>
				
					<linearGradient id="SVGID_00000175303147252934957760000004504481530450688703_" gradientUnits="userSpaceOnUse" x1="1013.2892" y1="3080.8711" x2="1262.1069" y2="3080.8711">
					<stop  offset="0" style="stop-color:#4F52FF"/>
					<stop  offset="1" style="stop-color:#4042E2"/>
				</linearGradient>
				<path style="fill:url(#SVGID_00000175303147252934957760000004504481530450688703_);" d="M1113.343,3081.914
					c-60.998,0-87.987-5.233-100.054-10.005c2.346,10.017,11.267,17.925,22.542,17.925h215.791c7.266,0,11.854-6.955,10.117-13.254
					C1237.141,3078.558,1184.897,3081.914,1113.343,3081.914z"/>
				
					<linearGradient id="SVGID_00000053528394124118930440000010461017250295166854_" gradientUnits="userSpaceOnUse" x1="1204.9926" y1="2602.429" x2="1137.0096" y2="3072.1304">
					<stop  offset="0" style="stop-color:#09005D"/>
					<stop  offset="1" style="stop-color:#1A0F91"/>
				</linearGradient>
				<path style="fill:url(#SVGID_00000053528394124118930440000010461017250295166854_);" d="M1261.739,3076.58
					c-0.35-1.27-0.864-2.519-1.767-3.672c-16.438-20.987-49.458-53.945-94.376-53.313c-65.802,0.926-88.744,8.064-139.878,0.401
					l-12.063,39.985c-1.228,4.076-1.251,8.147-0.366,11.927c12.067,4.772,39.056,10.005,100.054,10.005
					C1184.897,3081.914,1237.141,3078.558,1261.739,3076.58z"/>
			</g>
			
				<linearGradient id="SVGID_00000168089502261159281980000009716778708965313936_" gradientUnits="userSpaceOnUse" x1="1025.7183" y1="3005.8899" x2="1093.0405" y2="3005.8899">
				<stop  offset="0" style="stop-color:#FEBBBA"/>
				<stop  offset="1" style="stop-color:#FF928E"/>
			</linearGradient>
			<path style="fill:url(#SVGID_00000168089502261159281980000009716778708965313936_);" d="M1040.526,2976.908l-14.808,50.361
				c0,0,32.804,14.933,61.657,2.945l5.665-43.632L1040.526,2976.908z"/>
			<g>
				
					<linearGradient id="SVGID_00000167365627303374419100000005414711344786922900_" gradientUnits="userSpaceOnUse" x1="1403.546" y1="3031.5625" x2="1604.4374" y2="3031.5625">
					<stop  offset="0" style="stop-color:#4F52FF"/>
					<stop  offset="1" style="stop-color:#4042E2"/>
				</linearGradient>
				<path style="fill:url(#SVGID_00000167365627303374419100000005414711344786922900_);" d="M1487.778,3050.199
					c-47.55,38.206-71.851,51.051-84.232,54.906c8.073,6.304,19.957,6.851,28.746-0.211l168.218-135.161
					c5.664-4.552,4.904-12.822-0.375-16.62C1582.192,2970.054,1543.557,3005.381,1487.778,3050.199z"/>
				
					<linearGradient id="SVGID_00000036215276313322830440000002082032850190888337_" gradientUnits="userSpaceOnUse" x1="1541.7288" y1="2651.1631" x2="1473.7452" y2="3120.8679">
					<stop  offset="0" style="stop-color:#09005D"/>
					<stop  offset="1" style="stop-color:#1A0F91"/>
				</linearGradient>
				<path style="fill:url(#SVGID_00000036215276313322830440000002082032850190888337_);" d="M1600.135,2953.113
					c-1.065-0.766-2.245-1.414-3.667-1.743c-25.896-5.986-72.183-10.875-106.804,17.75c-50.717,41.934-64.152,61.843-108.79,87.925
					l15.521,38.578c1.583,3.931,4.103,7.104,7.151,9.483c12.381-3.855,36.683-16.7,84.232-54.906
					C1543.557,3005.381,1582.192,2970.054,1600.135,2953.113z"/>
			</g>
			
				<linearGradient id="SVGID_00000183965757119666399520000011329100345749344191_" gradientUnits="userSpaceOnUse" x1="1297.6934" y1="2545.0457" x2="52.7945" y2="3048.303">
				<stop  offset="0" style="stop-color:#09005D"/>
				<stop  offset="1" style="stop-color:#1A0F91"/>
			</linearGradient>
			<path style="fill:url(#SVGID_00000183965757119666399520000011329100345749344191_);" d="M723.766,2403.132
				c0,0,365.195,29.818,440.111,65.086c74.917,35.267-61.136,529.554-61.136,529.554s-20.396,9.815-65.778-4.292
				c0,0,46.537-364.765,11.908-443.861l-395.412-64.675L723.766,2403.132z"/>
			
				<linearGradient id="SVGID_00000101105764686581619690000012024788763736193410_" gradientUnits="userSpaceOnUse" x1="1344.5883" y1="3011.5559" x2="1424.9615" y2="3011.5559">
				<stop  offset="0" style="stop-color:#FEBBBA"/>
				<stop  offset="1" style="stop-color:#FF928E"/>
			</linearGradient>
			<path style="fill:url(#SVGID_00000101105764686581619690000012024788763736193410_);" d="M1344.588,2987.611
				c3.391,3.09,36.286,69.433,36.286,69.433s36.62-7.923,44.088-31.098l-32.95-59.878L1344.588,2987.611z"/>
			
				<linearGradient id="SVGID_00000177481772276255262160000008830993554248536708_" gradientUnits="userSpaceOnUse" x1="1947.6882" y1="1500.5165" x2="1404.7012" y2="2149.4519">
				<stop  offset="0" style="stop-color:#09005D"/>
				<stop  offset="1" style="stop-color:#1A0F91"/>
			</linearGradient>
			<path style="fill:url(#SVGID_00000177481772276255262160000008830993554248536708_);" d="M503.812,2400.079
				c0,0-11.901,28.636-11.415,66.69c0.671,52.627,42.981,95.333,95.547,97.957l431.72,19.687
				c9.117,0.416,16.831,6.725,19.115,15.562c10.145,39.241,59.732,159.743,302.128,400.197c6.449,6.397,16.495,7.486,24.175,2.635
				l34.505-21.796c3.623-2.288,4.779-7.037,2.614-10.734l-251.369-429.251c-13.203-21.788-34.426-37.529-59.109-43.837
				l-367.958-94.057L503.812,2400.079z"/>
			
				<linearGradient id="SVGID_00000158722381624521720660000016119040379148376255_" gradientUnits="userSpaceOnUse" x1="898.1425" y1="1878.9674" x2="937.7676" y2="1779.0431">
				<stop  offset="0" style="stop-color:#FEBBBA"/>
				<stop  offset="1" style="stop-color:#FF928E"/>
			</linearGradient>
			<path style="fill:url(#SVGID_00000158722381624521720660000016119040379148376255_);" d="M929.268,1729.552
				c0,0-46.248,81.77-93.401,121.384l97.462,54.378c0,0,21.962-86.564,72.137-111.915L929.268,1729.552z"/>
			
				<linearGradient id="SVGID_00000053521584768223814430000007113623503633641619_" gradientUnits="userSpaceOnUse" x1="1606.5814" y1="1165.2231" x2="390.8605" y2="3017.7493">
				<stop  offset="0" style="stop-color:#4F52FF"/>
				<stop  offset="1" style="stop-color:#4042E2"/>
			</linearGradient>
			<path style="fill:url(#SVGID_00000053521584768223814430000007113623503633641619_);" d="M495.97,2403.132
				c0,0,116.549,28.403,227.795,0c0,0,155.665-209.259,215.888-266.213c0,0,96.062,151.584,309.877,173.066l11.925-26.646
				c0,0-170.22-78.468-222.622-199.035c-52.403-120.568-73.45-171.99-121.125-203.447c-29.691-19.591-47.469-32.974-56.656-40.282
				c-5.03-4.002-11.972-4.454-17.461-1.109C792.997,1870.296,554.93,2033.346,495.97,2403.132z"/>
			
				<linearGradient id="SVGID_00000068640966800375636930000016998579439097007020_" gradientUnits="userSpaceOnUse" x1="1702.7871" y1="616.3312" x2="693.8198" y2="2460.5923">
				<stop  offset="0" style="stop-color:#53D8FF"/>
				<stop  offset="1" style="stop-color:#3840F7"/>
			</linearGradient>
			<path style="fill:url(#SVGID_00000068640966800375636930000016998579439097007020_);" d="M933.334,2133.97
				c-2.245,0-4.464-1.008-5.936-2.927c-37.115-48.395-57.786-101.74-58.648-103.981c-1.478-3.854,0.446-8.176,4.3-9.658
				c3.862-1.482,8.177,0.445,9.659,4.3c0.204,0.533,20.803,53.622,56.553,100.243c2.512,3.278,1.895,7.965-1.383,10.484
				C936.524,2133.466,934.922,2133.97,933.334,2133.97z"/>
			
				<linearGradient id="SVGID_00000110453843281992390560000014129485985894536353_" gradientUnits="userSpaceOnUse" x1="1236.6746" y1="2267.5779" x2="1422.3271" y2="2267.5779">
				<stop  offset="0" style="stop-color:#FEBBBA"/>
				<stop  offset="1" style="stop-color:#FF928E"/>
			</linearGradient>
			<path style="fill:url(#SVGID_00000110453843281992390560000014129485985894536353_);" d="M1236.675,2269.42l24.067-6.415
				l73.073-16.92c8.796-2.037,18.042-0.479,25.684,4.33l62.828,39.53l-173.509-0.292L1236.675,2269.42z"/>
			<g>
				
					<linearGradient id="SVGID_00000138551729482465595560000013034949796189738159_" gradientUnits="userSpaceOnUse" x1="2963.7834" y1="2142.6301" x2="2764.8301" y2="2294.8599" gradientTransform="matrix(0.9914 -0.1306 0.1306 0.9914 -2198.9988 -61.3823)">
					<stop  offset="0" style="stop-color:#FEBBBA"/>
					<stop  offset="1" style="stop-color:#FF928E"/>
				</linearGradient>
				<path style="fill:url(#SVGID_00000138551729482465595560000013034949796189738159_);" d="M1002.699,1606.937
					c0,0,44.945,74.714,52.744,116.009c7.798,41.295,20.318,67.108-26.679,81.822c-46.998,14.715-90.676-3.908-118.088-42.455
					c0,0-42.808-59.322-38.538-86.488C876.409,1648.66,1002.699,1606.937,1002.699,1606.937z"/>
				
					<linearGradient id="SVGID_00000101797901214844899230000003405897034913589892_" gradientUnits="userSpaceOnUse" x1="2824.0095" y1="2022.46" x2="3004.168" y2="2254.4133" gradientTransform="matrix(0.9914 -0.1306 0.1306 0.9914 -2198.9988 -61.3823)">
					<stop  offset="0" style="stop-color:#09005D"/>
					<stop  offset="1" style="stop-color:#1A0F91"/>
				</linearGradient>
				<path style="fill:url(#SVGID_00000101797901214844899230000003405897034913589892_);" d="M923.188,1730.353l6.08-0.801
					c0,0-31.826-48.09-11.001-60.019c20.825-11.929,105.686-41.201,120.424-74.623c14.207-32.219-7.045-68.62-32.668-76.215
					c-1.621-0.481-3.332,0.478-3.919,2.063l-1.506,4.058c-1.03,2.779-4.92,2.89-6.108,0.176l0,0
					c-1.127-2.575-4.813-2.684-5.974-0.124c-4.541,10.012-18.153,27.114-58.964,40.344c-57.907,18.773-93.979,47.962-89.539,89.107
					c0.281,2.606-2.308,4.405-4.705,3.345c-4.734-2.093-11.91-2.422-20.243,6.692c-14.491,15.85-3.14,50.517,36.438,75.051
					c1.88,1.166,2.216,3.818,0.534,5.257c-5.921,5.07-14.251,16.373,12.526,26.45c27.392,10.307,42.34,6.82,47.863,4.606
					c1.486-0.597,2.335-2.134,2.028-3.706l-7.035-36.054c-0.364-1.865,0.92-3.65,2.803-3.899L923.188,1730.353z"/>
				
					<linearGradient id="SVGID_00000067952693922141509600000012038047647662183296_" gradientUnits="userSpaceOnUse" x1="2939.1047" y1="2110.3796" x2="2740.1528" y2="2262.6082" gradientTransform="matrix(0.9914 -0.1306 0.1306 0.9914 -2198.9988 -61.3823)">
					<stop  offset="0" style="stop-color:#FEBBBA"/>
					<stop  offset="1" style="stop-color:#FF928E"/>
				</linearGradient>
				<path style="fill:url(#SVGID_00000067952693922141509600000012038047647662183296_);" d="M925.683,1737.761
					c0,0-19.833-48.895-40.663-31.709c-20.829,17.187,19.254,55.177,37.753,54.667L925.683,1737.761z"/>
			</g>
		</g>
		<g>
			<g>
				
					<linearGradient id="SVGID_00000181081251998117346920000015530017034691036833_" gradientUnits="userSpaceOnUse" x1="25891.334" y1="-27534.5293" x2="25391.5215" y2="-27051.3086" gradientTransform="matrix(-1.388 -0.0686 -0.0685 1.3855 -4690.1738 -570.6171)">
					<stop  offset="0" style="stop-color:#09005D"/>
					<stop  offset="1" style="stop-color:#1A0F91"/>
				</linearGradient>
				<path style="fill:url(#SVGID_00000181081251998117346920000015530017034691036833_);" d="M1240.254,2313.651
					c0.285,0.014,0.57,0.022,0.858,0.02l373.134-0.372c9.224-0.008,16.693-7.479,16.682-16.686
					c-0.01-9.21-7.523-16.82-16.722-16.655l-373.134,0.373c-9.224,0.007-16.692,7.478-16.682,16.685
					C1224.401,2305.936,1231.429,2313.215,1240.254,2313.651z"/>
			</g>
			<g>
				
					<linearGradient id="SVGID_00000168799888325554763840000000719825348425779083_" gradientUnits="userSpaceOnUse" x1="23170.6406" y1="-27408.2363" x2="22670.8516" y2="-26925.0352" gradientTransform="matrix(0.6475 -1.2297 -1.2274 -0.6463 8775.9707 -5472.2012)">
					<stop  offset="0" style="stop-color:#09005D"/>
					<stop  offset="1" style="stop-color:#1A0F91"/>
				</linearGradient>
				<path style="fill:url(#SVGID_00000168799888325554763840000000719825348425779083_);" d="M1758.749,1948.235
					c-0.133,0.253-0.26,0.508-0.38,0.77l-156.999,338.497c-3.884,8.367-0.258,18.289,8.095,22.162
					c8.356,3.875,18.424,0.271,22.153-8.14l156.999-338.497c3.883-8.367,0.257-18.29-8.095-22.163
					C1772.429,1937.114,1762.866,1940.418,1758.749,1948.235z"/>
			</g>
		</g>
		<g>
			<g>
				
					<linearGradient id="SVGID_00000136396496227765038910000005578157047525819811_" gradientUnits="userSpaceOnUse" x1="-9321.0996" y1="3442.2473" x2="-9317.791" y2="3793.0007" gradientTransform="matrix(-1 0 0 1 -6719.2798 0)">
					<stop  offset="0" style="stop-color:#09005D"/>
					<stop  offset="1" style="stop-color:#1A0F91"/>
				</linearGradient>
				<path style="fill:url(#SVGID_00000136396496227765038910000005578157047525819811_);" d="M2708.238,3028.579
					c0,0,4.114,22.844,5.739,49.963c0.693,11.555-7.871,21.596-19.393,22.713c-40.123,3.891-131.451,11.077-189.766,2.662
					c-8.169-1.179-11.414-11.213-5.375-16.839c24.046-22.403,82.115-65.979,177.694-75.505L2708.238,3028.579z"/>
				
					<linearGradient id="SVGID_00000144296549661883617160000010512690792468884137_" gradientUnits="userSpaceOnUse" x1="-9405.6484" y1="3050.5444" x2="-9423.8477" y2="2908.2583" gradientTransform="matrix(-1 0 0 1 -6719.2798 0)">
					<stop  offset="0" style="stop-color:#FEBBBA"/>
					<stop  offset="1" style="stop-color:#FF928E"/>
				</linearGradient>
				<path style="fill:url(#SVGID_00000144296549661883617160000010512690792468884137_);" d="M2728.184,2977.087l-20.285,49.721
					c-2.78,6.814-9.692,11.049-17.011,10.283c-4.967-0.52-10.849-1.472-16.571-3.21c-11.448-3.475-17.905-15.61-14.478-27.073
					l15.311-51.212L2728.184,2977.087z"/>
				
					<linearGradient id="SVGID_00000140696180557040648210000014055717553182859155_" gradientUnits="userSpaceOnUse" x1="-9794.9902" y1="3446.7161" x2="-9791.6816" y2="3797.4673" gradientTransform="matrix(-1 0 0 1 -6719.2798 0)">
					<stop  offset="0" style="stop-color:#09005D"/>
					<stop  offset="1" style="stop-color:#1A0F91"/>
				</linearGradient>
				<path style="fill:url(#SVGID_00000140696180557040648210000014055717553182859155_);" d="M3075,3068.181
					c0,0-40.621,33.987-56.448,77.584c-4.354,11.99,4.847,24.622,17.604,24.622h83.593c12.236,0,21.615-11.006,19.484-23.054
					C3133.907,3117.228,3118.553,3068.307,3075,3068.181z"/>
				
					<linearGradient id="SVGID_00000134238865122303666450000009688316562931767427_" gradientUnits="userSpaceOnUse" x1="-9803.4219" y1="3099.3105" x2="-9821.1572" y2="2960.656" gradientTransform="matrix(-1 0 0 1 -6719.2798 0)">
					<stop  offset="0" style="stop-color:#FEBBBA"/>
					<stop  offset="1" style="stop-color:#FF928E"/>
				</linearGradient>
				<path style="fill:url(#SVGID_00000134238865122303666450000009688316562931767427_);" d="M3125.322,3023.948
					c0,0-8.205,36.317-14.513,60.319c-1.145,4.356-5.793,6.747-10.035,5.23c-12.651-4.522-22.944-6.523-30.428-5.519
					c-3.459,0.464-6.479-2.413-6.525-5.903l-0.786-60.321L3125.322,3023.948z"/>
				
					<linearGradient id="SVGID_00000116197812806568557010000011140968156713105817_" gradientUnits="userSpaceOnUse" x1="-9927.3594" y1="2572.4473" x2="-9381.4824" y2="2572.4473" gradientTransform="matrix(-1 0 0 1 -6719.2798 0)">
					<stop  offset="0" style="stop-color:#09005D"/>
					<stop  offset="1" style="stop-color:#1A0F91"/>
				</linearGradient>
				<path style="fill:url(#SVGID_00000116197812806568557010000011140968156713105817_);" d="M2909.281,2206.741l-247.079,753.775
					c0,0,47.391,31.037,69.969,29.744l293.474-605.781c0,0,51.355,373.261,26.471,641.234l84.059,6.413
					c0,0,136.681-684.807,33.155-919.358L2909.281,2206.741z"/>
				
					<linearGradient id="SVGID_00000088096046882322075240000009816433056959421323_" gradientUnits="userSpaceOnUse" x1="-9814.1328" y1="2488.6968" x2="-9794.2783" y2="2448.989" gradientTransform="matrix(-1 0 0 1 -6719.2798 0)">
					<stop  offset="0" style="stop-color:#53D8FF"/>
					<stop  offset="1" style="stop-color:#3840F7"/>
				</linearGradient>
				<path style="fill:url(#SVGID_00000088096046882322075240000009816433056959421323_);" d="M3024.057,2377.967
					c0.098,0,0.2-0.008,0.301-0.019c1.311-0.166,2.24-1.362,2.074-2.672l-9.588-76.105c-0.163-1.309-1.348-2.222-2.673-2.074
					c-1.311,0.166-2.24,1.362-2.074,2.672l9.588,76.105C3021.838,2377.083,3022.867,2377.967,3024.057,2377.967z"/>
			</g>
			
				<linearGradient id="SVGID_00000006671596708482215690000017638598634286071937_" gradientUnits="userSpaceOnUse" x1="3077.5986" y1="1537.0159" x2="2693.5344" y2="2596.5024">
				<stop  offset="0" style="stop-color:#4F52FF"/>
				<stop  offset="1" style="stop-color:#4042E2"/>
			</linearGradient>
			<path style="fill:url(#SVGID_00000006671596708482215690000017638598634286071937_);" d="M2862.958,1543.457
				c0,0,200.181,17.776,171.864,160.409c0,0,110.655,208.241,162.389,453.546c1.683,7.982-3.664,15.768-11.704,17.144
				l-333.369,57.079c-9.196,1.574-18.065-4.161-20.402-13.193l-79.653-307.842l-31.039,143.126l-98.624-25.698l83.025-420.573
				C2705.445,1607.456,2717.028,1546.094,2862.958,1543.457z"/>
			
				<linearGradient id="SVGID_00000060743965565857730190000004196903830262948524_" gradientUnits="userSpaceOnUse" x1="3485.2986" y1="1057.4637" x2="2260.2673" y2="2322.2249">
				<stop  offset="0" style="stop-color:#53D8FF"/>
				<stop  offset="1" style="stop-color:#3840F7"/>
			</linearGradient>
			<path style="fill:url(#SVGID_00000060743965565857730190000004196903830262948524_);" d="M2750.388,1896.831
				c0.174,0,0.351-0.017,0.531-0.056c1.338-0.293,2.188-1.614,1.898-2.954l-27.789-127.597c-0.293-1.338-1.597-2.181-2.954-1.898
				c-1.338,0.293-2.189,1.614-1.898,2.954l27.788,127.597C2748.219,1896.039,2749.246,1896.831,2750.388,1896.831z"/>
			
				<linearGradient id="SVGID_00000127040402050328744280000010819083817793378718_" gradientUnits="userSpaceOnUse" x1="-9669.3818" y1="2188.6482" x2="-9420.8174" y2="2188.6482" gradientTransform="matrix(-1 0 0 1 -6719.2798 0)">
				<stop  offset="0" style="stop-color:#FEBBBA"/>
				<stop  offset="1" style="stop-color:#FF928E"/>
			</linearGradient>
			<path style="fill:url(#SVGID_00000127040402050328744280000010819083817793378718_);" d="M2770.51,2276.524
				c10.502-5.774,22.794-7.373,34.424-4.478l23.194,5.773c4.931,1.228,9.815-2.167,10.382-7.217l24.003-213.639
				c30.012,14.251,73.31,12.549,87.589,11.506l-55.244,251.863h-193.32L2770.51,2276.524z"/>
			
				<linearGradient id="SVGID_00000044139008976984168900000009456662194957117093_" gradientUnits="userSpaceOnUse" x1="-9440.3242" y1="1877.0593" x2="-8976.1436" y2="1877.0593" gradientTransform="matrix(-1 0 0 1 -6719.2798 0)">
				<stop  offset="0" style="stop-color:#FEBBBA"/>
				<stop  offset="1" style="stop-color:#FF928E"/>
			</linearGradient>
			<path style="fill:url(#SVGID_00000044139008976984168900000009456662194957117093_);" d="M2256.864,1813.118l5.843-19.419
				c3.363-11.175,11.624-20.216,22.452-24.57l105.681-42.499c0,0,1.595-13.554-22.329-22.764
				c-23.924-9.21-18.332-36.005-18.332-36.005s32.687,14.911,80.535,38.558c27.366,13.525,42.72,37.402,50.862,55.375
				l239.469,291.932l-28.115,19.318c-36.97,25.402-87.819,12.923-108.829-26.708l-129.729-248.765
				C2389.239,1817.139,2323.332,1820.88,2256.864,1813.118z"/>
			<g>
				
					<linearGradient id="SVGID_00000048468185167569092600000010763838752658032513_" gradientUnits="userSpaceOnUse" x1="-9607.4365" y1="1616.7167" x2="-9445.8906" y2="1450.9749" gradientTransform="matrix(-1 0 0 1 -6719.2798 0)">
					<stop  offset="0" style="stop-color:#FEBBBA"/>
					<stop  offset="1" style="stop-color:#FF928E"/>
				</linearGradient>
				<path style="fill:url(#SVGID_00000048468185167569092600000010763838752658032513_);" d="M2798.107,1407.27l61.57,172.319
					c0,0-54.52,42.623-94.307,28.211l-31.026-98.777C2734.345,1509.023,2758.042,1388.297,2798.107,1407.27z"/>
				<g>
					
						<linearGradient id="SVGID_00000057839736540816447860000000693785921215408787_" gradientUnits="userSpaceOnUse" x1="-9373.1553" y1="1346.5483" x2="-9574.5625" y2="1612.9935" gradientTransform="matrix(-1 0 0 1 -6719.2798 0)">
						<stop  offset="0" style="stop-color:#FEBBBA"/>
						<stop  offset="1" style="stop-color:#FF928E"/>
					</linearGradient>
					<path style="fill:url(#SVGID_00000057839736540816447860000000693785921215408787_);" d="M2614.351,1345.384
						c0,2.655,59.309,167.896,59.309,167.896l93.63-35.87l-32.945-164.965C2734.345,1312.445,2614.351,1300.93,2614.351,1345.384z"
						/>
					
						<linearGradient id="SVGID_00000158002476736383757110000008714417939204240517_" gradientUnits="userSpaceOnUse" x1="-9526.9727" y1="1410.8214" x2="-9286.3887" y2="1410.8214" gradientTransform="matrix(-1 0 0 1 -6719.2798 0)">
						<stop  offset="0" style="stop-color:#09005D"/>
						<stop  offset="1" style="stop-color:#1A0F91"/>
					</linearGradient>
					<path style="fill:url(#SVGID_00000158002476736383757110000008714417939204240517_);" d="M2717.921,1352.634l24.143,85.483
						c0.31,1.096,0.468,2.2,0.469,3.34c0.01,6.972-1.717,30.963-26.154,27.7c-22.173-2.961-42.454-5.333-55.35,0.741
						c-5.79,2.727-8.561,9.39-6.396,15.414c5.393,15.011,18.169,48.614,33.725,76.115c3.157,5.581,10.08,7.751,15.916,5.096
						c17.585-8.001,54.2-25.912,80.281-47.221c3.534-2.887,5.232-7.429,4.39-11.914c-4.103-21.868-16.327-88.376-16.866-107.437
						c-0.506-17.89,19.568-31.547,28.406-36.681c2.897-1.683,4.959-4.455,5.743-7.712c2.774-11.515,5.129-37.576-28.113-43.319
						c-6.957-1.202-11.493-7.861-10.081-14.779c2.813-13.771,1.913-34.038-24.238-41.502c-26.582-7.587-43.308,8.414-51.815,20.682
						c-3.439,4.961-9.876,6.571-15.387,4.108c-3.138-1.402-6.929-1.464-11.002,1.97c-5.489,4.628-13.845,3.219-17.879-2.719
						c-7.75-11.409-21.832-22.797-45.671-15.084c-42.301,13.686-40.279,62.458-24.773,88.972
						c15.506,26.514,60.525,9.067,81.836-8.502c16.204-13.359,40.876-5.367,51.771-0.769
						C2714.331,1346.071,2716.903,1349.028,2717.921,1352.634z"/>
					
						<linearGradient id="SVGID_00000051382727293273829790000008228873142341776560_" gradientUnits="userSpaceOnUse" x1="-9668.1377" y1="1557.552" x2="-9506.5928" y2="1391.8112" gradientTransform="matrix(-1 0 0 1 -6719.2798 0)">
						<stop  offset="0" style="stop-color:#FEBBBA"/>
						<stop  offset="1" style="stop-color:#FF928E"/>
					</linearGradient>
					<path style="fill:url(#SVGID_00000051382727293273829790000008228873142341776560_);" d="M2780.56,1431.163
						c0,0-25.035-47.359-8.48-62.23c16.555-14.872,44.603-12.438,43.848,24.596C2814.99,1439.593,2780.56,1431.163,2780.56,1431.163
						z"/>
				</g>
			</g>
			
				<linearGradient id="SVGID_00000145052645330403997760000003477438431432226438_" gradientUnits="userSpaceOnUse" x1="3618.5442" y1="1186.5284" x2="2393.5129" y2="2451.2896">
				<stop  offset="0" style="stop-color:#53D8FF"/>
				<stop  offset="1" style="stop-color:#3840F7"/>
			</linearGradient>
			<path style="fill:url(#SVGID_00000145052645330403997760000003477438431432226438_);" d="M2930.675,2071.675
				c13.662,0,23.414-1.037,24.469-1.154l1.777-0.199l72.892-339.849c0.288-1.34-0.565-2.661-1.905-2.947
				c-1.355-0.298-2.659,0.567-2.947,1.905l-72.135,336.322c-10.848,0.953-68.777,4.799-99.357-16.865l63.144-295.262l-13.18-24.836
				c-0.642-1.212-2.145-1.672-3.357-1.03c-1.212,0.645-1.672,2.145-1.03,3.357l12.336,23.242l-63.435,296.62l1.267,0.952
				C2871.31,2068.532,2906.902,2071.675,2930.675,2071.675z"/>
		</g>
		<g>
			<g>
				<path style="fill:#7D97F4;" d="M907.267,3130.481c-1.594,0-3.213-0.407-4.771-1.264c-6.133-3.376-8.966-12.475-6.328-20.322
					l253.533-754.151c2.636-7.845,9.743-11.467,15.882-8.096c6.133,3.376,8.966,12.474,6.328,20.322l-253.532,754.151
					C916.411,3126.974,911.952,3130.481,907.267,3130.481z"/>
				<path style="fill:#7D97F4;" d="M1192.883,3130.481c-4.685,0-9.144-3.504-11.111-9.36L928.239,2366.97
					c-2.638-7.848,0.195-16.946,6.328-20.322c6.129-3.376,13.242,0.247,15.882,8.096l253.532,754.151
					c2.639,7.847-0.195,16.946-6.328,20.322C1196.098,3130.073,1194.476,3130.481,1192.883,3130.481z"/>
				<path style="fill:#7D97F4;" d="M2627.928,3130.481c-1.593,0-3.213-0.407-4.771-1.264c-6.132-3.376-8.966-12.475-6.327-20.322
					l253.532-754.151c2.639-7.845,9.742-11.467,15.883-8.096c6.132,3.376,8.966,12.474,6.327,20.322l-253.532,754.151
					C2637.071,3126.974,2632.613,3130.481,2627.928,3130.481z"/>
				<path style="fill:#7D97F4;" d="M2913.542,3130.481c-4.685,0-9.144-3.504-11.111-9.36l-253.532-754.151
					c-2.639-7.848,0.195-16.946,6.327-20.322c6.129-3.376,13.241,0.247,15.883,8.096l253.532,754.151
					c2.639,7.847-0.194,16.946-6.327,20.322C2916.757,3130.073,2915.135,3130.481,2913.542,3130.481z"/>
			</g>
			<path style="fill:#7D97F4;" d="M3002.435,2311.124c1.184-4.269-0.428-8.683-4.398-12.037c-3.97-3.354-9.881-5.296-16.119-5.296
				H868.927c-8.203,0-15.841,2.915-20.26,7.731c-4.42,4.817-5.012,10.872-1.572,16.062l22.898,34.543
				c5.243,7.91,16.604,12.975,29.106,12.975h2068.32c11.629,0,21.625-5.748,23.834-13.707L3002.435,2311.124z"/>
		</g>
		<g>
			<path style="fill:#FFFFFF;" d="M2368.297,1434.932c0,0-447.983-221.344-301.477-384.315
				c146.507-162.971,419.642-97.831,433.479,73.696C2514.136,1295.84,2181.694,1255.599,2368.297,1434.932z"/>
			<g>
				<path style="fill:#91B3FA;" d="M2100.199,1092.71c0,2.497,2.022,4.517,4.517,4.517h197.709c2.494,0,4.517-2.02,4.517-4.517
					c0-2.497-2.022-4.517-4.517-4.517h-197.709C2102.222,1088.193,2100.199,1090.213,2100.199,1092.71z"/>
				<path style="fill:#91B3FA;" d="M2361.131,1097.227h58.665c2.494,0,4.517-2.02,4.517-4.517c0-2.497-2.023-4.517-4.517-4.517
					h-58.665c-2.494,0-4.517,2.02-4.517,4.517C2356.615,1095.207,2358.637,1097.227,2361.131,1097.227z"/>
				<path style="fill:#91B3FA;" d="M2093.539,1132.734c0,2.497,2.022,4.517,4.517,4.517h74.237c2.494,0,4.517-2.02,4.517-4.517
					s-2.022-4.517-4.517-4.517h-74.237C2095.561,1128.217,2093.539,1130.238,2093.539,1132.734z"/>
				<path style="fill:#91B3FA;" d="M2276.707,1132.734c0,2.497,2.022,4.517,4.517,4.517h131.911c2.495,0,4.517-2.02,4.517-4.517
					s-2.022-4.517-4.517-4.517h-131.911C2278.729,1128.217,2276.707,1130.238,2276.707,1132.734z"/>
				<path style="fill:#91B3FA;" d="M2091.396,1177.28h197.344c2.494,0,4.517-2.02,4.517-4.517c0-2.497-2.022-4.517-4.517-4.517
					h-197.344c-2.495,0-4.517,2.02-4.517,4.517C2086.878,1175.259,2088.901,1177.28,2091.396,1177.28z"/>
				<path style="fill:#91B3FA;" d="M2338.155,1177.28h68.32c2.494,0,4.517-2.02,4.517-4.517c0-2.497-2.022-4.517-4.517-4.517h-68.32
					c-2.494,0-4.517,2.02-4.517,4.517C2333.638,1175.259,2335.661,1177.28,2338.155,1177.28z"/>
			</g>
		</g>
	</g>
</g>
</svg>
