<?xml version="1.0" encoding="utf-8"?>
<!-- Generator: Adobe Illustrator 27.5.0, SVG Export Plug-In . SVG Version: 6.00 Build 0)  -->
<svg version="1.1" xmlns="http://www.w3.org/2000/svg" xmlns:xlink="http://www.w3.org/1999/xlink" x="0px" y="0px"
	 viewBox="0 0 500 500" style="enable-background:new 0 0 500 500;" xml:space="preserve">
<g id="BACKGROUND">
	<rect style="fill:#FFFFFF;" width="500" height="500"/>
</g>
<g id="OBJECTS">
	<path style="fill:#EDF0F6;" d="M109.086,397.838c0,0-98.394-70.441-49.749-120.777c48.645-50.336,165.149-17.836,195.531-36.227
		c30.382-18.392,98-86.043,154.01-48.238c51.104,34.495-13.511,89.92,4.225,124.123c19.315,37.249,20.144,52.82,10.789,81.119
		H109.086z"/>
	<g>
		
			<line style="fill:none;stroke:#657380;stroke-width:1.0299;stroke-linecap:round;stroke-linejoin:round;stroke-miterlimit:10;" x1="96.409" y1="398.367" x2="316.117" y2="398.367"/>
		
			<line style="fill:none;stroke:#657380;stroke-width:1.0299;stroke-linecap:round;stroke-linejoin:round;stroke-miterlimit:10;" x1="406.246" y1="398.367" x2="456.261" y2="398.367"/>
		
			<line style="fill:none;stroke:#657380;stroke-width:1.0299;stroke-linecap:round;stroke-linejoin:round;stroke-miterlimit:10;" x1="36.674" y1="398.367" x2="61.551" y2="398.367"/>
	</g>
	<g>
		<g>
			<path style="fill:#EAAB73;" d="M315.536,277.629c-0.542,2.66-3.137,4.378-5.797,3.836c-2.66-0.542-4.378-3.137-3.836-5.797
				c0.542-2.66,3.137-4.378,5.797-3.836C314.361,272.373,316.078,274.968,315.536,277.629z"/>
			<path style="fill:#EAAB73;" d="M318.137,280.665l-5.01-1.02c-1.309-0.267-2.161-1.555-1.895-2.864v0
				c0.267-1.309,1.555-2.161,2.864-1.895l5.01,1.02c1.309,0.266,2.162,1.555,1.895,2.864l0,0
				C320.735,280.078,319.446,280.931,318.137,280.665z"/>
		</g>
		<path style="fill:#233241;" d="M342.818,287.232c-0.118-0.012-0.237-0.029-0.356-0.051l-27.519-5.026l1.643-8.995l24.652,4.503
			c5.175-7.317,12.502-15.248,12.502-15.248l0,0l9.181,0.616c0.317,2.216-1.603,2.169-15.912,22.301
			C346.051,286.68,344.446,287.398,342.818,287.232z"/>
	</g>
	<g>
		<path style="fill:#5062E5;" d="M249.364,398.022L249.364,398.022c-18.225,0-33-14.775-33-33v-25.728h66v25.728
			C282.364,383.247,267.59,398.022,249.364,398.022z"/>
		<path style="fill:#5062E5;" d="M279.367,239.878c3.427-2.729,0.681-7.639,0.681-7.639h0.007c-0.906-2.049-1.419-4.31-1.419-6.695
			c0-9.155,7.422-16.576,16.576-16.576c9.155,0,16.576,7.421,16.576,16.576c0,2.384-0.513,4.646-1.419,6.695h0.007
			c0,0-2.746,4.91,0.681,7.639h26.322c-5.396,27.219-24.776,43.183-39.84,59.681c-16.668,18.255-15.542,36.584-15.37,37.785
			c1.289,8.996-33.202,7.454-33.202,7.454v-104.92H279.367z"/>
		<path style="fill:#77D0FA;" d="M235.772,164.591c2.384,0,4.646,0.513,6.695,1.419v-0.007c0,0,3.736,2.087,6.502,0.346v-31.492
			c3.216,0,6.431,0.27,9.612,0.81c41.724,7.082,71.875,29.128,78.961,73.415c1.88,11.753,1.608,21.876-0.161,30.796h-26.322
			c-3.427-2.729-0.681-7.639-0.681-7.639h-0.007c0.906-2.049,1.419-4.31,1.419-6.695c0-9.155-7.421-16.576-16.576-16.576
			c-9.155,0-16.576,7.421-16.576,16.576c0,2.384,0.513,4.646,1.419,6.695h-0.007c0,0,2.746,4.91-0.681,7.639h-30.399v-43.892
			c-2.766-1.742-6.502,0.345-6.502,0.345v-0.007c-2.049,0.906-4.31,1.419-6.695,1.419c-9.155,0-16.576-7.421-16.576-16.576
			C219.195,172.013,226.617,164.591,235.772,164.591z"/>
		<path style="fill:#6BADF8;" d="M160.556,239.878h24.813c3.427-2.729,0.682-7.639,0.682-7.639h0.007
			c-0.906-2.049-1.42-4.31-1.42-6.695c0-9.155,7.421-16.576,16.576-16.576c9.155,0,16.576,7.421,16.576,16.576
			c0,2.384-0.513,4.646-1.419,6.695h0.007c0,0-2.745,4.91,0.681,7.639h31.908v33.796c2.66,1.076,5.824-0.687,5.824-0.687v0.007
			c2.049-0.906,4.31-1.419,6.695-1.419c9.155,0,16.576,7.421,16.576,16.576c0,9.155-7.421,16.576-16.576,16.576
			c-2.384,0-4.646-0.513-6.695-1.419v0.007c0,0-3.164-1.763-5.824-0.688v42.171c0,0-33.192,1.542-33.202-7.454
			c-0.001-1.213,1.298-19.529-15.37-37.785C185.332,283.061,165.952,267.097,160.556,239.878z"/>
		<path style="fill:#F1D34D;" d="M281.92,350.333h-67.162c-3.682,0-6.667-2.985-6.667-6.667l0,0c0-3.682,2.985-6.667,6.667-6.667
			h67.162c3.682,0,6.667,2.985,6.667,6.667l0,0C288.586,347.348,285.602,350.333,281.92,350.333z"/>
		<path style="fill:#F1D34D;" d="M281.92,373.695h-67.162c-3.682,0-6.667-2.985-6.667-6.667l0,0c0-3.682,2.985-6.667,6.667-6.667
			h67.162c3.682,0,6.667,2.985,6.667,6.667l0,0C288.586,370.71,285.602,373.695,281.92,373.695z"/>
	</g>
	<g>
		<polygon style="fill:#4F65E9;" points="354.609,303.306 351.704,313.356 382.27,316.084 381.685,303.339 		"/>
		<polygon style="fill:#5062E5;" points="367.988,310.39 356.946,341.161 355.438,388.691 344.559,388.534 344.205,338.988 
			352.498,310.647 		"/>
		<polygon style="opacity:0.66;fill:#C6C6C6;" points="366.438,314.708 358.499,313.668 362.77,324.93 		"/>
		<polygon style="fill:#5062E5;" points="382.273,314.013 383.331,342.324 390.281,389.233 379.048,389.091 369.707,343.116 
			366.243,310.384 		"/>
		<g>
			<path style="fill:#2B3C50;" d="M346.139,388.46l7.423,0.214l-0.184,10.64l-21.105-0.609l0,0c0.21-1.665,1.38-2.941,3.023-3.282
				l10.541-2.184L346.139,388.46z"/>
			
				<rect x="332.245" y="399.009" transform="matrix(0.9996 0.0288 -0.0288 0.9996 11.6751 -9.7212)" style="fill:#C4C9E7;" width="21.114" height="1.644"/>
		</g>
		<g>
			<path style="fill:#2B3C50;" d="M381.355,390.105l7.041-0.68l1.091,10.078l-19.959,0.29l0,0c0-1.598,0.954-2.944,2.467-3.461
				l9.642-1.674L381.355,390.105z"/>
			<polygon style="fill:#C4C9E7;" points="389.487,399.503 369.528,399.793 369.678,401.352 389.637,401.061 			"/>
		</g>
		<path style="fill:#2B3C50;" d="M369.808,260.075l0.894,0.18c3.927,0.789,7.003,3.848,7.816,7.77l5.051,36.27
			c-13.717,6.858-30.487-1.001-30.487-1.001l-2.079-33.735c-0.328-3.722,1.734-7.243,5.141-8.777l0,0L369.808,260.075z"/>
		<path style="fill:#E59924;" d="M357.298,260.716l11.611-0.602c0,0-0.318,5.119-7.296,4.79
			C355.92,264.636,357.298,260.716,357.298,260.716z"/>
		<g>
			<path style="fill:#E59924;" d="M333.619,290.324c-0.283,2.7-2.701,4.659-5.401,4.376c-2.7-0.283-4.659-2.701-4.376-5.401
				c0.283-2.7,2.701-4.659,5.401-4.376C331.943,285.206,333.902,287.624,333.619,290.324z"/>
			<path style="fill:#E59924;" d="M336.5,293.096l-5.085-0.533c-1.328-0.139-2.301-1.34-2.162-2.668l0,0
				c0.139-1.328,1.34-2.301,2.668-2.162l5.085,0.533c1.328,0.139,2.301,1.34,2.162,2.668l0,0
				C339.029,292.262,337.828,293.235,336.5,293.096z"/>
		</g>
		<path style="fill:#2B3C50;" d="M333.65,294.836l0.337-9.137l25.181,0.93l9.385-20.229c1.129-2.258,3.874-3.174,6.133-2.046l0,0
			c2.259,1.129,3.174,3.874,2.046,6.133l-10.701,22.863c-0.801,1.604-2.466,2.591-4.258,2.525L333.65,294.836z"/>
		
			<rect x="347.673" y="379.529" transform="matrix(0.0354 -0.9994 0.9994 0.0354 -48.455 722.4946)" style="fill:#7286F2;" width="4.757" height="13.64"/>
		<polygon style="fill:#7286F2;" points="377.119,385.53 391,384.708 391.75,389.406 377.869,390.227 		"/>
		<path style="fill:#233241;" d="M352.603,295.536l8.129,0.302c2.287-0.066,4.356-1.376,5.395-3.414l9.765-20.14
			c-3.926,11.811-8.965,23.801-8.965,23.801c-0.618,1.53-2.153,2.487-3.799,2.37l-10.393-0.787L352.603,295.536z"/>
		<g>
			<polygon style="fill:#E59924;" points="367.046,263.311 358.707,262.606 360.017,244.994 368.356,245.699 			"/>
			<path style="fill:#CC8420;" d="M358.962,259.185c0,0,7.654,1.497,8.581-11.194l-8.405,8.818L358.962,259.185z"/>
			<path style="fill:#E59924;" d="M357.316,256.852L357.316,256.852c-5.271-0.377-9.238-4.956-8.861-10.227l0.548-7.665
				c0.166-2.319,2.18-4.064,4.499-3.898l14.89,1.065l-0.849,11.863C367.166,253.262,362.587,257.229,357.316,256.852z"/>
			<path style="fill:#222C38;" d="M368.316,246.55L365,246.335l0.012-4.768c0,0-0.203-3.194,1.977-3.325l-17.788-0.898
				c0,0-5.381-0.81-3.977-6.256c0.802-3.112,3.6-4.376,4.881-4.263c0.976,0.086,1.604,1.672,1.601,2.652v0.002
				c0,0,17.552-3.365,18.192,3.87c0.511,5.779-1.06,7.069-1.06,7.069L368.316,246.55z"/>
			<path style="fill:#222C38;" d="M368.63,233.621c0,0,4.153-0.216,4.489,3.458c0.582,6.374-4.802,9.471-4.802,9.471l0.076-10.422
				L368.63,233.621z"/>
			<path style="fill:#E59924;" d="M372.098,246.219c-0.466,1.594-2.136,2.508-3.73,2.042c-1.594-0.466-2.508-2.136-2.042-3.73
				c0.466-1.594,2.136-2.508,3.73-2.041C371.65,242.955,372.564,244.625,372.098,246.219z"/>
			<path style="fill:#222C38;" d="M350.901,230.473c0,0,1.515-2.984,2.878-3.214c1.362-0.23-0.611,3.713-0.611,3.713
				L350.901,230.473z"/>
			<path style="fill:#FFFFFF;" d="M358.962,259.185"/>
			<path style="fill:#222C38;" d="M368.625,235.27c-0.082,0-0.164-0.037-0.22-0.106c-0.099-0.122-0.079-0.299,0.042-0.398
				c2.095-1.697,2.04-3.958,2.04-3.981c-0.006-0.157,0.116-0.288,0.271-0.294c0.004,0,0.009,0,0.011,0
				c0.151,0,0.277,0.119,0.283,0.271c0.004,0.103,0.076,2.563-2.249,4.444C368.751,235.249,368.688,235.27,368.625,235.27z"/>
			<path style="fill:#222C38;" d="M369.423,235.527c-0.011,0-0.023-0.002-0.035-0.003c-0.155-0.018-0.266-0.161-0.246-0.316
				c0.275-2.236,3.576-2.588,3.715-2.602c0.01,0,0.02-0.001,0.028-0.001c0.144,0,0.267,0.11,0.283,0.256
				c0.016,0.155-0.099,0.295-0.254,0.311c-0.03,0.003-2.989,0.321-3.21,2.108C369.688,235.421,369.565,235.527,369.423,235.527z"/>
		</g>
	</g>
	<g>
		<path style="fill:#EDF0F6;" d="M71.391,142.831c0,0,2.42-2.784,3.904-4.06c2.672-2.298,5.736-6.359,15.534-3.366
			c0.762,0.233,1.499,0.541,2.233,0.852c0.864,0.366,3.54,0.375,6.28-1.801c4.355-3.458,6.058-6.066,12.023-6.148
			c6.942-0.094,8.033,8.559,13.429,10.774c3.433,1.41,12.492,2.811,14.365,3.435L71.391,142.831z"/>
		<path style="fill:#EDF0F6;" d="M293.524,101.983c0,0,4.086-4.7,6.59-6.853c4.51-3.879,9.682-10.734,26.222-5.682
			c1.286,0.393,2.531,0.914,3.769,1.438c1.458,0.618,5.975,0.634,10.601-3.039c7.351-5.837,10.226-10.241,20.296-10.378
			c11.718-0.159,13.561,14.449,22.669,18.188c5.796,2.379,21.087,4.745,24.25,5.799L293.524,101.983z"/>
	</g>
	<g>
		<path style="fill:#ECBE2D;" d="M149.319,198.917c-8.99-43.94,11.447-75.203,47.991-96.548c2.786-1.627,5.699-3.014,8.708-4.148
			l11.108,29.468c-1.974,2.605-6.206,1.97-6.206,1.97l0.002,0.007c-2.237-0.126-4.534,0.192-6.765,1.033
			c-8.566,3.229-12.893,12.791-9.664,21.358c3.229,8.566,12.791,12.893,21.358,9.664c2.231-0.841,4.166-2.119,5.764-3.69
			l0.003,0.007c0,0,2.76-3.271,5.962-2.616l15.482,41.071l-29.857,11.254c-4.169-1.345-3.332-6.908-3.332-6.908l-0.007,0.003
			c0.126-2.237-0.192-4.534-1.033-6.765c-3.229-8.566-12.791-12.893-21.358-9.664c-8.566,3.229-12.893,12.791-9.664,21.358
			c0.841,2.231,2.119,4.166,3.69,5.764l-0.007,0.003c0,0,4.301,3.626,2.057,7.388l-23.219,8.752
			C155.531,219.955,151.705,210.579,149.319,198.917z"/>
		<g>
			<path style="fill:#5374F4;" d="M73.55,399.133c0.763,0,1.448-0.461,1.615-1.136l52.493-212.106
				c0.193-0.778-0.377-1.544-1.269-1.71c-0.885-0.18-1.773,0.326-1.966,1.104L71.93,397.391c-0.193,0.778,0.377,1.544,1.269,1.71
				C73.317,399.123,73.435,399.133,73.55,399.133z"/>
			<path style="fill:#5374F4;" d="M112.006,399.133c0.763,0,1.448-0.461,1.615-1.136l52.691-212.106
				c0.193-0.776-0.374-1.542-1.269-1.71c-0.892-0.18-1.773,0.326-1.966,1.104l-52.691,212.106c-0.193,0.776,0.374,1.542,1.269,1.71
				C111.773,399.123,111.891,399.133,112.006,399.133z"/>
			<path style="fill:#5374F4;" d="M123.236,198.354h38.645c0.914,0,1.655-0.645,1.655-1.439c0-0.794-0.742-1.439-1.655-1.439
				h-38.645c-0.914,0-1.655,0.645-1.655,1.439C121.581,197.709,122.323,198.354,123.236,198.354z"/>
			<path style="fill:#5374F4;" d="M119.028,215.316h38.645c0.914,0,1.655-0.645,1.655-1.439c0-0.794-0.742-1.439-1.655-1.439
				h-38.645c-0.914,0-1.655,0.645-1.655,1.439C117.373,214.671,118.115,215.316,119.028,215.316z"/>
			<path style="fill:#5374F4;" d="M114.818,232.277h38.645c0.914,0,1.655-0.645,1.655-1.439c0-0.794-0.742-1.439-1.655-1.439
				h-38.645c-0.914,0-1.655,0.645-1.655,1.439C113.163,231.633,113.904,232.277,114.818,232.277z"/>
			<path style="fill:#5374F4;" d="M110.61,249.241h38.642c0.914,0,1.655-0.645,1.655-1.439c0-0.794-0.742-1.439-1.655-1.439H110.61
				c-0.914,0-1.655,0.645-1.655,1.439C108.955,248.596,109.696,249.241,110.61,249.241z"/>
			<path style="fill:#5374F4;" d="M106.4,266.203h38.645c0.914,0,1.655-0.645,1.655-1.439c0-0.794-0.742-1.439-1.655-1.439H106.4
				c-0.914,0-1.655,0.645-1.655,1.439C104.744,265.558,105.486,266.203,106.4,266.203z"/>
			<path style="fill:#5374F4;" d="M102.189,283.165h38.645c0.914,0,1.655-0.645,1.655-1.439c0-0.794-0.742-1.439-1.655-1.439
				h-38.645c-0.914,0-1.655,0.645-1.655,1.439C100.534,282.52,101.276,283.165,102.189,283.165z"/>
			<path style="fill:#5374F4;" d="M97.981,300.129h38.645c0.914,0,1.655-0.645,1.655-1.439c0-0.794-0.742-1.439-1.655-1.439H97.981
				c-0.914,0-1.655,0.645-1.655,1.439C96.326,299.484,97.068,300.129,97.981,300.129z"/>
			<path style="fill:#5374F4;" d="M93.771,317.091h38.644c0.914,0,1.655-0.645,1.655-1.439c0-0.794-0.742-1.439-1.655-1.439H93.771
				c-0.914,0-1.656,0.645-1.656,1.439C92.115,316.446,92.857,317.091,93.771,317.091z"/>
			<path style="fill:#5374F4;" d="M89.563,334.052h38.642c0.914,0,1.655-0.645,1.655-1.439c0-0.794-0.742-1.439-1.655-1.439H89.563
				c-0.914,0-1.655,0.645-1.655,1.439C87.907,333.408,88.649,334.052,89.563,334.052z"/>
			<path style="fill:#5374F4;" d="M85.352,351.016h38.645c0.914,0,1.655-0.645,1.655-1.439c0-0.794-0.742-1.44-1.655-1.44H85.352
				c-0.914,0-1.655,0.645-1.655,1.44C83.697,350.371,84.439,351.016,85.352,351.016z"/>
			<path style="fill:#5374F4;" d="M81.142,367.978h38.645c0.914,0,1.655-0.645,1.655-1.439c0-0.794-0.742-1.439-1.655-1.439H81.142
				c-0.914,0-1.655,0.645-1.655,1.439C79.487,367.333,80.228,367.978,81.142,367.978z"/>
		</g>
		<g>
			<g>
				<polygon style="fill:#E59924;" points="110.854,212.875 119.644,213.219 120.537,195.494 111.747,195.15 				"/>
				<path style="fill:#CC8420;" d="M112.344,199.092c0,0-0.529,9.776,7.444,11.267l0.305-4.646L112.344,199.092z"/>
				<path style="fill:#222C38;" d="M112.894,186.429c0,0-11.729,1.568-1.731,9.936L112.894,186.429z"/>
				<path style="fill:#E59924;" d="M121.809,208.219L121.809,208.219c5.549,0.293,10.285-3.969,10.577-9.518l0.658-12.489
					l-20.095-1.059l-0.658,12.489C111.998,203.191,116.26,207.926,121.809,208.219z"/>
				<path style="fill:#222C38;" d="M130.605,187.515c0,0,2.306,1.463,2.103,5.308c0,0,4.103-4.791,1.646-7.627
					c-0.62-0.715-1.572-1.056-2.518-1.032c-1.431,0.036-3.913,0.498-6.939,2.71C120.07,190.404,130.605,187.515,130.605,187.515z"/>
				<path style="fill:#222C38;" d="M131.262,185.632c0,0,0.236-8.919-11.757-7.701c-12.377,1.257-10.887,12.727-6.559,17.156
					l2.432-1.62L131.262,185.632z"/>
				<path style="fill:#E59924;" d="M108.94,195.958c-0.092,1.744,1.247,3.232,2.991,3.324c1.744,0.092,3.232-1.247,3.324-2.991
					c0.092-1.744-1.247-3.232-2.991-3.324C110.52,192.876,109.032,194.215,108.94,195.958z"/>
				<path style="fill:#222C38;" d="M114.484,192.568l0.258,4.919l2.616,0.114l0.217-4.997c10.237,1.039,14.204-6.458,14.204-6.458
					c-1.266-0.067-13.557-3.554-17.304-2.448c-3.747,1.105-2.21,9.271-2.21,9.271l2.08-2.044L114.484,192.568z"/>
			</g>
			<g>
				<g>
					<path style="fill:#2B3C50;" d="M134.459,302.183l-6.496-1.182l-2.888,10.655l18.493,1.151l0.261-1.438
						c0.125-1.486-0.658-2.812-2.024-3.411l-8.765-1.563L134.459,302.183z"/>
					<g>
						<path style="fill:#2B3C50;" d="M96.182,320.8l-6.539-0.913l-3.26,11.236l18.525,0.387l0.202-1.447
							c0.063-1.49-0.773-2.783-2.163-3.325l-8.306-1.13L96.182,320.8z"/>
						<polygon style="fill:#DDBB3D;" points="103.866,256.104 98.475,283.648 86.01,322.166 97.792,322.849 111.54,284.734 
							119.759,256.104 						"/>
						<polygon style="opacity:0.21;fill:#C6C6C6;" points="103.373,258.625 117.881,262.647 116.216,268.447 102.993,260.565 						
							"/>
						<path style="fill:#F1D34D;" d="M124.961,251.355l18.664,5.788c3.294,0.547,5.358,3.863,4.394,7.06l-11.687,39.44
							l-12.208-0.092l11.054-37.141l-27.472-5.975c-4.04-0.362-7.135-3.747-7.135-7.803v-1.276H124.961z"/>
					</g>
					<path style="fill:#5062E5;" d="M117.588,211.485L117.588,211.485c5.336,0.021,9.437,7.619,9.437,13.598l-2.064,26.272
						l-26.67,1.14l4.268-31.273c0.635-5.718,4.22-9.736,8.51-9.718L117.588,211.485z"/>
				</g>
				<g>
					<g>
						<path style="fill:#E59924;" d="M166.199,219.376c2.262,2.096,5.795,1.96,7.891-0.302c2.096-2.262,1.96-5.795-0.302-7.891
							c-2.262-2.096-5.795-1.96-7.891,0.302C163.801,213.748,163.937,217.281,166.199,219.376z"/>
					</g>
					<path style="fill:#E59924;" d="M141.425,235.198c-0.563,0-1.124-0.116-1.646-0.344l-25.947-11.352l3.293-7.527l24.6,10.763
						l27.942-14.717l2.23,5.812l-29.356,17.21C142.175,235.147,141.799,235.198,141.425,235.198z"/>
					<path style="fill:#5062E5;" d="M131.029,220.864l-5.337,11.256l-11.427-6.358c-3.071-1.708-4.117-5.62-2.308-8.633l0,0
						c1.522-2.535,4.618-3.648,7.406-2.661L131.029,220.864z"/>
				</g>
			</g>
		</g>
		<polygon style="opacity:0.66;fill:#C6C6C6;" points="126.627,230.148 126.128,236.504 113.285,225.083 125.692,232.12 		"/>
	</g>
</g>
<g id="DESIGNED_BY_FREEPIK">
	<g>
		<g id="XMLID_319_">
			<g id="XMLID_338_">
				<path id="XMLID_346_" style="fill:#222221;" d="M260.104,465.465c-0.432,0.443-0.803,0.931-1.108,1.453l-0.465-0.241
					c-0.067-0.298-0.349-0.503-0.659-0.466c-0.331,0.039-0.568,0.339-0.529,0.67s0.339,0.568,0.67,0.529
					c0.065-0.008,0.127-0.026,0.184-0.052l0.451,0.234c-0.251,0.554-0.433,1.139-0.539,1.744l0.746,0.132
					c0.23-1.306,0.85-2.507,1.792-3.473L260.104,465.465z"/>
				<path id="XMLID_345_" style="fill:#222221;" d="M265.592,463.163c-0.171,0-0.341,0.006-0.51,0.017l-0.074-0.626
					c0.188-0.149,0.296-0.389,0.266-0.645c-0.046-0.393-0.402-0.674-0.795-0.628s-0.674,0.402-0.628,0.795
					c0.03,0.254,0.189,0.461,0.405,0.564l0.073,0.624c-0.714,0.116-1.403,0.332-2.06,0.646l0.327,0.684
					c0.934-0.447,1.942-0.673,2.995-0.673c0.496,0,0.993,0.053,1.475,0.158l0.161-0.741
					C266.693,463.222,266.142,463.163,265.592,463.163z"/>
				<path id="XMLID_344_" style="fill:#222221;" d="M272.194,465.711c0.331-0.04,0.566-0.341,0.525-0.672
					c-0.04-0.331-0.341-0.566-0.672-0.526c-0.309,0.038-0.535,0.304-0.53,0.609l-0.416,0.363c-0.418-0.43-0.89-0.813-1.408-1.139
					l-0.404,0.641c1.134,0.715,2.021,1.726,2.563,2.925l0.691-0.313c-0.251-0.554-0.568-1.072-0.942-1.545l0.402-0.351
					C272.065,465.716,272.129,465.719,272.194,465.711z"/>
				<path id="XMLID_343_" style="fill:#222221;" d="M265.044,473.372c-0.386,0.023-0.775,0.035-1.157,0.035
					c-0.88,0-1.733-0.061-2.478-0.179c-0.39-0.062-0.846-0.155-1.27-0.292c1.046,1.861,3.069,3.125,5.388,3.125
					c2.855,0,5.262-1.916,5.95-4.504c-0.682,0.449-1.505,0.825-2.459,1.123C267.839,473.047,266.464,473.286,265.044,473.372z"/>
				<path id="XMLID_339_" style="fill:#222221;" d="M265.592,464.68c-3.352,0-6.08,2.666-6.08,5.943
					c0,0.426,0.046,0.849,0.137,1.261c0.674,0.483,2.706,0.89,5.348,0.731c2.879-0.173,5.297-0.957,6.672-2.159
					c-0.005-0.195-0.021-0.39-0.045-0.582C271.244,466.913,268.65,464.68,265.592,464.68z M263.432,471.194
					c-1.02,0-1.85-0.83-1.85-1.85c0-1.02,0.83-1.85,1.85-1.85c1.02,0,1.85,0.83,1.85,1.85
					C265.282,470.365,264.452,471.194,263.432,471.194z M268.17,470.286c-0.75,0-1.36-0.61-1.36-1.36s0.61-1.361,1.36-1.361
					c0.75,0,1.361,0.61,1.361,1.361S268.92,470.286,268.17,470.286z"/>
			</g>
			<path id="XMLID_336_" style="fill:#222221;" d="M281.595,466.547c-0.295-0.116-0.806-0.309-1.382-0.237
				c-0.551,0.069-0.844,0.341-0.844,1.007v0.866h2.228v1.717h-2.228v5.455h-1.932v-5.455h-1.34v-1.717h1.34v-0.888
				c0-1.68,0.896-2.783,2.568-2.783c0.642,0,1.157,0.122,1.59,0.308L281.595,466.547z"/>
			<path id="XMLID_334_" style="fill:#222221;" d="M286.298,469.879c-0.177-0.03-0.358-0.046-0.526-0.046
				c-0.896,0-1.51,0.548-1.51,1.614v3.908h-1.932v-7.172h1.873v0.785c0.451-0.673,1.14-0.977,2.021-0.977
				c0.414,0,0.848,0.128,1.094,0.337L286.298,469.879z"/>
			<path id="XMLID_331_" style="fill:#222221;" d="M293.965,471.757c0,0.222-0.015,0.489-0.037,0.651h-5.085
				c0.207,1.036,0.933,1.488,1.843,1.488c0.622,0,1.295-0.252,1.813-0.688l1.132,1.243c-0.814,0.748-1.85,1.088-3.057,1.088
				c-2.198,0-3.723-1.495-3.723-3.753c0-2.258,1.48-3.797,3.627-3.797C292.544,467.99,293.958,469.522,293.965,471.757z
				 M288.851,471.091h3.175c-0.177-0.918-0.733-1.436-1.562-1.436C289.554,469.655,289.021,470.203,288.851,471.091z"/>
			<path id="XMLID_328_" style="fill:#222221;" d="M301.618,471.757c0,0.222-0.015,0.489-0.037,0.651h-5.085
				c0.207,1.036,0.932,1.488,1.843,1.488c0.622,0,1.295-0.252,1.813-0.688l1.132,1.243c-0.814,0.748-1.85,1.088-3.057,1.088
				c-2.198,0-3.723-1.495-3.723-3.753c0-2.258,1.48-3.797,3.627-3.797C300.197,467.99,301.611,469.522,301.618,471.757z
				 M296.504,471.091h3.175c-0.178-0.918-0.733-1.436-1.562-1.436C297.207,469.655,296.674,470.203,296.504,471.091z"/>
			<path id="XMLID_325_" style="fill:#222221;" d="M309.964,471.764c0,2.154-1.495,3.775-3.471,3.775
				c-0.962,0-1.643-0.378-2.109-0.933v3.708h-1.924v-10.133h1.887v0.792c0.466-0.585,1.155-0.984,2.139-0.984
				C308.469,467.99,309.964,469.61,309.964,471.764z M304.287,471.764c0,1.132,0.747,1.976,1.843,1.976
				c1.14,0,1.85-0.881,1.85-1.976c0-1.095-0.71-1.976-1.85-1.976C305.035,469.788,304.287,470.632,304.287,471.764z"/>
			<path id="XMLID_322_" style="fill:#222221;" d="M313.068,465.836c0,0.696-0.54,1.229-1.236,1.229
				c-0.696,0-1.229-0.533-1.229-1.229c0-0.696,0.533-1.243,1.229-1.243C312.527,464.592,313.068,465.14,313.068,465.836z
				 M312.809,475.354h-1.932v-7.172h1.932V475.354z"/>
			<path id="XMLID_320_" style="fill:#222221;" d="M316.032,470.736l2.702-2.554h2.368l-3.479,3.375l3.501,3.797h-2.376
				l-2.716-2.901v2.901H314.1v-10.658h1.932V470.736z"/>
		</g>
		<g>
			<path style="fill:#222221;" d="M184.412,475.289v-1.055c-0.527,0.718-1.391,1.23-2.388,1.23c-1.846,0-3.149-1.406-3.149-3.706
				c0-2.256,1.289-3.721,3.149-3.721c0.952,0,1.816,0.469,2.388,1.245v-3.765h1.099v9.77H184.412z M184.412,473.37v-3.208
				c-0.395-0.615-1.245-1.143-2.124-1.143c-1.421,0-2.27,1.172-2.27,2.739c0,1.567,0.85,2.724,2.27,2.724
				C183.168,474.483,184.017,473.986,184.412,473.37z"/>
			<path style="fill:#222221;" d="M186.932,471.744c0-2.051,1.465-3.706,3.486-3.706c2.139,0,3.398,1.67,3.398,3.794v0.279h-5.727
				c0.088,1.333,1.025,2.446,2.549,2.446c0.805,0,1.626-0.322,2.182-0.894l0.527,0.718c-0.703,0.703-1.655,1.084-2.812,1.084
				C188.44,475.465,186.932,473.956,186.932,471.744z M190.403,468.947c-1.509,0-2.256,1.274-2.314,2.358h4.643
				C192.718,470.25,192.015,468.947,190.403,468.947z"/>
			<path style="fill:#222221;" d="M194.607,474.351l0.571-0.791c0.469,0.542,1.362,1.011,2.329,1.011c1.084,0,1.67-0.513,1.67-1.216
				c0-1.714-4.38-0.659-4.38-3.281c0-1.098,0.952-2.036,2.636-2.036c1.201,0,2.051,0.454,2.622,1.026l-0.513,0.762
				c-0.424-0.513-1.201-0.894-2.109-0.894c-0.967,0-1.567,0.483-1.567,1.113c0,1.552,4.38,0.527,4.38,3.281
				c0,1.187-0.952,2.138-2.783,2.138C196.306,475.465,195.325,475.113,194.607,474.351z"/>
			<path style="fill:#222221;" d="M201.477,466.471c0-0.41,0.337-0.747,0.732-0.747c0.41,0,0.747,0.337,0.747,0.747
				c0,0.41-0.337,0.732-0.747,0.732C201.814,467.203,201.477,466.881,201.477,466.471z M201.667,475.289v-7.075h1.099v7.075H201.667
				z"/>
			<path style="fill:#222221;" d="M204.582,477.105l0.556-0.82c0.586,0.703,1.289,0.967,2.3,0.967c1.172,0,2.27-0.571,2.27-2.124
				v-1.011c-0.513,0.718-1.377,1.26-2.373,1.26c-1.845,0-3.149-1.377-3.149-3.662c0-2.27,1.289-3.677,3.149-3.677
				c0.952,0,1.802,0.469,2.373,1.245v-1.069h1.098v6.87c0,2.344-1.641,3.076-3.369,3.076
				C206.237,478.16,205.417,477.926,204.582,477.105z M209.709,473.253v-3.091c-0.381-0.615-1.23-1.143-2.109-1.143
				c-1.421,0-2.27,1.128-2.27,2.695c0,1.553,0.849,2.695,2.27,2.695C208.478,474.41,209.328,473.868,209.709,473.253z"/>
			<path style="fill:#222221;" d="M217.413,475.289v-4.629c0-1.245-0.63-1.641-1.582-1.641c-0.865,0-1.685,0.527-2.095,1.099v5.17
				h-1.099v-7.075h1.099v1.025c0.498-0.586,1.465-1.201,2.519-1.201c1.48,0,2.256,0.747,2.256,2.285v4.966H217.413z"/>
			<path style="fill:#222221;" d="M219.932,471.744c0-2.051,1.465-3.706,3.486-3.706c2.139,0,3.398,1.67,3.398,3.794v0.279h-5.727
				c0.088,1.333,1.025,2.446,2.549,2.446c0.806,0,1.626-0.322,2.183-0.894l0.527,0.718c-0.703,0.703-1.655,1.084-2.812,1.084
				C221.441,475.465,219.932,473.956,219.932,471.744z M223.404,468.947c-1.509,0-2.256,1.274-2.314,2.358h4.643
				C225.718,470.25,225.015,468.947,223.404,468.947z"/>
			<path style="fill:#222221;" d="M233.35,475.289v-1.055c-0.527,0.718-1.392,1.23-2.388,1.23c-1.846,0-3.149-1.406-3.149-3.706
				c0-2.256,1.289-3.721,3.149-3.721c0.952,0,1.817,0.469,2.388,1.245v-3.765h1.098v9.77H233.35z M233.35,473.37v-3.208
				c-0.396-0.615-1.245-1.143-2.124-1.143c-1.421,0-2.27,1.172-2.27,2.739c0,1.567,0.849,2.724,2.27,2.724
				C232.105,474.483,232.954,473.986,233.35,473.37z"/>
			<path style="fill:#222221;" d="M239.692,475.289v-9.77h1.098v3.765c0.572-0.776,1.421-1.245,2.388-1.245
				c1.845,0,3.149,1.465,3.149,3.721c0,2.299-1.304,3.706-3.149,3.706c-0.996,0-1.86-0.513-2.388-1.23v1.055H239.692z
				 M242.9,474.483c1.436,0,2.285-1.157,2.285-2.724c0-1.568-0.85-2.739-2.285-2.739c-0.864,0-1.728,0.527-2.109,1.143v3.208
				C241.171,473.986,242.036,474.483,242.9,474.483z"/>
			<path style="fill:#222221;" d="M247.528,477.061c0.161,0.073,0.425,0.117,0.601,0.117c0.483,0,0.805-0.161,1.055-0.747
				l0.469-1.069l-2.959-7.148h1.187l2.358,5.8l2.344-5.8h1.201l-3.545,8.51c-0.425,1.025-1.143,1.421-2.08,1.435
				c-0.234,0-0.601-0.044-0.805-0.103L247.528,477.061z"/>
		</g>
	</g>
</g>
</svg>
