<svg width="500" height="500" viewBox="0 0 500 500" fill="none" xmlns="http://www.w3.org/2000/svg">
<g clip-path="url(#clip0_38_342)">
<path d="M410.08 342.81L397.15 433.6H68.3701L58.6601 364.34C57.5801 356.58 61.8701 349.06 69.1101 346.05L98.2901 333.94V304.92C98.2901 296.37 104.55 289.12 113.01 287.89L119.91 286.88L131.5 247.69C133.66 240.37 140.38 235.36 148 235.36H266.55C271.06 235.36 275.19 237.1 278.27 239.96C281.35 242.83 283.38 246.82 283.71 251.32L340.16 257.28C348.54 258.17 355.04 264.98 355.54 273.39L357.82 312.55L397.71 323.82C406.01 326.16 411.29 334.28 410.08 342.81Z" fill="#97C6DB"/>
<path d="M392.48 395.48L387.05 433.6H153.81L150.55 410.31C149.8 404.96 152.75 399.79 157.74 397.72L177.83 389.38V369.4C177.83 363.52 182.14 358.52 187.96 357.67L192.72 356.98L200.69 330C202.18 324.96 206.8 321.51 212.05 321.51H293.66C296.77 321.51 299.61 322.71 301.73 324.68C303.86 326.65 305.26 329.4 305.48 332.5L344.34 336.6C350.11 337.21 354.59 341.91 354.93 347.7L356.5 374.65L383.97 382.41C389.68 384.02 393.31 389.61 392.48 395.48Z" fill="#89BCCE"/>
<path d="M461.522 430.672H39.8242V436.522H461.522V430.672Z" fill="#97C6DB"/>
<path d="M100.793 382.875C100.791 382.881 100.11 384.903 99.3891 387.441C98.6691 389.984 97.9061 393.02 97.7441 395.144L98.9581 395.235C99.1001 393.3 99.8471 390.276 100.56 387.774C100.916 386.52 101.263 385.391 101.521 384.576C101.779 383.761 101.946 383.264 101.946 383.264L100.793 382.875Z" fill="#112B46"/>
<path d="M89.9121 383.878C89.9121 383.878 89.9361 384.083 89.9731 384.457C90.0831 385.577 90.3041 388.185 90.3041 391.019C90.3041 392.345 90.2551 393.721 90.1261 395.011L91.3371 395.132C91.4721 393.786 91.5211 392.374 91.5211 391.018C91.5211 387.158 91.1221 383.751 91.1211 383.737L89.9121 383.878Z" fill="#112B46"/>
<path d="M83.8789 391.929L83.8839 391.934C83.9249 391.98 84.1759 392.274 84.4049 392.69C84.6359 393.107 84.8369 393.641 84.8349 394.155H86.0519C86.0489 393.283 85.7209 392.536 85.4119 391.998C85.0999 391.46 84.7959 391.128 84.7759 391.105L83.8789 391.929Z" fill="#112B46"/>
<path d="M99.3419 384.112C99.3419 384.112 93.1029 376.199 102.69 359.763C112.277 343.328 132.061 339.371 132.974 341.501C133.887 343.632 122.93 347.74 119.886 360.371C116.842 373.002 116.437 380.002 112.632 383.807C108.828 387.612 103.654 389.134 99.3419 384.112Z" fill="url(#paint0_linear_38_342)"/>
<path d="M86.4979 385.706C86.4979 385.706 85.8129 376.806 69.7029 371.853C53.5929 366.9 38.3289 376.196 39.0129 378.132C39.6969 380.068 49.3009 376.169 58.8649 382.571C68.4289 388.973 72.8949 393.29 77.6569 393.485C82.4189 393.68 86.7029 391.566 86.4979 385.706Z" fill="url(#paint1_linear_38_342)"/>
<path d="M96.1878 379.876C96.1878 379.876 106.935 368.337 94.4728 349.872C82.0108 331.407 54.5298 330.119 53.6268 332.679C52.7238 335.238 64.3818 340.068 68.9068 354.59C73.4318 369.112 75.9018 376.389 80.6388 380.541C85.3748 384.693 91.5368 386.073 96.1878 379.876Z" fill="url(#paint2_linear_38_342)"/>
<path d="M101.879 381.671C101.825 381.671 101.77 381.664 101.716 381.648C101.392 381.559 101.202 381.224 101.292 380.899C101.571 379.894 108.254 356.177 120.614 347.118C120.884 346.918 121.265 346.977 121.465 347.249C121.664 347.52 121.605 347.901 121.334 348.1C109.316 356.908 102.533 380.982 102.466 381.225C102.39 381.494 102.146 381.671 101.879 381.671Z" fill="#E6E7E8"/>
<path d="M89.4319 378.665C89.1659 378.665 88.9099 378.474 88.8229 378.211C88.7889 378.108 88.7839 378.044 88.7509 377.551C88.1939 369.208 84.6409 341.535 62.3099 335.693C61.9849 335.608 61.7899 335.275 61.8749 334.95C61.9599 334.625 62.2949 334.432 62.6179 334.515C85.7359 340.563 89.3949 368.923 89.9649 377.471C89.9799 377.7 89.9889 377.849 89.9979 377.91C90.1039 378.229 89.9219 378.532 89.6029 378.639C89.5459 378.656 89.4889 378.665 89.4319 378.665Z" fill="#E6E7E8"/>
<path d="M81.9107 389.749C81.6347 389.749 81.3627 389.503 80.4737 388.698C70.4607 379.636 60.8107 375.345 51.7807 375.931C51.4427 375.956 51.1557 375.698 51.1337 375.363C51.1117 375.028 51.3657 374.739 51.7017 374.716C61.0757 374.093 71.0247 378.504 81.2907 387.795C81.6467 388.117 82.0127 388.449 82.1567 388.558C82.3227 388.62 82.4596 388.754 82.5196 388.935C82.6256 389.254 82.4537 389.598 82.1347 389.705C82.0537 389.733 81.9827 389.749 81.9107 389.749Z" fill="#E6E7E8"/>
<path d="M106.82 430.983H75.4301C74.6401 430.983 73.9551 430.438 73.7771 429.669L65.5591 394.156H116.691L108.473 429.669C108.295 430.439 107.61 430.983 106.82 430.983Z" fill="#BEE1F4"/>
<path d="M67.9491 404.487H114.3L116.691 394.156H65.5591L67.9491 404.487Z" fill="#7AABBC"/>
<path d="M66.0431 396.25H116.207L116.691 394.156H65.5591L66.0431 396.25Z" fill="#BEE1F4"/>
<path d="M368.036 104.085H224.601V182.177H368.036V104.085Z" fill="#0A2033"/>
<path d="M230.949 108.309C230.949 109.145 230.271 109.823 229.435 109.823C228.599 109.823 227.921 109.145 227.921 108.309C227.921 107.473 228.599 106.795 229.435 106.795C230.271 106.795 230.949 107.473 230.949 108.309Z" fill="#F9FBFC"/>
<path d="M237.271 108.309C237.271 109.145 236.593 109.823 235.757 109.823C234.921 109.823 234.243 109.145 234.243 108.309C234.243 107.473 234.921 106.795 235.757 106.795C236.593 106.795 237.271 107.473 237.271 108.309Z" fill="#FBD15B"/>
<path d="M243.141 108.468C243.141 109.304 242.463 109.982 241.627 109.982C240.791 109.982 240.113 109.304 240.113 108.468C240.113 107.632 240.791 106.954 241.627 106.954C242.463 106.954 243.141 107.632 243.141 108.468Z" fill="#FF8578"/>
<path d="M318.392 120.022H239.476V121.018H318.392V120.022Z" fill="#FBD15B"/>
<path d="M355.18 125.388H243.141V126.384H355.18V125.388Z" fill="#FBD15B"/>
<path d="M336.055 130.754H249.516V131.75H336.055V130.754Z" fill="#FBD15B"/>
<path d="M346.149 136.119H255.785V137.115H346.149V136.119Z" fill="#FBD15B"/>
<path d="M325.325 141.485H264.285V142.481H325.325V141.485Z" fill="#FBD15B"/>
<path d="M275.016 169.322H239.476V170.318H275.016V169.322Z" fill="#FF8578"/>
<path d="M329.68 163.956H243.141V164.952H329.68V163.956Z" fill="#FF8578"/>
<path d="M361.555 158.591H249.516V159.587H361.555V158.591Z" fill="#FF8578"/>
<path d="M316.825 153.225H255.785V154.221H316.825V153.225Z" fill="#FF8578"/>
<path d="M338.074 147.86H264.285V148.856H338.074V147.86Z" fill="#FF8578"/>
<path d="M232.995 119.066H231.72V120.341H232.995V119.066Z" fill="#F9FBFC"/>
<path d="M232.995 165.846H231.72V163.246H232.995V165.846ZM232.995 159.345H231.72V156.745H232.995V159.345ZM232.995 152.844H231.72V150.244H232.995V152.844ZM232.995 146.344H231.72V143.744H232.995V146.344ZM232.995 139.843H231.72V137.243H232.995V139.843ZM232.995 133.343H231.72V130.743H232.995V133.343ZM232.995 126.842H231.72V124.242H232.995V126.842Z" fill="#F9FBFC"/>
<path d="M232.995 169.747H231.72V171.022H232.995V169.747Z" fill="#F9FBFC"/>
<path d="M325.176 270.292H256.507V266.393H322.865L354.807 208.023L358.228 209.895L325.176 270.292Z" fill="#1D262D"/>
<path d="M215.243 146.34C215.243 146.34 214.333 152.4 210.673 158.05C207.013 163.7 198.763 172 196.483 172.71C195.563 172.99 192.293 171.51 188.723 169.64C187.553 169.03 186.353 168.37 185.183 167.73C181.073 165.45 177.453 163.25 177.453 163.25L172.003 155.56C174.213 144.41 178.153 136.05 184.213 128.14C190.263 120.22 203.783 124.98 208.703 128.78C213.633 132.58 216.313 138.54 215.243 146.34Z" fill="url(#paint3_radial_38_342)"/>
<path d="M184.934 147.267C184.773 152.245 188.058 154.122 188.715 154.967C189.372 155.812 184.961 160.41 182.99 158.346C181.019 156.281 184.934 147.267 184.934 147.267Z" fill="#EFA78B"/>
<path d="M308.285 397.921L310.722 409.64L294.636 412.409L290.931 398.994L308.285 397.921Z" fill="#FFC8AF"/>
<path d="M341.56 415.055L342.606 420.92L291.585 430.021L290.549 424.212C290.549 424.212 335.776 415.623 340.7 415.176L341.56 415.055Z" fill="#F9FBFC"/>
<path d="M319.882 408.145C319.968 408.022 320.016 407.887 320.026 407.741C321.05 408.134 322.112 408.539 323.195 408.958L319.587 413.957C319.297 414.351 319.397 414.909 319.79 415.199C319.996 415.342 320.238 415.389 320.465 415.349C320.674 415.312 320.886 415.184 321.014 414.999L324.754 409.832C324.811 409.75 324.851 409.671 324.853 409.58C331.705 412.173 338.89 414.816 340.7 415.176C335.776 415.622 290.549 424.212 290.549 424.212L292.161 410.714C292.23 410.139 292.784 409.76 293.352 409.871C305.327 412.214 309.484 407.003 310.616 404.983C310.856 404.555 311.369 404.378 311.826 404.555C312.354 404.759 313.108 405.051 314.03 405.409L310.465 410.346C310.175 410.74 310.272 411.28 310.665 411.57C310.871 411.713 311.116 411.778 311.343 411.737C311.552 411.7 311.764 411.572 311.907 411.366L315.63 406.202C315.659 406.161 315.687 406.12 315.695 406.064C316.526 406.384 317.453 406.74 318.44 407.122L314.717 412.285C314.427 412.679 314.506 413.223 314.917 413.509C315.105 413.655 315.351 413.72 315.595 413.676C315.804 413.639 316.016 413.511 316.141 413.309L319.882 408.145Z" fill="url(#paint4_linear_38_342)"/>
<path d="M321.014 414.998C320.885 415.183 320.674 415.311 320.465 415.348C320.238 415.388 319.996 415.342 319.79 415.198C319.396 414.908 319.297 414.35 319.587 413.956L323.195 408.957C323.754 409.163 324.295 409.373 324.854 409.579C324.852 409.669 324.812 409.748 324.755 409.831L321.014 414.998Z" fill="#F9FBFC"/>
<path d="M318.44 407.124C318.943 407.322 319.485 407.532 320.026 407.741C320.016 407.887 319.968 408.021 319.882 408.145L316.142 413.312C316.016 413.514 315.805 413.642 315.596 413.679C315.352 413.723 315.106 413.658 314.918 413.512C314.507 413.225 314.428 412.681 314.718 412.288L318.44 407.124Z" fill="#F9FBFC"/>
<path d="M311.908 411.367C311.765 411.573 311.554 411.7 311.344 411.738C311.117 411.778 310.872 411.714 310.666 411.571C310.272 411.281 310.176 410.741 310.466 410.347L314.031 405.41C314.534 405.608 315.096 405.832 315.696 406.067C315.688 406.122 315.659 406.164 315.631 406.205L311.908 411.367Z" fill="#F9FBFC"/>
<path d="M220.932 322.521C210.481 323.048 196.52 323.788 178.289 324.49C127.281 326.44 137.674 277.05 137.674 277.05L186.42 276.407C186.42 276.407 258.896 275.335 274.163 285.084C289.43 294.833 311.698 397.707 311.698 397.707L287.421 404.487C287.421 404.487 267.748 362.201 256.264 339.68C251.545 330.418 248.133 323.613 247.841 322.872C247.216 321.215 239.748 321.546 220.932 322.521Z" fill="#243C55"/>
<path d="M187.974 276.391C186.973 276.399 186.42 276.407 186.42 276.407L137.674 277.05C137.674 277.05 131.847 304.753 150.348 317.844C168.762 313.39 179.735 294.704 189.4 277.939L187.974 276.391Z" fill="#0A2033"/>
<path d="M256.263 339.68L252.227 400.71L247.84 400.808V398.273H230.447V401.237L225.65 401.354L220.931 322.522C239.747 321.547 247.215 321.216 247.839 322.873C248.132 323.613 251.545 330.418 256.263 339.68Z" fill="#0A2033"/>
<path d="M247.84 400.807V411.921H230.447V401.236L247.84 400.807Z" fill="#FFC8AF"/>
<path d="M247.84 398.272V400.807L230.447 401.236V398.272H247.84Z" fill="#0A2033"/>
<path d="M277.331 422.849V428.807H225.504V422.907C225.504 422.907 271.537 422.393 276.463 422.818L277.331 422.849Z" fill="#F9FBFC"/>
<path d="M257.203 412.24C257.309 412.134 257.38 412.01 257.416 411.868C258.355 412.435 259.33 413.02 260.322 413.622L255.892 417.91C255.538 418.247 255.538 418.814 255.874 419.168C256.051 419.345 256.282 419.434 256.512 419.434C256.725 419.434 256.955 419.345 257.115 419.186L261.704 414.756C261.775 414.685 261.828 414.614 261.846 414.526C268.136 418.282 274.745 422.145 276.464 422.818C271.538 422.393 225.505 422.907 225.505 422.907L229.462 409.902C229.63 409.348 230.243 409.072 230.783 409.281C242.16 413.691 247.167 409.291 248.637 407.501C248.948 407.122 249.484 407.038 249.903 407.292C250.387 407.586 251.078 408.006 251.923 408.52L247.546 412.755C247.192 413.092 247.192 413.641 247.528 413.995C247.705 414.172 247.936 414.279 248.166 414.279C248.379 414.279 248.609 414.19 248.786 414.013L253.357 409.583C253.393 409.548 253.428 409.512 253.446 409.459C254.208 409.92 255.058 410.433 255.962 410.983L251.391 415.413C251.037 415.75 251.019 416.299 251.373 416.653C251.533 416.83 251.763 416.936 252.011 416.936C252.224 416.936 252.454 416.847 252.613 416.67L257.203 412.24Z" fill="url(#paint5_linear_38_342)"/>
<path d="M257.115 419.186C256.955 419.346 256.725 419.434 256.512 419.434C256.282 419.434 256.051 419.345 255.874 419.168C255.537 418.814 255.537 418.247 255.892 417.91L260.322 413.622C260.836 413.923 261.332 414.225 261.846 414.526C261.828 414.615 261.775 414.685 261.704 414.756L257.115 419.186Z" fill="#F9FBFC"/>
<path d="M255.963 410.982C256.424 411.266 256.92 411.567 257.416 411.868C257.381 412.01 257.31 412.134 257.203 412.24L252.614 416.67C252.455 416.847 252.224 416.936 252.012 416.936C251.764 416.936 251.534 416.83 251.374 416.653C251.02 416.299 251.037 415.749 251.392 415.413L255.963 410.982Z" fill="#F9FBFC"/>
<path d="M248.787 414.012C248.61 414.189 248.379 414.278 248.167 414.278C247.937 414.278 247.706 414.172 247.529 413.994C247.192 413.64 247.192 413.09 247.547 412.754L251.924 408.519C252.385 408.803 252.899 409.121 253.448 409.458C253.43 409.511 253.395 409.547 253.359 409.582L248.787 414.012Z" fill="#F9FBFC"/>
<path d="M276.113 262.759H247.353C247.353 262.759 203.969 255.759 195.526 250.572C192.387 248.642 187.005 242.734 181.448 236.065L201.044 219.745C204.476 225.185 207.595 229.611 208.843 230.099C212.255 231.386 244.584 249.422 248.327 249.422C252.071 249.422 269.932 249.11 276.113 262.759Z" fill="#EFA78B"/>
<path d="M202.371 219.336L181.448 236.066C171.972 224.698 162.047 211.089 162.047 211.089L191.717 193.19C191.717 193.19 199.333 211.292 202.371 219.336Z" fill="url(#paint6_linear_38_342)"/>
<path d="M184.47 178.252L163.022 169.809C163.022 169.809 137.445 172.782 135.68 234.409C135.339 246.304 135.456 312.057 139.081 313.745C153.533 320.473 190.749 276.374 190.749 276.374C191.487 275.004 190.437 260.788 190.749 259.384C189.852 259.052 189.111 258.701 188.526 258.37C184.724 256.128 177.626 246.71 170.646 236.532L192.718 219.335C193.595 220.719 194.473 222.065 195.311 223.371C195.896 190.497 184.47 178.252 184.47 178.252Z" fill="url(#paint7_linear_38_342)"/>
<path d="M190.749 259.385C189.852 259.053 189.111 258.702 188.526 258.371C184.724 256.129 177.626 246.711 170.646 236.533L181.479 228.092L170.646 212.03L151.124 199.266V208.06C151.124 208.06 159.483 230.8 169.431 248.632C174.833 258.315 183.773 263.067 190.82 265.392C190.713 262.453 190.626 259.935 190.749 259.385Z" fill="#3030EF"/>
<path d="M253.688 255.936C253.688 255.936 208.354 237.415 205.271 236.743C204.297 236.533 200.964 231.93 196.857 225.719C195.996 224.38 193.588 220.706 192.719 219.335L170.647 236.533C177.627 246.711 184.725 256.129 188.527 258.371C189.112 258.702 189.853 259.053 190.75 259.385C190.76 259.339 190.77 259.296 190.78 259.251C190.77 259.295 190.763 259.336 190.753 259.38C203.929 264.315 251.365 266.59 252.284 266.901C253.987 268.219 257.99 268.306 261.595 267.311C263.261 266.851 264.852 266.167 266.07 265.247C269.24 262.873 273.974 266.224 276.114 267.838C277.505 268.888 280.738 268.851 281.807 267.782C279.37 254.134 253.688 255.936 253.688 255.936Z" fill="url(#paint8_radial_38_342)"/>
<path d="M189.363 168.34L188.723 169.64L187.343 172.43L187.093 172.94L184.473 178.25L163.023 169.81L172.003 155.56L186.223 166.03L189.363 168.34Z" fill="url(#paint9_radial_38_342)"/>
<path d="M151.124 208.06L173.484 242.416L199.047 227.737C199.047 227.737 192.086 200.964 185.331 186.233C181.133 177.079 169.054 172.54 157.365 179.82C147.068 186.232 147.377 201.209 151.124 208.06Z" fill="url(#paint10_linear_38_342)"/>
<path d="M193.29 146.239C192.47 142.51 189.058 139.078 185.984 144.066C185.222 145.303 184.963 146.779 184.811 148.224C184.265 153.42 178.217 155.706 173.697 156.05C172.982 156.105 172.232 156.1 171.522 155.972C171.522 155.972 172.665 147.418 175.199 137.114C177.733 126.81 183.481 116.304 191.775 120.519C191.775 120.519 199.413 116.955 204.059 122.868C204.059 122.868 211.943 120.043 216.025 126.383C216.025 126.383 227.096 128.474 229.164 135.351C231.793 144.09 219.556 146.216 215.473 143.743C211.39 141.269 208.303 136.574 205.487 136.66C202.671 136.745 203.307 141.068 202.884 143.743C202.462 146.418 198.317 143.666 196.557 147.256C194.797 150.846 193.921 152.855 192.865 152.221C191.812 151.588 193.29 146.239 193.29 146.239Z" fill="url(#paint11_linear_38_342)"/>
<path d="M191.812 147.147C192.126 145.803 191.291 143.902 190.119 143.821C188.621 143.717 187.928 145.552 187.821 147.159C187.722 148.637 188.163 151.197 189.797 150.641C191.048 150.215 189.654 148.709 190.103 147.888C190.596 146.986 191.81 148.59 191.812 147.147Z" fill="#EFA78B"/>
<path d="M188.723 169.64L187.343 172.43C182.833 169.21 183.013 164.33 183.013 164.33C183.013 164.33 184.316 167.109 188.723 169.64Z" fill="#EFA78B"/>
<path d="M107.669 219.399C107.67 219.573 107.676 219.638 107.68 219.7C107.696 219.905 107.706 219.958 107.719 220.072C107.769 220.46 107.869 221.145 108.026 222.192C109.19 229.971 113.354 256.629 117.232 281.372C121.109 306.11 124.696 328.911 124.696 328.912L132.401 327.7C132.4 327.695 132.136 326.014 131.671 323.061C130.046 312.726 125.984 286.873 122.328 263.498C120.5 251.811 118.774 240.743 117.505 232.547C116.871 228.449 116.35 225.068 115.99 222.691C115.81 221.503 115.669 220.565 115.575 219.92C115.528 219.598 115.493 219.349 115.471 219.19L115.451 219.038L113.146 219.289L115.457 219.095L115.451 219.036L113.146 219.288L115.457 219.094L111.85 219.396H115.47C115.468 219.182 115.459 219.141 115.457 219.094L111.85 219.396H115.47H107.669V219.399Z" fill="#112B46"/>
<path d="M176.577 339.44H186.022V430.098C186.022 430.996 185.294 431.724 184.396 431.724H178.203C177.305 431.724 176.577 430.996 176.577 430.098V339.44Z" fill="#0A2033"/>
<path d="M176.577 409.06H186.022V430.098C186.022 430.996 185.294 431.724 184.396 431.724H178.203C177.305 431.724 176.577 430.996 176.577 430.098V409.06Z" fill="#0A2033"/>
<path d="M155.328 340.735H207.271V342.276C207.271 345.778 204.432 348.616 200.931 348.616H161.669C158.167 348.616 155.329 345.777 155.329 342.276L155.328 340.735Z" fill="#112B46"/>
<path d="M131.153 340.977H231.446C235.533 340.977 238.847 337.664 238.847 333.576V329.978C238.847 325.891 235.534 322.577 231.446 322.577H131.153C127.066 322.577 123.752 325.89 123.752 329.978V333.576C123.752 337.664 127.066 340.977 131.153 340.977Z" fill="url(#paint12_linear_38_342)"/>
<path d="M132.287 426.196C132.287 429.249 134.762 431.724 137.815 431.724C140.868 431.724 143.343 429.249 143.343 426.196C143.343 423.143 140.868 420.668 137.815 420.668C134.762 420.668 132.287 423.143 132.287 426.196Z" fill="#0A2033"/>
<path d="M224.784 431.724C227.837 431.724 230.312 429.249 230.312 426.196C230.312 423.143 227.837 420.668 224.784 420.668C221.731 420.668 219.256 423.143 219.256 426.196C219.256 429.249 221.731 431.724 224.784 431.724Z" fill="#0A2033"/>
<path d="M171.799 418.626H190.8V402.022H171.799V418.626Z" fill="#112B46"/>
<path d="M132.287 422.533H230.312V420.471C230.312 417.295 227.737 414.72 224.561 414.72H138.039C134.863 414.72 132.288 417.295 132.288 420.471L132.287 422.533Z" fill="url(#paint13_linear_38_342)"/>
<path d="M105.345 225.827L109.506 256.675C110.099 261.073 114.145 264.157 118.543 263.563C122.941 262.97 126.025 258.924 125.431 254.526L121.27 223.678C120.677 219.28 116.631 216.196 112.233 216.79C107.836 217.383 104.752 221.429 105.345 225.827Z" fill="url(#paint14_linear_38_342)"/>
<path d="M388.02 279.478H379.571V430.672H388.02V279.478Z" fill="#BC8867"/>
<path d="M260.731 279.478H252.282V430.672H260.731V279.478Z" fill="#BC8867"/>
<path d="M396.489 270.054H245.946V280.613H396.489V270.054Z" fill="#F9FBFC"/>
<path d="M242.464 64.572H198.937V91.402H242.464V64.572Z" fill="#FF8578"/>
<path d="M215.166 72.6934L215.844 74.2262L210.664 76.4368L215.844 78.615L215.166 80.1801L208.954 77.4049V75.4848L215.166 72.6934ZM221.697 68.708L223.472 69.1113L219.713 83.5524L217.921 83.1329L221.697 68.708ZM226.24 72.6934L232.452 75.4848V77.4049L226.24 80.1801L225.562 78.615L230.725 76.4368L225.562 74.2262L226.24 72.6934Z" fill="#F9FBFC"/>
<path d="M169.146 96.405H120.035V129.253H169.146V96.405Z" fill="#FBD15B"/>
<path d="M136.289 105.834C133.943 108.769 133.98 113.056 136.369 115.956C139.084 119.25 143.734 119.78 147.074 117.552L152.228 122.707C152.445 122.924 152.798 122.924 153.016 122.707L154.464 121.259C154.681 121.042 154.681 120.689 154.464 120.471L149.309 115.316C151.397 112.186 151.062 107.906 148.302 105.146C144.946 101.788 139.339 102.017 136.289 105.834ZM146.634 114.876C144.412 117.098 140.796 117.098 138.573 114.876C136.351 112.654 136.351 109.038 138.573 106.816C140.795 104.594 144.411 104.594 146.633 106.816C148.856 109.037 148.857 112.653 146.634 114.876Z" fill="#F9FBFC"/>
<path d="M394.945 88.674H357.25V115.528H394.945V88.674Z" fill="#878CF0"/>
<path d="M373.019 93.2225C372.415 93.2225 371.992 93.3187 371.748 93.5112C371.517 93.6908 371.402 94.0052 371.402 94.4543V98.4964C371.402 99.2407 371.261 99.7796 370.978 100.113C370.696 100.447 370.253 100.697 369.65 100.864C370.253 101.018 370.696 101.262 370.978 101.595C371.261 101.929 371.402 102.462 371.402 103.193V107.235C371.402 107.684 371.524 107.999 371.767 108.178C372.011 108.371 372.428 108.467 373.019 108.467V110.238C372.018 110.238 371.228 110.129 370.651 109.911C370.086 109.692 369.682 109.365 369.438 108.929C369.207 108.493 369.092 107.922 369.092 107.216V103.385C369.092 102.821 368.996 102.429 368.803 102.211C368.624 101.98 368.29 101.865 367.802 101.865V99.8438C368.29 99.8438 368.624 99.7283 368.803 99.4973C368.996 99.2664 369.092 98.8686 369.092 98.304V94.4736C369.092 93.755 369.207 93.1775 369.438 92.7413C369.682 92.305 370.086 91.9842 370.651 91.7789C371.216 91.5607 372.005 91.4516 373.019 91.4516V93.2225ZM379.183 91.4516C380.196 91.4516 380.986 91.5607 381.55 91.7789C382.115 91.9842 382.513 92.305 382.744 92.7413C382.987 93.1775 383.109 93.755 383.109 94.4736V98.304C383.109 98.8686 383.199 99.2664 383.379 99.4973C383.571 99.7283 383.918 99.8438 384.418 99.8438V101.865C383.918 101.865 383.571 101.98 383.379 102.211C383.199 102.429 383.109 102.821 383.109 103.385V107.216C383.109 107.922 382.987 108.493 382.744 108.929C382.513 109.365 382.108 109.692 381.531 109.911C380.966 110.129 380.184 110.238 379.183 110.238V108.467C379.773 108.467 380.19 108.371 380.434 108.178C380.678 107.999 380.799 107.684 380.799 107.235V103.193C380.799 102.462 380.941 101.929 381.223 101.595C381.505 101.262 381.948 101.018 382.551 100.864C381.948 100.697 381.505 100.447 381.223 100.113C380.941 99.7796 380.799 99.2407 380.799 98.4964V94.4543C380.799 94.0052 380.678 93.6908 380.434 93.5112C380.203 93.3187 379.786 93.2225 379.183 93.2225V91.4516Z" fill="#F1F2F2"/>
<path d="M260.611 467.949C260.179 468.392 259.808 468.88 259.503 469.402L259.038 469.161C258.971 468.863 258.689 468.658 258.379 468.695C258.048 468.734 257.811 469.034 257.85 469.365C257.889 469.696 258.189 469.933 258.52 469.894C258.585 469.886 258.647 469.868 258.704 469.842L259.156 470.076C258.905 470.63 258.723 471.215 258.617 471.82L259.363 471.952C259.593 470.646 260.213 469.445 261.155 468.479L260.611 467.949Z" fill="#F9FBFC"/>
<path d="M266.099 465.647C265.928 465.647 265.758 465.653 265.589 465.664L265.515 465.038C265.703 464.889 265.811 464.649 265.781 464.393C265.735 464 265.379 463.719 264.986 463.765C264.593 463.811 264.312 464.167 264.358 464.56C264.388 464.814 264.547 465.021 264.762 465.124L264.836 465.748C264.122 465.864 263.433 466.08 262.776 466.394L263.103 467.078C264.037 466.631 265.045 466.405 266.098 466.405C266.594 466.405 267.091 466.458 267.573 466.563L267.734 465.822C267.2 465.706 266.65 465.647 266.099 465.647Z" fill="#F9FBFC"/>
<path d="M272.702 468.194C273.033 468.154 273.268 467.852 273.227 467.522C273.187 467.191 272.886 466.956 272.555 466.996C272.246 467.034 272.02 467.3 272.025 467.605L271.609 467.968C271.191 467.538 270.72 467.155 270.201 466.829L269.797 467.47C270.931 468.185 271.818 469.196 272.36 470.395L273.05 470.082C272.799 469.528 272.482 469.01 272.108 468.537L272.51 468.186C272.572 468.199 272.636 468.202 272.702 468.194Z" fill="#F9FBFC"/>
<path d="M265.552 475.855C265.166 475.878 264.777 475.89 264.395 475.89C263.515 475.89 262.662 475.829 261.917 475.711C261.527 475.649 261.071 475.556 260.647 475.419C261.693 477.28 263.716 478.544 266.035 478.544C268.89 478.544 271.297 476.628 271.985 474.04C271.303 474.489 270.48 474.865 269.526 475.163C268.346 475.53 266.971 475.77 265.552 475.855Z" fill="#F9FBFC"/>
<path d="M266.099 467.163C262.747 467.163 260.019 469.829 260.019 473.106C260.019 473.532 260.065 473.955 260.156 474.367C260.829 474.85 262.862 475.257 265.503 475.098C268.382 474.925 270.8 474.141 272.175 472.939C272.17 472.744 272.154 472.549 272.13 472.357C271.751 469.396 269.158 467.163 266.099 467.163ZM263.94 473.678C262.92 473.678 262.09 472.848 262.09 471.828C262.09 470.808 262.92 469.978 263.94 469.978C264.96 469.978 265.79 470.808 265.79 471.828C265.789 472.848 264.96 473.678 263.94 473.678ZM268.677 472.769C267.927 472.769 267.317 472.159 267.317 471.409C267.317 470.659 267.927 470.048 268.677 470.048C269.427 470.048 270.038 470.658 270.038 471.409C270.038 472.159 269.427 472.769 268.677 472.769Z" fill="#F9FBFC"/>
<path d="M282.103 469.03C281.808 468.914 281.297 468.721 280.721 468.793C280.17 468.862 279.877 469.134 279.877 469.8V470.666H282.105V472.383H279.877V477.838H277.945V472.383H276.605V470.666H277.945V469.778C277.945 468.098 278.84 466.995 280.513 466.995C281.155 466.995 281.67 467.117 282.103 467.303V469.03Z" fill="#F9FBFC"/>
<path d="M286.805 472.362C286.628 472.332 286.447 472.316 286.279 472.316C285.383 472.316 284.769 472.864 284.769 473.929V477.837H282.837V470.665H284.71V471.45C285.161 470.777 285.85 470.473 286.731 470.473C287.145 470.473 287.579 470.601 287.825 470.81L286.805 472.362Z" fill="#F9FBFC"/>
<path d="M294.473 474.24C294.473 474.462 294.458 474.729 294.436 474.891H289.351C289.558 475.927 290.284 476.379 291.194 476.379C291.816 476.379 292.489 476.127 293.007 475.691L294.14 476.934C293.326 477.682 292.29 478.022 291.083 478.022C288.885 478.022 287.36 476.527 287.36 474.269C287.36 472.011 288.84 470.472 290.987 470.472C293.051 470.473 294.465 472.005 294.473 474.24ZM289.358 473.574H292.533C292.355 472.656 291.8 472.138 290.971 472.138C290.061 472.138 289.528 472.686 289.358 473.574Z" fill="#F9FBFC"/>
<path d="M302.126 474.24C302.126 474.462 302.111 474.729 302.089 474.891H297.004C297.211 475.927 297.936 476.379 298.847 476.379C299.469 476.379 300.142 476.127 300.661 475.691L301.793 476.934C300.979 477.682 299.943 478.022 298.736 478.022C296.538 478.022 295.013 476.527 295.013 474.269C295.013 472.011 296.493 470.472 298.64 470.472C300.705 470.473 302.118 472.005 302.126 474.24ZM297.011 473.574H300.186C300.008 472.656 299.453 472.138 298.624 472.138C297.714 472.138 297.182 472.686 297.011 473.574Z" fill="#F9FBFC"/>
<path d="M310.471 474.248C310.471 476.402 308.976 478.023 307 478.023C306.038 478.023 305.357 477.645 304.891 477.09V480.798H302.967V470.665H304.854V471.457C305.32 470.872 306.009 470.473 306.993 470.473C308.976 470.473 310.471 472.094 310.471 474.248ZM304.794 474.248C304.794 475.38 305.541 476.224 306.637 476.224C307.777 476.224 308.487 475.343 308.487 474.248C308.487 473.153 307.776 472.272 306.637 472.272C305.542 472.271 304.794 473.115 304.794 474.248Z" fill="#F9FBFC"/>
<path d="M313.575 468.319C313.575 469.015 313.035 469.548 312.339 469.548C311.643 469.548 311.11 469.015 311.11 468.319C311.11 467.623 311.643 467.076 312.339 467.076C313.034 467.076 313.575 467.623 313.575 468.319ZM313.316 477.837H311.384V470.665H313.316V477.837Z" fill="#F9FBFC"/>
<path d="M316.539 473.219L319.241 470.665H321.609L318.13 474.04L321.631 477.837H319.255L316.539 474.936V477.837H314.607V467.179H316.539V473.219Z" fill="#F9FBFC"/>
<path d="M184.92 477.772V476.717C184.393 477.435 183.529 477.947 182.533 477.947C180.687 477.947 179.384 476.541 179.384 474.241C179.384 471.985 180.673 470.52 182.533 470.52C183.485 470.52 184.349 470.989 184.92 471.765V468H186.019V477.77H184.92V477.772ZM184.92 475.853V472.645C184.525 472.03 183.675 471.502 182.796 471.502C181.375 471.502 180.526 472.674 180.526 474.241C180.526 475.808 181.376 476.965 182.796 476.965C183.675 476.967 184.524 476.469 184.92 475.853Z" fill="#F9FBFC"/>
<path d="M187.439 474.228C187.439 472.177 188.904 470.522 190.925 470.522C193.064 470.522 194.323 472.192 194.323 474.316V474.595H188.596C188.684 475.928 189.621 477.041 191.145 477.041C191.95 477.041 192.771 476.719 193.327 476.148L193.854 476.866C193.151 477.569 192.199 477.95 191.042 477.95C188.948 477.948 187.439 476.439 187.439 474.228ZM190.911 471.43C189.402 471.43 188.655 472.704 188.597 473.788H193.24C193.225 472.733 192.522 471.43 190.911 471.43Z" fill="#F9FBFC"/>
<path d="M195.114 476.835L195.685 476.044C196.154 476.586 197.047 477.055 198.014 477.055C199.098 477.055 199.684 476.542 199.684 475.839C199.684 474.125 195.304 475.18 195.304 472.558C195.304 471.46 196.256 470.522 197.94 470.522C199.141 470.522 199.991 470.976 200.562 471.547L200.049 472.309C199.625 471.796 198.848 471.415 197.94 471.415C196.973 471.415 196.373 471.898 196.373 472.528C196.373 474.08 200.753 473.055 200.753 475.809C200.753 476.996 199.801 477.947 197.97 477.947C196.813 477.948 195.832 477.596 195.114 476.835Z" fill="#F9FBFC"/>
<path d="M201.984 468.954C201.984 468.544 202.321 468.207 202.716 468.207C203.126 468.207 203.463 468.544 203.463 468.954C203.463 469.364 203.126 469.686 202.716 469.686C202.321 469.686 201.984 469.365 201.984 468.954ZM202.174 477.772V470.697H203.273V477.772H202.174Z" fill="#F9FBFC"/>
<path d="M205.089 479.589L205.645 478.769C206.231 479.472 206.934 479.736 207.945 479.736C209.117 479.736 210.215 479.165 210.215 477.612V476.6C209.702 477.318 208.838 477.86 207.842 477.86C205.997 477.86 204.693 476.483 204.693 474.198C204.693 471.928 205.982 470.522 207.842 470.522C208.794 470.522 209.644 470.991 210.215 471.767V470.698H211.313V477.568C211.313 479.912 209.672 480.644 207.944 480.644C206.744 480.643 205.924 480.409 205.089 479.589ZM210.216 475.736V472.645C209.835 472.03 208.985 471.502 208.107 471.502C206.686 471.502 205.837 472.63 205.837 474.197C205.837 475.75 206.686 476.892 208.107 476.892C208.985 476.893 209.835 476.352 210.216 475.736Z" fill="#F9FBFC"/>
<path d="M217.921 477.772V473.143C217.921 471.898 217.291 471.502 216.339 471.502C215.474 471.502 214.654 472.029 214.244 472.601V477.771H213.145V470.696H214.244V471.721C214.742 471.135 215.708 470.52 216.763 470.52C218.243 470.52 219.019 471.267 219.019 472.805V477.771H217.921V477.772Z" fill="#F9FBFC"/>
<path d="M220.44 474.228C220.44 472.177 221.905 470.522 223.926 470.522C226.064 470.522 227.324 472.192 227.324 474.316V474.595H221.597C221.685 475.928 222.622 477.041 224.146 477.041C224.952 477.041 225.772 476.719 226.329 476.148L226.856 476.866C226.153 477.569 225.201 477.95 224.044 477.95C221.949 477.948 220.44 476.439 220.44 474.228ZM223.911 471.43C222.402 471.43 221.655 472.704 221.597 473.788H226.24C226.226 472.733 225.523 471.43 223.911 471.43Z" fill="#F9FBFC"/>
<path d="M233.857 477.772V476.717C233.33 477.435 232.465 477.947 231.469 477.947C229.624 477.947 228.32 476.541 228.32 474.241C228.32 471.985 229.609 470.52 231.469 470.52C232.421 470.52 233.286 470.989 233.857 471.765V468H234.955V477.77H233.857V477.772ZM233.857 475.853V472.645C233.461 472.03 232.612 471.502 231.733 471.502C230.312 471.502 229.463 472.674 229.463 474.241C229.463 475.808 230.312 476.965 231.733 476.965C232.612 476.967 233.461 476.469 233.857 475.853Z" fill="#F9FBFC"/>
<path d="M240.199 477.772V468.002H241.297V471.767C241.869 470.991 242.718 470.522 243.685 470.522C245.53 470.522 246.834 471.987 246.834 474.243C246.834 476.542 245.53 477.949 243.685 477.949C242.689 477.949 241.825 477.436 241.297 476.719V477.774H240.199V477.772ZM243.407 476.967C244.843 476.967 245.693 475.81 245.693 474.243C245.693 472.675 244.843 471.504 243.407 471.504C242.543 471.504 241.679 472.031 241.298 472.647V475.855C241.679 476.469 242.543 476.967 243.407 476.967Z" fill="#F9FBFC"/>
<path d="M248.036 479.545C248.197 479.618 248.461 479.662 248.637 479.662C249.12 479.662 249.443 479.501 249.692 478.915L250.161 477.846L247.202 470.698H248.389L250.747 476.499L253.091 470.698H254.292L250.747 479.208C250.322 480.233 249.604 480.629 248.667 480.643C248.433 480.643 248.066 480.599 247.862 480.54L248.036 479.545Z" fill="#F9FBFC"/>
</g>
<defs>
<linearGradient id="paint0_linear_38_342" x1="115.188" y1="340.973" x2="115.188" y2="387.305" gradientUnits="userSpaceOnUse">
<stop stop-color="#7978E0"/>
<stop offset="1" stop-color="#563FDA"/>
</linearGradient>
<linearGradient id="paint1_linear_38_342" x1="62.7477" y1="370.417" x2="62.7477" y2="393.497" gradientUnits="userSpaceOnUse">
<stop stop-color="#7978E0"/>
<stop offset="1" stop-color="#563FDA"/>
</linearGradient>
<linearGradient id="paint2_linear_38_342" x1="77.0353" y1="331.684" x2="77.0353" y2="384.094" gradientUnits="userSpaceOnUse">
<stop stop-color="#7978E0"/>
<stop offset="1" stop-color="#563FDA"/>
</linearGradient>
<radialGradient id="paint3_radial_38_342" cx="0" cy="0" r="1" gradientUnits="userSpaceOnUse" gradientTransform="translate(191.811 154.969) scale(33.9585 33.9585)">
<stop stop-color="#FFC8AF"/>
<stop offset="1" stop-color="#FFBB9C"/>
</radialGradient>
<linearGradient id="paint4_linear_38_342" x1="305.676" y1="402.463" x2="319.937" y2="427.164" gradientUnits="userSpaceOnUse">
<stop stop-color="#7978E0"/>
<stop offset="1" stop-color="#563FDA"/>
</linearGradient>
<linearGradient id="paint5_linear_38_342" x1="239.861" y1="403.597" x2="257.334" y2="433.862" gradientUnits="userSpaceOnUse">
<stop stop-color="#7978E0"/>
<stop offset="1" stop-color="#563FDA"/>
</linearGradient>
<linearGradient id="paint6_linear_38_342" x1="162.047" y1="214.627" x2="202.371" y2="214.627" gradientUnits="userSpaceOnUse">
<stop stop-color="#606BF1"/>
<stop offset="1" stop-color="#433AFF"/>
</linearGradient>
<linearGradient id="paint7_linear_38_342" x1="128.8" y1="188.642" x2="187.785" y2="290.807" gradientUnits="userSpaceOnUse">
<stop stop-color="#606BF1"/>
<stop offset="1" stop-color="#433AFF"/>
</linearGradient>
<radialGradient id="paint8_radial_38_342" cx="0" cy="0" r="1" gradientUnits="userSpaceOnUse" gradientTransform="translate(226.226 243.971) scale(42.9885 42.9885)">
<stop stop-color="#FFC8AF"/>
<stop offset="1" stop-color="#FFBB9C"/>
</radialGradient>
<radialGradient id="paint9_radial_38_342" cx="0" cy="0" r="1" gradientUnits="userSpaceOnUse" gradientTransform="translate(191.816 154.97) scale(33.9478 33.9478)">
<stop stop-color="#FFC8AF"/>
<stop offset="1" stop-color="#FFBB9C"/>
</radialGradient>
<linearGradient id="paint10_linear_38_342" x1="173.89" y1="176.209" x2="173.89" y2="242.416" gradientUnits="userSpaceOnUse">
<stop stop-color="#606BF1"/>
<stop offset="1" stop-color="#433AFF"/>
</linearGradient>
<linearGradient id="paint11_linear_38_342" x1="200.527" y1="119.456" x2="200.527" y2="156.084" gradientUnits="userSpaceOnUse">
<stop stop-color="#56549E"/>
<stop offset="0.9898" stop-color="#2E2C71"/>
</linearGradient>
<linearGradient id="paint12_linear_38_342" x1="164.283" y1="302.304" x2="198.316" y2="361.251" gradientUnits="userSpaceOnUse">
<stop stop-color="#EC827D"/>
<stop offset="1" stop-color="#FF5A7D"/>
</linearGradient>
<linearGradient id="paint13_linear_38_342" x1="167.496" y1="396.821" x2="194.333" y2="443.305" gradientUnits="userSpaceOnUse">
<stop stop-color="#EC827D"/>
<stop offset="1" stop-color="#FF5A7D"/>
</linearGradient>
<linearGradient id="paint14_linear_38_342" x1="104.171" y1="220.748" x2="126.605" y2="259.605" gradientUnits="userSpaceOnUse">
<stop stop-color="#EC827D"/>
<stop offset="1" stop-color="#FF5A7D"/>
</linearGradient>
<clipPath id="clip0_38_342">
<rect width="500" height="500" fill="white"/>
</clipPath>
</defs>
</svg>
