<svg width="500" height="500" viewBox="0 0 500 500" fill="none" xmlns="http://www.w3.org/2000/svg">
<path d="M250.706 448.75C372.902 448.75 471.961 442.483 471.961 434.751C471.961 427.02 372.902 420.752 250.706 420.752C128.51 420.752 29.4512 427.02 29.4512 434.751C29.4512 442.483 128.51 448.75 250.706 448.75Z" fill="#DBE6F7"/>
<path d="M165.174 95.2844C165.174 96.3304 164.748 97.2834 164.054 97.9734C163.368 98.6674 162.415 99.0945 161.369 99.0945H79.9251C77.8331 99.0945 76.1191 97.3804 76.1191 95.2844C76.1191 94.2384 76.5451 93.2855 77.2401 92.5955C77.9251 91.9005 78.8791 91.4744 79.9251 91.4744H83.7741C85.2941 87.9414 88.8051 85.4725 92.8921 85.4725C95.6431 85.4725 98.1301 86.5925 99.9321 88.3985C102.331 84.3295 106.756 81.5965 111.823 81.5965C113.216 81.5965 114.556 81.8075 115.822 82.1895C118.472 77.2065 123.71 73.8145 129.748 73.8145C136.999 73.8145 143.098 78.7095 144.939 85.3715C146.275 84.7035 147.782 84.3214 149.382 84.3214C153.904 84.3214 157.718 87.3404 158.918 91.4754H161.37C163.46 91.4744 165.174 93.1884 165.174 95.2844Z" fill="#DBE6F7"/>
<path d="M477.646 145.893C477.646 146.939 477.22 147.892 476.525 148.582C475.839 149.276 474.886 149.703 473.84 149.703H392.396C390.304 149.703 388.59 147.989 388.59 145.893C388.59 144.847 389.016 143.894 389.711 143.204C390.396 142.51 391.35 142.083 392.396 142.083H396.245C397.765 138.55 401.276 136.08 405.363 136.08C408.114 136.08 410.601 137.2 412.403 139.006C414.802 134.937 419.227 132.204 424.294 132.204C425.687 132.204 427.027 132.415 428.293 132.797C430.943 127.814 436.181 124.421 442.219 124.421C449.47 124.421 455.569 129.316 457.41 135.978C458.746 135.31 460.253 134.928 461.853 134.928C466.375 134.928 470.189 137.947 471.389 142.082H473.841C475.932 142.083 477.646 143.797 477.646 145.893Z" fill="#DBE6F7"/>
<path d="M328.064 104.851C328.064 105.897 327.638 106.851 326.943 107.54C326.257 108.235 325.304 108.661 324.258 108.661H242.814C240.722 108.661 239.009 106.947 239.009 104.851C239.009 103.805 239.435 102.852 240.13 102.162C240.815 101.467 241.769 101.041 242.815 101.041H246.665C248.185 97.5079 251.696 95.0379 255.783 95.0379C258.534 95.0379 261.021 96.1579 262.823 97.9639C265.222 93.8949 269.647 91.1619 274.714 91.1619C276.107 91.1619 277.447 91.3729 278.713 91.7549C281.363 86.7719 286.601 83.3789 292.639 83.3789C299.89 83.3789 305.989 88.2749 307.83 94.9359C309.166 94.2679 310.673 93.8859 312.273 93.8859C316.795 93.8859 320.609 96.9049 321.809 101.04H324.261C326.35 101.041 328.064 102.755 328.064 104.851Z" fill="#DBE6F7"/>
<path d="M67.3374 194.588C70.6404 205.691 81.7294 205.345 81.4934 214.359C81.2574 223.371 86.9214 230.214 94.7054 228.563C102.492 226.91 108.129 225.259 111.682 234.225C115.232 243.191 126.558 247.673 131.04 240.594C132.157 238.833 133.363 236.924 134.542 235.05C134.864 234.538 135.186 234.029 135.502 233.527C135.576 233.411 135.65 233.295 135.722 233.179C140.468 225.644 138.901 215.659 131.904 210.151C129.071 207.922 125.683 206.669 121.84 207.8C109.807 211.338 114.143 199.236 106.974 194.116C98.7174 188.216 91.6344 194.894 85.9774 189.868C78.1074 182.879 64.0354 183.485 67.3374 194.588Z" fill="#BBD4F2"/>
<path d="M81.6933 199.387L134.542 235.05C134.864 234.538 135.186 234.029 135.502 233.527L82.7013 197.896C82.2893 197.618 81.7294 197.726 81.4524 198.138C81.1734 198.549 81.2813 199.109 81.6933 199.387Z" fill="#A4C8F2"/>
<path d="M328.781 141.104C341.224 135.92 352.051 128.718 346.044 124.403C340.032 120.083 321.636 132.829 313.122 147.844L309.004 152.259C315.4 141.425 317.272 125.772 311.739 122.8C306.241 119.846 305.941 130.378 307.271 140.044C308.284 147.401 307.26 152.45 306.487 154.958L287.039 175.811C297.118 158.625 300.048 133.916 291.293 129.213C282.569 124.526 282.093 141.238 284.203 156.574C285.798 168.164 284.209 176.148 282.986 180.156L279.108 184.314C279.723 185.099 280.343 185.881 280.968 186.659L304.105 161.85C306.874 161.149 310.875 160.573 316.087 160.923C325.822 161.577 336.307 160.544 332.978 155.265C330.089 150.684 318.176 152.252 308.306 157.346L316.307 148.766C319.236 146.535 323.41 143.341 328.781 141.104Z" fill="#DBE6F7"/>
<path d="M81.3172 149.77C80.0162 160.507 89.6421 164.334 86.0881 171.966C82.5351 179.596 84.8402 187.563 92.1212 189.043C99.4042 190.523 104.846 191.205 104.554 200.204C104.26 209.203 112.292 217.253 118.763 212.857C120.375 211.764 122.117 210.577 123.824 209.412C124.29 209.093 124.755 208.777 125.212 208.464C125.319 208.392 125.425 208.32 125.53 208.248C132.396 203.56 134.767 194.426 130.823 187.107C129.226 184.145 126.79 181.811 123.079 181.351C111.458 179.907 119.672 171.154 115.437 164.104C110.56 155.982 102.011 159.066 99.0352 152.658C94.8942 143.747 82.6172 139.033 81.3172 149.77Z" fill="#DBE6F7"/>
<path d="M91.8263 159.219L123.824 209.413C124.29 209.094 124.755 208.778 125.212 208.465L93.2443 158.317C92.9953 157.926 92.4753 157.81 92.0843 158.06C91.6923 158.308 91.5773 158.828 91.8263 159.219Z" fill="#BBD4F2"/>
<path d="M339.229 366.294C335.846 377.667 324.487 377.313 324.729 386.547C324.971 395.778 319.169 402.788 311.195 401.096C303.219 399.403 297.444 397.711 293.805 406.895C290.168 416.079 278.568 420.67 273.976 413.419C272.831 411.615 271.597 409.659 270.388 407.741C270.058 407.217 269.729 406.695 269.405 406.181C269.329 406.062 269.253 405.943 269.18 405.825C264.319 398.107 265.924 387.878 273.091 382.237C275.993 379.954 279.463 378.67 283.399 379.829C295.725 383.454 291.283 371.056 298.626 365.812C307.083 359.769 314.338 366.609 320.134 361.46C328.197 354.3 342.612 354.92 339.229 366.294Z" fill="#BBD4F2"/>
<path d="M324.524 371.21L270.389 407.74C270.059 407.216 269.73 406.694 269.406 406.18L323.491 369.683C323.913 369.398 324.486 369.509 324.771 369.931C325.056 370.352 324.946 370.926 324.524 371.21Z" fill="#A4C8F2"/>
<path d="M319.594 324.3C320.926 335.298 311.068 339.218 314.708 347.036C318.348 354.852 315.986 363.012 308.528 364.528C301.068 366.044 295.492 366.743 295.791 375.961C296.092 385.179 287.864 393.424 281.236 388.922C279.585 387.803 277.801 386.587 276.053 385.393C275.576 385.067 275.099 384.742 274.631 384.422C274.522 384.348 274.412 384.275 274.304 384.201C267.271 379.399 264.842 370.043 268.882 362.546C270.518 359.512 273.013 357.121 276.814 356.65C288.717 355.171 280.303 346.206 284.642 338.984C289.638 330.664 298.394 333.823 301.443 327.26C305.687 318.131 318.262 313.302 319.594 324.3Z" fill="#DBE6F7"/>
<path d="M308.829 333.978L276.053 385.393C275.576 385.067 275.099 384.742 274.631 384.422L307.377 333.054C307.632 332.653 308.165 332.535 308.565 332.79C308.966 333.045 309.085 333.577 308.829 333.978Z" fill="#BBD4F2"/>
<path d="M469.994 293.757C473.008 293.757 475.46 296.209 475.46 299.223C475.46 302.237 473.008 304.689 469.994 304.689C466.98 304.689 464.528 302.237 464.528 299.223C464.528 296.209 466.98 293.757 469.994 293.757ZM469.994 295.471C467.926 295.471 466.243 297.154 466.243 299.222C466.243 301.29 467.926 302.973 469.994 302.973C472.063 302.973 473.745 301.29 473.745 299.222C473.746 297.154 472.063 295.471 469.994 295.471Z" fill="#4F60D9"/>
<path d="M464.434 265.975C467.448 265.975 469.9 268.427 469.9 271.441C469.9 274.455 467.448 276.907 464.434 276.907C461.42 276.907 458.968 274.455 458.968 271.441C458.967 268.428 461.42 265.975 464.434 265.975ZM464.434 267.69C462.365 267.69 460.683 269.373 460.683 271.441C460.683 273.509 462.366 275.192 464.434 275.192C466.503 275.192 468.185 273.509 468.185 271.441C468.185 269.373 466.502 267.69 464.434 267.69Z" fill="#707FFF"/>
<path d="M447.807 258.278C447.807 258.751 448.191 259.135 448.664 259.135H452.445C452.919 259.135 453.302 258.751 453.302 258.278C453.302 257.805 452.918 257.421 452.445 257.421H448.664C448.19 257.42 447.807 257.804 447.807 258.278Z" fill="#1D38C8"/>
<path d="M441.19 258.278C441.19 258.751 441.574 259.135 442.047 259.135H445.828C446.302 259.135 446.685 258.751 446.685 258.278C446.685 257.805 446.301 257.421 445.828 257.421H442.047C441.574 257.42 441.19 257.804 441.19 258.278Z" fill="#1D38C8"/>
<path d="M446.389 252.97V256.367C446.389 256.841 446.773 257.225 447.247 257.225C447.721 257.225 448.104 256.841 448.104 256.367V252.97C448.104 252.497 447.72 252.113 447.247 252.113C446.773 252.113 446.389 252.497 446.389 252.97Z" fill="#1D38C8"/>
<path d="M446.389 260.189V263.586C446.389 264.059 446.773 264.443 447.247 264.443C447.721 264.443 448.104 264.059 448.104 263.586V260.189C448.104 259.715 447.72 259.332 447.247 259.332C446.773 259.331 446.389 259.715 446.389 260.189Z" fill="#1D38C8"/>
<path d="M453.973 287.473C453.973 287.946 454.357 288.33 454.83 288.33H458.611C459.085 288.33 459.468 287.946 459.468 287.473C459.468 286.999 459.084 286.615 458.611 286.615H454.83C454.357 286.615 453.973 286.999 453.973 287.473Z" fill="#707FFF"/>
<path d="M447.356 287.473C447.356 287.946 447.74 288.33 448.214 288.33H451.995C452.469 288.33 452.853 287.946 452.853 287.473C452.853 286.999 452.469 286.615 451.995 286.615H448.214C447.74 286.615 447.356 286.999 447.356 287.473Z" fill="#707FFF"/>
<path d="M452.555 282.165V285.562C452.555 286.035 452.939 286.419 453.412 286.419C453.886 286.419 454.269 286.035 454.269 285.562V282.165C454.269 281.692 453.885 281.308 453.412 281.308C452.939 281.308 452.555 281.692 452.555 282.165Z" fill="#707FFF"/>
<path d="M452.555 289.383V292.78C452.555 293.253 452.939 293.637 453.412 293.637C453.886 293.637 454.269 293.253 454.269 292.78V289.383C454.269 288.91 453.885 288.526 453.412 288.526C452.939 288.526 452.555 288.91 452.555 289.383Z" fill="#707FFF"/>
<path d="M55.618 161.495C55.618 164.509 53.166 166.961 50.152 166.961C47.138 166.961 44.686 164.509 44.686 161.495C44.686 158.481 47.138 156.029 50.152 156.029C53.166 156.029 55.618 158.481 55.618 161.495ZM46.401 161.495C46.401 163.563 48.084 165.246 50.152 165.246C52.221 165.246 53.903 163.563 53.903 161.495C53.903 159.427 52.22 157.744 50.152 157.744C48.084 157.744 46.401 159.426 46.401 161.495Z" fill="#4F60D9"/>
<path d="M61.1791 133.714C61.1791 136.728 58.7271 139.18 55.7131 139.18C52.6991 139.18 50.2471 136.728 50.2471 133.714C50.2471 130.7 52.6991 128.248 55.7131 128.248C58.7271 128.248 61.1791 130.7 61.1791 133.714ZM51.9621 133.714C51.9621 135.782 53.6451 137.465 55.7131 137.465C57.7821 137.465 59.4641 135.782 59.4641 133.714C59.4641 131.646 57.7811 129.963 55.7131 129.963C53.6451 129.962 51.9621 131.645 51.9621 133.714Z" fill="#1D38C8"/>
<path d="M72.3402 120.55C72.3402 121.023 71.9562 121.407 71.4832 121.407H67.7022C67.2292 121.407 66.8452 121.023 66.8452 120.55C66.8452 120.076 67.2292 119.693 67.7022 119.693H71.4832C71.9562 119.693 72.3402 120.077 72.3402 120.55Z" fill="#4F60D9"/>
<path d="M78.9574 120.55C78.9574 121.023 78.5734 121.407 78.1004 121.407H74.3194C73.8454 121.407 73.4624 121.023 73.4624 120.55C73.4624 120.076 73.8464 119.693 74.3194 119.693H78.1004C78.5734 119.693 78.9574 120.077 78.9574 120.55Z" fill="#4F60D9"/>
<path d="M73.7584 115.243V118.64C73.7584 119.114 73.3744 119.498 72.9014 119.498C72.4274 119.498 72.0444 119.114 72.0444 118.64V115.243C72.0444 114.77 72.4284 114.386 72.9014 114.386C73.3744 114.385 73.7584 114.769 73.7584 115.243Z" fill="#4F60D9"/>
<path d="M73.7584 122.461V125.858C73.7584 126.331 73.3744 126.715 72.9014 126.715C72.4274 126.715 72.0444 126.331 72.0444 125.858V122.461C72.0444 121.987 72.4284 121.604 72.9014 121.604C73.3744 121.604 73.7584 121.987 73.7584 122.461Z" fill="#4F60D9"/>
<path d="M66.1742 149.745C66.1742 150.218 65.7902 150.602 65.3172 150.602H61.5362C61.0622 150.602 60.6792 150.218 60.6792 149.745C60.6792 149.271 61.0632 148.888 61.5362 148.888H65.3172C65.7902 148.887 66.1742 149.271 66.1742 149.745Z" fill="#707FFF"/>
<path d="M72.7914 149.745C72.7914 150.218 72.4074 150.602 71.9334 150.602H68.1524C67.6784 150.602 67.2944 150.218 67.2944 149.745C67.2944 149.271 67.6784 148.888 68.1524 148.888H71.9334C72.4074 148.887 72.7914 149.271 72.7914 149.745Z" fill="#707FFF"/>
<path d="M67.5924 144.437V147.834C67.5924 148.307 67.2084 148.691 66.7354 148.691C66.2614 148.691 65.8784 148.307 65.8784 147.834V144.437C65.8784 143.964 66.2624 143.58 66.7354 143.58C67.2084 143.58 67.5924 143.964 67.5924 144.437Z" fill="#707FFF"/>
<path d="M67.5924 151.656V155.053C67.5924 155.526 67.2084 155.91 66.7354 155.91C66.2614 155.91 65.8784 155.526 65.8784 155.053V151.656C65.8784 151.183 66.2624 150.799 66.7354 150.799C67.2084 150.798 67.5924 151.182 67.5924 151.656Z" fill="#707FFF"/>
<path d="M390.185 163.233V177.03C390.185 178.854 391.665 180.333 393.488 180.333H418.54L426.103 183.047C426.88 183.326 427.623 182.562 427.325 181.794L424.464 174.406V163.233C424.464 161.409 422.984 159.93 421.159 159.93H393.488C391.664 159.93 390.185 161.409 390.185 163.233Z" fill="#4F60D9"/>
<g opacity="0.5">
<path d="M411.948 170.524C411.948 171.844 413.018 172.914 414.338 172.914C415.658 172.914 416.728 171.844 416.728 170.524C416.728 169.204 415.658 168.134 414.338 168.134C413.018 168.135 411.948 169.204 411.948 170.524Z" fill="#707FFF"/>
<path d="M404.383 170.524C404.383 171.844 405.453 172.914 406.773 172.914C408.093 172.914 409.163 171.844 409.163 170.524C409.163 169.204 408.093 168.134 406.773 168.134C405.453 168.135 404.383 169.204 404.383 170.524Z" fill="#707FFF"/>
<path d="M396.819 170.524C396.819 171.844 397.889 172.914 399.209 172.914C400.529 172.914 401.599 171.844 401.599 170.524C401.599 169.204 400.529 168.134 399.209 168.134C397.889 168.134 396.819 169.204 396.819 170.524Z" fill="#707FFF"/>
</g>
<path d="M120.373 160.887V418.802C120.373 426.887 126.925 433.439 135.01 433.439H263.446C267.508 433.439 271.18 431.786 273.834 429.117C276.46 426.469 278.083 422.826 278.083 418.802V160.887C278.083 152.802 271.531 146.25 263.446 146.25H135.01C132.62 146.25 130.364 146.822 128.371 147.839C123.622 150.258 120.373 155.192 120.373 160.887Z" fill="#3B3E7D"/>
<path d="M125.826 160.887V418.802C125.826 426.887 132.378 433.439 140.463 433.439H268.899C272.961 433.439 276.633 431.786 279.286 429.117C281.912 426.469 283.536 422.826 283.536 418.802V160.887C283.536 152.802 276.984 146.25 268.899 146.25H140.463C138.073 146.25 135.817 146.822 133.824 147.839C129.075 150.258 125.826 155.192 125.826 160.887Z" fill="#18285D"/>
<path d="M123.051 209.683H121.389C119.299 209.683 117.605 207.989 117.605 205.899V190.174C117.605 188.084 119.299 186.39 121.389 186.39H123.051V209.683Z" fill="#18285D"/>
<path d="M123.051 240.146H121.389C119.299 240.146 117.605 238.452 117.605 236.362V220.637C117.605 218.547 119.299 216.853 121.389 216.853H123.051V240.146Z" fill="#18285D"/>
<path d="M283.536 209.683H284.838C286.476 209.683 287.803 208.355 287.803 206.718V189.355C287.803 187.718 286.476 186.39 284.838 186.39H283.536V209.683Z" fill="#18285D"/>
<path d="M276.232 160V419.685C276.232 420.58 276.05 421.432 275.72 422.207C274.735 424.52 272.45 426.132 269.785 426.132H139.577C136.02 426.132 133.13 423.252 133.13 419.684V160C133.13 159.64 133.157 159.285 133.217 158.94C133.58 156.747 135.057 154.925 137.044 154.065C137.459 153.89 137.891 153.755 138.342 153.67C138.74 153.59 139.155 153.55 139.577 153.55H269.785C273.345 153.55 276.232 156.44 276.232 160Z" fill="white"/>
<path d="M276.232 160V173.315H133.13V160C133.13 159.64 133.157 159.285 133.217 158.94C133.58 156.747 135.057 154.925 137.044 154.065C137.459 153.89 137.891 153.755 138.342 153.67C138.74 153.59 139.155 153.55 139.577 153.55H269.785C273.345 153.55 276.232 156.44 276.232 160Z" fill="#DBE6F7"/>
<path d="M253.639 153.544L246.999 163.647C245.147 166.465 242.001 168.163 238.628 168.163H174.457C171.084 168.163 167.938 166.466 166.086 163.647L159.446 153.544C159.446 152.497 160.302 151.639 161.352 151.639H251.734C252.781 151.639 253.639 152.498 253.639 153.544Z" fill="#18285D"/>
<path opacity="0.3" d="M229.309 160.848H173.598C172.681 160.848 171.93 160.097 171.93 159.18V158.453C171.93 157.536 172.681 156.785 173.598 156.785H229.309C230.226 156.785 230.977 157.536 230.977 158.453V159.18C230.978 160.098 230.227 160.848 229.309 160.848Z" fill="#DBE6F7"/>
<path opacity="0.3" d="M241.756 158.682C241.756 160.028 240.665 161.12 239.318 161.12C237.971 161.12 236.88 160.029 236.88 158.682C236.88 157.336 237.971 156.244 239.318 156.244C240.665 156.244 241.756 157.335 241.756 158.682Z" fill="#DBE6F7"/>
<path d="M145.362 333.261C145.362 334.451 146.326 335.415 147.516 335.415H198.997C200.186 335.415 201.151 334.451 201.151 333.261C201.151 332.072 200.187 331.107 198.997 331.107H147.516C146.326 331.108 145.362 332.072 145.362 333.261Z" fill="#DBE6F7"/>
<path d="M210.66 333.261C210.66 334.451 211.624 335.415 212.814 335.415H264.296C265.485 335.415 266.45 334.451 266.45 333.261C266.45 332.072 265.486 331.107 264.296 331.107H212.814C211.624 331.108 210.66 332.072 210.66 333.261Z" fill="#DBE6F7"/>
<path d="M145.362 345.269C145.362 346.459 146.326 347.423 147.516 347.423H198.997C200.186 347.423 201.151 346.459 201.151 345.269C201.151 344.08 200.187 343.115 198.997 343.115H147.516C146.326 343.116 145.362 344.08 145.362 345.269Z" fill="#DBE6F7"/>
<path d="M210.66 345.269C210.66 346.459 211.624 347.423 212.814 347.423H264.296C265.485 347.423 266.45 346.459 266.45 345.269C266.45 344.08 265.486 343.115 264.296 343.115H212.814C211.624 343.116 210.66 344.08 210.66 345.269Z" fill="#DBE6F7"/>
<path d="M145.362 357.278C145.362 358.467 146.326 359.432 147.516 359.432H198.997C200.186 359.432 201.151 358.468 201.151 357.278C201.151 356.089 200.187 355.124 198.997 355.124H147.516C146.326 355.125 145.362 356.089 145.362 357.278Z" fill="#DBE6F7"/>
<path d="M210.66 357.278C210.66 358.467 211.624 359.432 212.814 359.432H264.296C265.485 359.432 266.45 358.468 266.45 357.278C266.45 356.089 265.486 355.124 264.296 355.124H212.814C211.624 355.125 210.66 356.089 210.66 357.278Z" fill="#DBE6F7"/>
<path d="M145.362 369.285C145.362 370.474 146.326 371.439 147.516 371.439H198.997C200.186 371.439 201.151 370.475 201.151 369.285C201.151 368.096 200.187 367.131 198.997 367.131H147.516C146.326 367.131 145.362 368.096 145.362 369.285Z" fill="#DBE6F7"/>
<path d="M210.66 369.285C210.66 370.474 211.624 371.439 212.814 371.439H264.296C265.485 371.439 266.45 370.475 266.45 369.285C266.45 368.096 265.486 367.131 264.296 367.131H212.814C211.624 367.131 210.66 368.096 210.66 369.285Z" fill="#DBE6F7"/>
<path d="M178.299 397.285H149.04C147.019 397.285 145.382 395.647 145.382 393.627V390.05C145.382 388.029 147.02 386.391 149.04 386.391H178.298C180.319 386.391 181.957 388.029 181.957 390.05V393.627C181.957 395.647 180.319 397.285 178.299 397.285Z" fill="#DBE6F7"/>
<path d="M220.871 397.285H191.613C189.592 397.285 187.954 395.647 187.954 393.627V390.05C187.954 388.029 189.592 386.391 191.613 386.391H220.871C222.892 386.391 224.529 388.029 224.529 390.05V393.627C224.53 395.647 222.892 397.285 220.871 397.285Z" fill="#DBE6F7"/>
<path d="M262.79 397.285H233.531C231.511 397.285 229.873 395.647 229.873 393.627V390.05C229.873 388.029 231.511 386.391 233.531 386.391H262.79C264.81 386.391 266.448 388.029 266.448 390.05V393.627C266.448 395.647 264.81 397.285 262.79 397.285Z" fill="#DBE6F7"/>
<path d="M276.232 212.031V310.092H153.062V212.031H158.726L158.674 211.976L158.736 212.031H276.232Z" fill="#DBE6F7"/>
<path d="M301.89 204.454H159.929V302.516H301.89V204.454Z" fill="#1D38C8"/>
<path d="M307.574 204.454H165.613V302.516H307.574V204.454Z" fill="#4F60D9"/>
<path d="M165.541 204.397L231.274 272.82C234.157 275.821 238.958 275.821 241.841 272.82L307.574 204.397L241.429 263.268C238.652 265.739 234.464 265.739 231.687 263.268L165.541 204.397Z" fill="#1D38C8"/>
<path d="M222.917 255.203L169.725 302.516H165.613V300.016L219.859 251.767L222.917 255.203Z" fill="#1D38C8"/>
<path d="M307.574 300.348V302.516H303.09L249.897 255.203L252.955 251.767L307.574 300.348Z" fill="#1D38C8"/>
<path d="M165.609 204.453L231.911 263.42C234.579 265.793 238.601 265.793 241.269 263.42L307.571 204.453H165.609Z" fill="#707FFF"/>
<g opacity="0.5">
<path d="M234.874 213.633H185.737C184.102 213.633 182.777 212.308 182.777 210.673C182.777 209.038 184.102 207.713 185.737 207.713H234.874C236.509 207.713 237.834 209.038 237.834 210.673C237.834 212.308 236.509 213.633 234.874 213.633Z" fill="#707FFF"/>
</g>
<g opacity="0.5">
<path d="M249.911 213.633H244.938C243.303 213.633 241.978 212.308 241.978 210.673C241.978 209.038 243.303 207.713 244.938 207.713H249.911C251.546 207.713 252.871 209.038 252.871 210.673C252.871 212.308 251.546 213.633 249.911 213.633Z" fill="#707FFF"/>
</g>
<path d="M285.3 212.712H270.322C266.352 212.712 263.134 209.494 263.134 205.524V190.546C263.134 186.577 266.352 183.359 270.321 183.359H285.3C289.27 183.359 292.487 186.577 292.487 190.546V205.524C292.487 209.495 289.269 212.712 285.3 212.712Z" fill="#1D38C8"/>
<path d="M287.895 212.712H272.917C268.947 212.712 265.729 209.494 265.729 205.524V190.546C265.729 186.577 268.947 183.359 272.916 183.359H287.894C291.864 183.359 295.082 186.577 295.082 190.546V205.524C295.082 209.495 291.864 212.712 287.895 212.712Z" fill="#4F60D9"/>
<path d="M281.133 188.823L280.964 201.279H279L278.831 188.823H281.133ZM279.982 206.288C279.565 206.288 279.206 206.139 278.907 205.84C278.608 205.541 278.459 205.183 278.459 204.765C278.459 204.348 278.608 203.989 278.907 203.69C279.206 203.392 279.565 203.242 279.982 203.242C280.399 203.242 280.758 203.392 281.057 203.69C281.356 203.989 281.505 204.348 281.505 204.765C281.505 205.042 281.435 205.295 281.294 205.527C281.158 205.758 280.975 205.944 280.744 206.085C280.518 206.221 280.264 206.288 279.982 206.288Z" fill="white"/>
<path d="M335.272 416.816L334.712 426.907L342.899 427.086L343.9 416.485L335.272 416.816Z" fill="#FDA893"/>
<path d="M337.96 425.489C337.96 425.489 342.175 424.534 343.328 424.6C344.481 424.667 351.882 433.602 354.465 434.21C359.149 435.312 358.876 442.681 355.99 442.938C347.643 443.681 333.567 439.633 333.567 439.633C333.567 439.633 332.616 430.128 333.298 427.182C333.978 424.238 335.606 426.274 337.96 425.489Z" fill="#707FFF"/>
<path d="M344.532 433.823C344.382 433.85 344.223 433.818 344.09 433.722C343.833 433.535 343.777 433.175 343.964 432.918C344.026 432.832 345.517 430.805 347.291 430.147C349.651 429.269 351.252 430.727 351.319 430.789C351.552 431.005 351.564 431.37 351.347 431.603C351.131 431.835 350.766 431.848 350.533 431.631C350.49 431.592 349.372 430.604 347.691 431.226C346.246 431.762 344.908 433.577 344.895 433.596C344.804 433.72 344.672 433.797 344.532 433.823Z" fill="#FEFDFF"/>
<path d="M343.007 432.021C342.858 432.048 342.698 432.016 342.565 431.92C342.308 431.733 342.251 431.373 342.439 431.116C342.501 431.03 343.992 429.003 345.766 428.345C348.128 427.467 349.728 428.924 349.795 428.988C350.028 429.204 350.039 429.569 349.822 429.801C349.606 430.034 349.241 430.047 349.008 429.829C348.964 429.79 347.846 428.802 346.166 429.424C344.714 429.963 343.383 431.775 343.37 431.794C343.279 431.918 343.147 431.995 343.007 432.021Z" fill="#FEFDFF"/>
<path d="M346.697 435.389C346.548 435.416 346.388 435.385 346.255 435.288C345.998 435.101 345.941 434.741 346.129 434.483C346.191 434.397 347.682 432.37 349.456 431.712C351.818 430.833 353.417 432.292 353.484 432.354C353.717 432.571 353.729 432.935 353.512 433.168C353.296 433.401 352.931 433.414 352.698 433.196C352.654 433.157 351.536 432.169 349.856 432.791C348.404 433.33 347.073 435.142 347.06 435.16C346.969 435.286 346.838 435.364 346.697 435.389Z" fill="#FEFDFF"/>
<path d="M365.379 293.849C365.379 293.849 365.209 296.219 364.899 300.149C364.819 301.189 364.729 302.339 364.629 303.589C363.569 316.779 361.519 340.629 359.279 357.549C356.139 381.269 346.249 420.249 346.249 420.249L336.039 419.899L335.029 419.859L332.609 419.779C332.609 419.779 334.309 395.119 336.479 373.709C337.909 359.589 338.759 326.179 339.169 305.079C339.379 294.199 339.479 286.589 339.479 286.589L365.379 293.849Z" fill="#3B3E7D"/>
<path d="M365.379 293.849C365.379 293.849 365.209 296.219 364.899 300.149C364.819 301.189 364.729 302.339 364.629 303.589C359.919 304.469 346.969 305.079 339.169 305.079C339.379 294.199 339.479 286.589 339.479 286.589L365.379 293.849Z" fill="#18285D"/>
<path d="M344.98 299.977C344.97 300.787 344.03 377.657 336.04 419.897L335.03 419.857C343.03 377.747 343.97 300.767 343.98 299.967L344.98 299.977Z" fill="#18285D"/>
<path d="M399.303 418.754L398.968 427.857L390.646 427.417L390.458 417.75L399.303 418.754Z" fill="#FDA893"/>
<path d="M396.846 427.439C396.846 427.439 398.659 425.077 400.07 425.2C401.48 425.323 412.246 434.145 415.967 434.915C419.689 435.685 418.923 438.423 418.218 439.817C417.513 441.211 388.455 438.848 388.455 438.848C388.455 438.848 387.784 430.178 388.774 427.544C389.764 424.909 393.918 428.023 396.846 427.439Z" fill="#707FFF"/>
<path d="M402.778 433.572C402.645 433.609 402.498 433.595 402.37 433.519C402.121 433.372 402.039 433.052 402.185 432.803C402.234 432.72 403.403 430.757 404.949 430.007C407.005 429.006 408.579 430.184 408.645 430.234C408.874 430.409 408.918 430.738 408.742 430.967C408.567 431.196 408.239 431.24 408.009 431.064C407.966 431.032 406.87 430.238 405.405 430.948C404.146 431.559 403.096 433.317 403.086 433.335C403.015 433.455 402.903 433.536 402.778 433.572Z" fill="#FEFDFF"/>
<path d="M401.241 432.077C401.109 432.114 400.961 432.1 400.833 432.025C400.584 431.878 400.501 431.558 400.648 431.309C400.697 431.226 401.866 429.263 403.411 428.513C405.469 427.512 407.042 428.689 407.108 428.74C407.337 428.915 407.381 429.244 407.205 429.473C407.03 429.702 406.701 429.746 406.472 429.57C406.429 429.538 405.332 428.743 403.868 429.454C402.603 430.068 401.559 431.823 401.549 431.841C401.478 431.96 401.366 432.041 401.241 432.077Z" fill="#FEFDFF"/>
<path d="M404.872 434.799C404.739 434.837 404.592 434.822 404.464 434.747C404.215 434.6 404.132 434.28 404.279 434.031C404.328 433.948 405.497 431.985 407.043 431.235C409.101 430.234 410.674 431.411 410.74 431.462C410.969 431.637 411.012 431.966 410.837 432.195C410.662 432.424 410.333 432.468 410.104 432.292C410.061 432.26 408.963 431.466 407.5 432.176C406.235 432.79 405.191 434.545 405.181 434.563C405.109 434.682 404.997 434.764 404.872 434.799Z" fill="#FEFDFF"/>
<path d="M400.819 421.129L392.36 420.5L391.352 420.43L389.297 420.276C389.297 420.276 384.101 370.82 382.485 357.646C381.08 346.201 374.52 320.487 370.26 304.487C369.053 299.945 368.03 296.186 367.356 293.757C366.842 291.847 366.538 290.761 366.538 290.761L394.817 288.023C394.817 288.023 394.896 288.644 395.026 289.762C395.301 292.05 395.83 296.434 396.469 301.944C398.235 316.942 400.921 340.282 401.962 352.163C404.631 382.758 400.819 421.129 400.819 421.129Z" fill="#3B3E7D"/>
<path d="M396.47 301.946L370.261 304.488C369.054 299.946 368.031 296.187 367.357 293.758L395.027 289.764C395.302 292.052 395.831 296.436 396.47 301.946Z" fill="#18285D"/>
<path d="M392.359 420.499L391.351 420.429C390.86 405.136 389.359 366.94 386.295 350.748C382.444 330.337 373.589 300.616 373.498 300.316L374.461 300.03C374.552 300.331 383.422 330.103 387.278 350.565C390.362 366.859 391.876 405.237 392.359 420.499Z" fill="#18285D"/>
<path d="M396.221 218.307C396.662 222.162 397.128 225.86 397.538 228.959C398.199 233.957 398.71 237.391 398.71 237.391L402.762 250.446C404.149 254.912 409.2 257.072 413.389 254.994C413.46 254.961 413.534 254.923 413.607 254.887C420.839 251.179 416.328 236.906 416.328 236.906L414.936 236.842C414.322 235.283 412.666 231.308 410.561 226.316C410.306 225.703 410.04 225.072 409.772 224.433C409.324 223.372 408.861 222.275 408.389 221.154C407.718 219.565 407.025 217.927 406.325 216.277C401.169 204.088 395.677 191.188 395.677 191.188C393.715 192.196 394.825 206.036 396.221 218.307Z" fill="#FDA893"/>
<path d="M396.221 218.307C396.662 222.162 397.128 225.86 397.538 228.959C402.903 227.153 406.419 223.675 408.389 221.154C407.718 219.565 407.025 217.927 406.325 216.277L396.221 218.307Z" fill="#FD857D"/>
<path d="M407.523 241.806C407.554 241.809 407.581 241.809 407.612 241.808C407.894 241.801 408.136 241.59 408.172 241.303C409.026 234.441 409.944 229.363 410.563 226.316C410.308 225.704 410.04 225.073 409.773 224.434C409.188 227.121 408.057 232.842 407.02 241.159C406.981 241.475 407.205 241.764 407.523 241.806Z" fill="#FD857D"/>
<path d="M412.196 215.746C412.196 215.746 411.032 217.201 408.975 218.817C406.487 220.784 401.879 223.241 397.269 223.398C396.295 207.019 395.353 191.337 394.057 187.301C396.248 189.87 407.355 204.127 412.196 215.746Z" fill="#707FFF"/>
<path d="M408.585 242.106C408.585 242.106 409.068 225.666 412.457 222.064C415.845 218.462 418.999 217.028 422.286 217.041C425.573 217.054 428.674 217.362 428.516 218.719C428.516 218.719 436.021 217.336 439.452 219.183C442.883 221.029 429.596 223.169 425.639 223.4C421.681 223.63 419.661 225.911 419.576 228.277C419.492 230.643 417.709 246.352 417.709 246.352L408.585 242.106Z" fill="#FDA893"/>
<path d="M400 294.064C377.9 300.264 355.65 300.814 333.22 295.764C332.99 289.404 332.54 268.034 332.43 245.984C332.43 244.824 332.42 243.654 332.42 242.484V240.804C332.41 240.224 332.41 239.634 332.41 239.054C332.41 238.464 332.41 237.884 332.4 237.304C332.41 236.724 332.4 236.144 332.41 235.554C332.4 234.994 332.41 234.434 332.4 233.874C332.4 233.294 332.4 232.704 332.41 232.134C332.41 231.554 332.42 230.964 332.42 230.384C332.42 229.794 332.42 229.214 332.43 228.634C332.43 228.074 332.43 227.514 332.44 226.954C332.44 225.844 332.45 224.724 332.46 223.634V223.464C332.47 222.714 332.47 221.964 332.49 221.224C332.68 204.024 333.27 190.204 334.59 188.284C337.78 183.654 352.72 176.534 357.28 173.164L357.29 173.894C357.29 173.894 360.29 177.654 363.55 177.284C366.51 176.964 368.7 173.464 369.06 172.834C371.41 174.404 376.8 176.894 382.04 179.564C387.27 182.234 392.34 185.064 394.06 187.304C395.52 189.224 396.73 203.854 397.67 221.804V221.854C397.69 222.194 397.7 222.524 397.72 222.864V222.914C397.73 223.164 397.75 223.424 397.76 223.694C397.79 224.224 397.82 224.754 397.84 225.294C397.87 225.844 397.9 226.404 397.92 226.964C397.95 227.544 397.97 228.124 398.01 228.714C398.03 229.294 398.05 229.874 398.09 230.464C398.11 231.034 398.14 231.614 398.16 232.204C398.19 232.754 398.21 233.314 398.23 233.874C398.26 234.464 398.28 235.044 398.31 235.634C398.33 236.204 398.36 236.784 398.38 237.374C398.4 237.954 398.43 238.544 398.45 239.124C398.48 239.674 398.5 240.234 398.52 240.794C398.56 241.964 398.61 243.124 398.65 244.294C399.47 266.264 399.92 287.644 400 294.064Z" fill="#707FFF"/>
<path d="M353.976 189.975C353.753 189.93 353.579 189.74 353.564 189.502C353.546 189.218 353.762 188.972 354.046 188.954C367.101 188.114 371.582 178.261 371.626 178.162C371.741 177.901 372.046 177.782 372.306 177.897C372.567 178.011 372.686 178.315 372.572 178.576C372.525 178.684 371.379 181.26 368.525 183.967C365.898 186.458 361.265 189.524 354.113 189.984C354.065 189.987 354.019 189.984 353.976 189.975Z" fill="#4F60D9"/>
<path d="M398.089 230.461L332.407 232.134C332.411 231.549 332.415 230.965 332.42 230.38C332.424 229.795 332.419 229.211 332.433 228.636L397.924 226.968C397.948 227.542 397.973 228.126 398.007 228.71C398.03 229.294 398.055 229.877 398.089 230.461Z" fill="#4F60D9"/>
<path d="M398.38 237.372L332.411 239.052C332.406 238.468 332.41 237.883 332.405 237.308C332.409 236.723 332.404 236.139 332.408 235.554L398.234 233.877C398.259 234.461 398.283 235.045 398.307 235.629C398.331 236.204 398.355 236.788 398.38 237.372Z" fill="#4F60D9"/>
<path d="M398.652 244.293L332.434 245.98C332.433 244.821 332.423 243.652 332.422 242.483L398.516 240.799C398.564 241.967 398.613 243.125 398.652 244.293Z" fill="#4F60D9"/>
<path d="M390.721 212.667C392.7 215.205 395.644 220.994 396.967 223.67C397.148 224.037 397.297 224.346 397.411 224.58C397.561 224.887 397.644 225.065 397.651 225.078C397.694 225.169 397.759 225.242 397.839 225.292C397.814 224.756 397.787 224.223 397.76 223.692C397.749 223.429 397.733 223.166 397.72 222.907L397.719 222.864C397.448 222.319 397.128 221.678 396.77 220.975C395.269 218.037 393.132 214.079 391.536 212.032C391.361 211.807 391.036 211.768 390.811 211.943C390.585 212.118 390.548 212.444 390.721 212.667Z" fill="#4F60D9"/>
<path d="M379.52 277.248C379.79 277.241 380.01 277.026 380.021 276.753C380.032 276.468 379.811 276.228 379.526 276.216C364.974 275.634 356.122 268.492 351.257 262.605C345.968 256.203 344.104 249.849 344.086 249.786C344.007 249.512 343.722 249.353 343.448 249.432C343.174 249.51 343.015 249.796 343.094 250.07C343.17 250.336 345.021 256.664 350.434 263.229C355.434 269.294 364.532 276.649 379.485 277.248C379.496 277.249 379.509 277.249 379.52 277.248Z" fill="#4F60D9"/>
<path d="M371.484 268.222C371.712 268.216 371.916 268.059 371.972 267.827C372.039 267.55 371.869 267.271 371.592 267.203C358.881 264.112 356.176 253.631 356.15 253.525C356.082 253.248 355.802 253.078 355.526 253.146C355.249 253.213 355.079 253.492 355.147 253.769C355.175 253.884 355.856 256.619 358.198 259.781C360.353 262.69 364.384 266.513 371.348 268.207C371.394 268.218 371.439 268.223 371.484 268.222Z" fill="#4F60D9"/>
<path d="M339.21 210.864C337.29 213.454 334.5 219.314 333.24 222.024C333.07 222.394 332.93 222.714 332.82 222.944C332.68 223.254 332.6 223.434 332.6 223.454C332.57 223.524 332.52 223.584 332.46 223.634V223.464C332.47 222.714 332.47 221.964 332.49 221.224C332.73 220.674 333.04 220.024 333.37 219.324C334.8 216.354 336.84 212.344 338.38 210.254C338.55 210.024 338.87 209.974 339.1 210.144C339.33 210.314 339.38 210.644 339.21 210.864Z" fill="#4F60D9"/>
<path d="M402.801 220.602L447.58 219.461C448.857 219.428 449.866 218.367 449.834 217.089L449.8 215.767C449.767 214.49 448.706 213.481 447.428 213.513L402.649 214.654C401.372 214.687 400.363 215.748 400.395 217.026L400.429 218.348C400.462 219.626 401.524 220.635 402.801 220.602Z" fill="#18285D"/>
<path d="M449.882 219.403L458.283 184.389C458.755 182.422 457.234 180.543 455.212 180.595L434.778 181.115C433.399 181.15 432.212 182.098 431.873 183.435L422.575 220.098L449.882 219.403Z" fill="#3B3E7D"/>
<path d="M431.872 183.435L422.651 219.796L420.316 219.855L429.537 183.494C429.879 182.157 431.063 181.208 432.443 181.172L434.778 181.112C433.399 181.149 432.214 182.098 431.872 183.435Z" fill="#18285D"/>
<g opacity="0.5">
<path d="M437.6 201.937C437.128 204.245 438.604 206.068 440.898 206.009C443.192 205.951 445.434 204.033 445.907 201.725C446.379 199.418 444.903 197.595 442.609 197.653C440.315 197.712 438.073 199.63 437.6 201.937Z" fill="#3B3E7D"/>
</g>
<path d="M348.23 149.347C348.23 149.347 346.872 150.045 346.483 147.38C346.094 144.715 347.173 144.238 346.371 142.975C345.569 141.712 345.013 140.057 346.267 138.87C347.521 137.682 344.866 134.765 346.316 133.252C347.767 131.739 350.166 131.365 351.085 129.672C352.005 127.98 353.445 124.749 357.997 124.698C362.548 124.646 364.099 128.274 366.48 127.25C368.861 126.227 370.616 125.668 373.457 127.586C376.298 129.504 373.412 132.273 376.045 133.554C378.677 134.835 376.709 138.801 379.731 141.035C382.009 142.719 379.855 149.569 375.306 148.658C370.757 147.746 348.23 149.347 348.23 149.347Z" fill="#18285D"/>
<path d="M349.384 150.409C349.384 150.409 346.797 147.137 345.007 149.943C343.217 152.749 346.055 160.829 350.559 158.724L349.384 150.409Z" fill="#FD857D"/>
<path d="M349.5 156.232C349.332 156.236 349.175 156.129 349.122 155.96C348.352 153.463 345.72 152.509 345.694 152.5C345.494 152.429 345.388 152.21 345.459 152.009C345.529 151.808 345.749 151.703 345.949 151.773C346.072 151.816 348.972 152.857 349.859 155.733C349.922 155.936 349.808 156.152 349.604 156.214C349.57 156.226 349.535 156.231 349.5 156.232Z" fill="#F05B56"/>
<path d="M346.838 155.031C346.766 155.033 346.694 155.015 346.628 154.975C346.446 154.864 346.389 154.628 346.499 154.446C346.517 154.416 346.96 153.701 347.914 153.245C348.105 153.153 348.336 153.234 348.427 153.426C348.519 153.618 348.438 153.847 348.246 153.939C347.509 154.292 347.16 154.841 347.157 154.846C347.086 154.963 346.964 155.028 346.838 155.031Z" fill="#F05B56"/>
<path d="M375.168 149.752C375.168 149.752 377.585 146.352 379.516 149.063C381.447 151.774 379.024 159.988 374.419 158.116L375.168 149.752Z" fill="#FD857D"/>
<path d="M375.348 155.573C375.516 155.569 375.668 155.454 375.711 155.283C376.353 152.75 378.933 151.664 378.959 151.653C379.156 151.572 379.25 151.347 379.169 151.151C379.089 150.954 378.864 150.86 378.668 150.94C378.547 150.989 375.704 152.177 374.965 155.094C374.913 155.3 375.038 155.509 375.244 155.562C375.279 155.57 375.314 155.574 375.348 155.573Z" fill="#F05B56"/>
<path d="M377.946 154.239C378.018 154.237 378.089 154.216 378.152 154.172C378.328 154.052 378.373 153.813 378.254 153.637C378.234 153.608 377.755 152.916 376.78 152.509C376.585 152.427 376.358 152.52 376.277 152.716C376.195 152.912 376.288 153.138 376.484 153.219C377.238 153.534 377.615 154.064 377.618 154.069C377.694 154.183 377.82 154.242 377.946 154.239Z" fill="#F05B56"/>
<path d="M368.823 165.173L369.029 173.275C369.029 173.275 366.718 177.463 363.457 177.827C360.2 178.195 357.201 174.431 357.201 174.431L356.987 166.044L368.823 165.173Z" fill="#FDA893"/>
<path d="M368.823 165.173L368.915 168.768C366.784 171.257 362.906 171.964 357.122 171.26L356.989 166.045L368.823 165.173Z" fill="#FD857D"/>
<path d="M376.835 144.149C376.765 147.301 376.565 151.246 376.045 154.41C375.915 155.199 375.764 155.942 375.593 156.609C374.04 162.622 370.036 172.969 357.988 169.009C352.667 167.261 350.073 161.45 348.832 155.504C347.99 151.466 347.774 147.37 347.753 144.439C347.735 141.447 349.297 138.673 351.861 137.132C358.807 132.957 366.281 134.257 371.225 136.015C374.656 137.233 376.916 140.515 376.835 144.149Z" fill="#FDA893"/>
<path d="M357.553 151.259C357.575 152.124 357.147 152.836 356.597 152.85C356.047 152.864 355.584 152.174 355.562 151.309C355.54 150.444 355.968 149.732 356.518 149.718C357.067 149.704 357.531 150.394 357.553 151.259Z" fill="#18285D"/>
<path d="M369.513 150.954C369.535 151.819 369.107 152.531 368.557 152.545C368.007 152.559 367.544 151.869 367.522 151.004C367.5 150.139 367.928 149.427 368.478 149.413C369.027 149.399 369.491 150.089 369.513 150.954Z" fill="#18285D"/>
<path d="M371.875 145.734C371.875 145.734 367.72 144.213 364.587 145.662L364.949 147.416C364.949 147.416 369.588 146.904 371.955 147.794C372.147 147.11 372.16 146.424 371.875 145.734Z" fill="#18285D"/>
<path d="M352.315 146.24C352.315 146.24 356.418 144.497 359.644 145.794L359.37 147.577C359.37 147.577 354.676 147.3 352.341 148.316C352.112 147.639 352.064 146.949 352.315 146.24Z" fill="#18285D"/>
<path d="M362.918 157.505C362.275 157.594 361.602 157.433 361.497 157.406C361.291 157.353 361.167 157.144 361.22 156.938C361.272 156.732 361.482 156.607 361.688 156.66C362.052 156.752 362.909 156.857 363.238 156.592C363.301 156.541 363.384 156.446 363.376 156.211C363.329 154.86 362.345 150.447 362.335 150.402C362.289 150.195 362.419 149.989 362.627 149.942C362.835 149.895 363.04 150.026 363.087 150.234C363.128 150.418 364.096 154.762 364.146 156.184C364.165 156.719 363.925 157.028 363.721 157.192C363.496 157.372 363.21 157.465 362.918 157.505Z" fill="#FD857D"/>
<path d="M357.4 159.785C357.755 161.36 358.875 164.245 362.397 164.155C365.928 164.065 366.85 161.379 367.144 159.537L357.4 159.785Z" fill="white"/>
<path d="M362.41 166.542C363.406 166.517 364.238 165.991 364.273 165.968C364.452 165.853 364.504 165.615 364.389 165.436C364.274 165.257 364.036 165.205 363.857 165.319C363.851 165.323 363.166 165.752 362.39 165.771C361.678 165.789 360.986 165.398 360.979 165.394C360.795 165.287 360.56 165.349 360.453 165.533C360.346 165.717 360.408 165.952 360.592 166.059C360.627 166.081 361.47 166.566 362.41 166.542Z" fill="#FD857D"/>
<path d="M376.835 144.149C376.765 147.301 376.565 151.246 376.045 154.41L374.321 154.332C374.321 154.332 374.67 151.663 374.818 149.926C374.966 148.189 375.211 144.943 373.723 144.577C372.239 144.214 373.01 140.499 370.917 138.95C368.825 137.397 364.231 136.101 361.254 138.041C358.276 139.977 354.809 139.037 353.424 139.396C352.035 139.751 350.19 141.724 350.748 143.508C351.309 145.289 349.798 146.421 349.472 148.289C349.146 150.157 350.467 155.131 350.467 155.131L348.832 155.504C347.99 151.466 347.774 147.37 347.753 144.439C347.735 141.447 349.297 138.673 351.861 137.132C358.807 132.957 366.281 134.257 371.225 136.015C374.656 137.233 376.916 140.515 376.835 144.149Z" fill="#18285D"/>
<path d="M335.536 285.447L331.426 291.057C331.426 291.057 329.046 289.567 325.816 286.977C325.806 286.967 325.806 286.967 325.796 286.957C320.876 283.027 314.902 275.729 311.166 268.222C305.333 256.5 307.976 248.091 307.976 248.091C308.556 242.451 311.716 234.637 314.726 226.127C315.826 223.037 316.826 220.347 317.526 218.457L326.716 220.567L330.646 222.987L329.136 226.977C326.536 235.59 323.596 244.06 319.661 252.113C320.551 260.003 323.886 269.527 327.736 275.367C331.716 281.427 335.536 285.447 335.536 285.447Z" fill="#FDA893"/>
<path d="M335.536 285.447L331.426 291.057C331.426 291.057 329.046 289.567 325.816 286.977C325.806 286.967 325.806 286.967 325.796 286.957C325.086 282.717 325.516 276.727 327.736 275.367C331.716 281.427 335.536 285.447 335.536 285.447Z" fill="#FD857D"/>
<path d="M333.341 278.974C334.168 279.028 338.578 279.247 338.101 277.738C337.575 276.074 333.247 274.125 333.247 274.125C333.247 274.125 333.222 274.04 333.264 273.928L333.217 273.572L333.026 269.995C332.19 270.001 331.422 270.164 331.006 270.293C329.109 270.88 329.369 275.219 329.369 275.219C329.369 275.219 326.977 276.074 327.064 277.825C327.152 279.577 329.079 279.84 329.079 279.84C329.079 279.84 326.447 281.154 327.062 282.643C327.677 284.132 329.672 284.57 329.672 284.57C329.672 284.57 327.414 286.059 328.203 287.11C328.991 288.161 330.831 288.687 330.831 288.687C330.831 288.687 329.256 290.819 330.857 291.981C332.457 293.143 334.811 292.891 336.325 292.365C337.839 291.839 337.576 289.912 334.598 288.511C334.598 288.511 337.226 288.774 338.539 286.584C339.635 284.758 336.84 283.969 334.456 283.655C336.329 283.781 339.561 283.728 340.116 281.941C340.843 279.599 334.354 279.046 333.341 278.974Z" fill="#FDA893"/>
<path d="M330.646 222.987L329.136 226.977C326.086 227.167 320.626 227.257 314.726 226.127C315.826 223.037 316.826 220.347 317.526 218.457L326.716 220.567L330.646 222.987Z" fill="#FD857D"/>
<path d="M334.586 188.288C334.586 188.288 320.724 201.768 312.557 221.341C318.958 223.411 325.018 224.876 330.644 225.576C331.309 223.759 334.809 216.237 337.907 210.927L334.586 188.288Z" fill="#707FFF"/>
<path d="M222.482 82.3393L222.497 82.2963C222.729 81.7833 222.941 81.2633 223.131 80.7443C225.924 73.1223 226.199 57.4773 208.83 53.7763C208.83 53.7763 194.515 50.4323 188.148 63.3143C188.148 63.3143 185.281 69.2823 183.244 73.6173C183.244 73.6173 181.535 82.7263 172.94 83.5303C164.345 84.3343 159.552 87.6343 160.378 94.0003C161.204 100.366 159.882 99.3533 153.932 104.736C147.982 110.119 143.831 120.186 148.964 126.812C154.097 133.438 173.302 117.761 185.6 124.766C197.898 131.771 218.549 129.723 220.95 119.755C223.351 109.788 213.732 103.219 214.244 98.1563C214.757 93.0943 220.923 87.1833 222.482 82.3393Z" fill="#29245D"/>
<path d="M227.152 146.24L214.882 146.25L208.952 134.72L208.282 133.4L205.752 128.49C205.752 128.49 206.26 107.59 211.62 104.74L227.152 146.24Z" fill="#707FFF"/>
<path d="M208.952 134.72L208.282 133.4C209.462 131.01 211.502 125.51 209.882 118.43C209.812 118.1 210.012 117.78 210.332 117.71C210.652 117.64 210.982 117.84 211.052 118.16C212.972 126.56 210.092 132.73 208.952 134.72Z" fill="#4F60D9"/>
<path d="M230.164 144.789C230.164 144.789 231.221 149.346 233.022 150.601C234.823 151.856 234.368 145.484 234.368 145.484C234.368 145.484 234.974 153.174 236.838 153.38C238.702 153.586 238.327 146.099 238.327 146.099C238.327 146.099 239.531 151.247 240.943 151.547C242.356 151.848 242.306 146.364 242.306 146.364C242.306 146.364 243.674 150.347 244.719 150.693C245.765 151.039 246.271 146.412 245.684 144.055C245.096 141.698 242.162 143.129 242.162 143.129C242.162 143.129 239.389 142.328 238.427 143.283C238.427 143.283 235.941 142.203 234.549 142.902C234.549 142.904 230.489 141.732 230.164 144.789Z" fill="#FDA893"/>
<path d="M209.51 114.741C209.98 118.771 211.26 122.841 209.55 129.251C209.01 131.281 208.17 132.901 206.59 135.681V135.691C206.58 135.691 206.58 135.691 206.58 135.691C206.51 135.851 206.42 136.001 206.32 136.161C206.29 136.451 206.25 136.731 206.22 137.011C205.19 144.151 205.46 140.361 205.58 146.251H168.62L168.89 131.621L168.95 128.501L169.48 99.7805L181.15 98.7505H181.16L183.17 98.5705L183.29 98.5505L186.43 98.2805C186.71 98.2505 186.98 98.2305 187.26 98.2105C191.49 97.9505 195.73 98.6105 199.7 100.141L199.83 100.191L201.58 100.861V100.871L201.69 100.911L203.4 101.571L211.62 104.741C211.2 106.591 209.89 112.881 209.51 114.741Z" fill="#707FFF"/>
<path d="M173.55 120.99L168.89 131.62L168.95 128.5L172.45 120.51C172.58 120.21 172.94 120.07 173.24 120.2C173.54 120.33 173.68 120.69 173.55 120.99Z" fill="#4F60D9"/>
<path d="M181.155 98.7449C184.967 106.427 194.3 115.011 199.082 112.362C202.024 110.736 203.226 105.394 203.399 101.566L201.685 100.908L201.581 100.869V100.866L199.832 100.192L199.698 100.14C195.733 98.6119 191.492 97.9539 187.26 98.2149C187.116 98.2349 186.97 98.2539 186.826 98.2739C186.693 98.2899 186.562 98.3069 186.432 98.3229L183.288 98.5579L183.167 98.5679L181.155 98.7449Z" fill="#FDA893"/>
<path d="M206.325 136.165C206.29 136.449 206.251 136.731 206.221 137.012C204.196 137.444 197.84 138.337 187.035 135.75C185.634 135.414 184.157 135.02 182.606 134.557C182.287 134.464 182.108 134.129 182.201 133.81C182.297 133.496 182.633 133.313 182.947 133.409C198.534 138.039 206.491 135.715 206.571 135.693C206.58 135.691 206.585 135.688 206.593 135.686C206.505 135.841 206.418 136.001 206.325 136.165Z" fill="#4F60D9"/>
<path d="M216.538 81.212C216.538 81.212 219.977 79.058 220.852 82.167C221.727 85.277 216.62 91.714 212.948 88.385L216.538 81.212Z" fill="#FD857D"/>
<path d="M215.06 88.5646C214.905 88.9996 215.131 89.4776 215.566 89.6336C216.001 89.7886 216.479 89.5626 216.635 89.1276C216.79 88.6926 216.564 88.2136 216.129 88.0586C215.694 87.9036 215.215 88.1296 215.06 88.5646Z" fill="white"/>
<path d="M214.699 86.4584C214.858 86.5154 215.04 86.4674 215.14 86.3304C216.616 84.3074 219.41 84.2713 219.438 84.2713C219.65 84.2703 219.816 84.1044 219.808 83.9004C219.801 83.6964 219.623 83.5312 219.411 83.5312C219.281 83.5312 216.205 83.5633 214.505 85.8933C214.385 86.0583 214.43 86.2893 214.605 86.4103C214.634 86.4303 214.666 86.4464 214.699 86.4584Z" fill="#F05B56"/>
<path d="M217.595 86.2079C217.663 86.2319 217.737 86.2389 217.812 86.2229C218.018 86.1799 218.143 85.9829 218.092 85.7829C218.084 85.7499 217.873 84.9609 217.099 84.2479C216.944 84.1039 216.7 84.1049 216.555 84.2509C216.41 84.3959 216.42 84.6299 216.575 84.7739C217.173 85.3259 217.343 85.9339 217.345 85.9399C217.378 86.0669 217.475 86.1649 217.595 86.2079Z" fill="#F05B56"/>
<path d="M192.812 90.0176L189.602 99.0056C189.602 99.0056 192.628 103.721 195.787 105.166C198.941 106.613 201.439 103.173 201.439 103.173L204.427 94.8076L192.812 90.0176Z" fill="#FDA893"/>
<path d="M192.497 90.8975L191.216 94.4825C192.536 97.6905 196.111 99.9365 202.161 101.141L204.111 95.6865L192.497 90.8975Z" fill="#FD857D"/>
<path d="M216.741 85.1367C216.327 85.9677 215.889 86.8067 215.419 87.6307C212.299 93.1057 206.347 98.0987 201.301 97.4907C190.404 96.1777 189.047 86.7657 189.521 80.3497C189.575 79.6367 190.174 79.0137 190.307 78.1947C190.623 76.2557 190.626 73.9247 191.188 71.8267C191.578 70.3727 191.994 68.9497 192.384 67.6687C193.489 64.0587 196.712 61.5297 200.383 61.4027C205.675 61.2147 213.232 62.2687 218.501 68.5587C220.447 70.8817 221.037 74.1067 220.047 77.0517C219.29 79.3007 218.19 82.2037 216.741 85.1367Z" fill="#FDA893"/>
<path d="M202.825 85.2642C202.637 85.1972 202.52 85.0022 202.556 84.8002C202.597 84.5742 202.812 84.4232 203.038 84.4642L204.463 84.7182L204.373 79.1232C204.369 78.8942 204.552 78.7042 204.782 78.7002C205.011 78.6972 205.201 78.8792 205.204 79.1092L205.31 85.7132L202.891 85.2812C202.869 85.2782 202.846 85.2722 202.825 85.2642Z" fill="#FD857D"/>
<path d="M216.376 73.9046C219.674 77.1096 216.751 81.3426 217.243 84.1666C217.274 84.3496 217.355 84.4096 217.477 84.3646C218.967 81.3796 220.09 78.4216 220.86 76.1286C221.867 73.1246 221.211 69.8196 219.142 67.4206C213.54 60.9266 205.591 59.7646 200.035 59.8986C196.181 59.9876 192.824 62.5396 191.703 66.2216C191.307 67.5276 190.886 68.9796 190.492 70.4626C191.007 71.0856 192.541 71.8336 192.232 72.9086C191.416 75.7516 190.872 77.7026 191.512 77.7446C192.591 77.8126 194.402 74.6626 194.06 72.0856C194.06 72.0856 195.484 70.9416 199.66 70.8376C205.017 70.7046 210.509 69.6376 210.509 69.6376C210.509 69.6376 212.681 69.1996 213.787 68.2706C213.789 68.2716 213.864 71.4636 216.376 73.9046Z" fill="#29245D"/>
<path d="M209.995 80.6654C209.687 81.5284 209.882 82.3864 210.43 82.5824C210.978 82.7784 211.673 82.2374 211.981 81.3754C212.289 80.5134 212.094 79.6554 211.546 79.4594C210.997 79.2624 210.303 79.8034 209.995 80.6654Z" fill="#29245D"/>
<path d="M198.681 76.618C198.373 77.481 198.568 78.339 199.116 78.535C199.664 78.731 200.359 78.19 200.667 77.328C200.975 76.465 200.78 75.607 200.232 75.412C199.684 75.217 198.989 75.755 198.681 76.618Z" fill="#29245D"/>
<path d="M214.872 77.2084C214.129 76.7674 212.607 75.9344 210.866 75.3804C210.408 75.2344 209.924 75.4464 209.857 75.8284L209.855 75.8384C209.802 76.1434 210.041 76.4474 210.412 76.5494C211.616 76.8794 214.674 77.9934 215.949 78.9274C216.062 78.7354 216.003 78.4664 215.87 78.2024C215.67 77.8024 215.306 77.4654 214.872 77.2084Z" fill="#29245D"/>
<path d="M198.843 71.6944C199.699 71.8124 201.409 72.1084 203.116 72.7604C203.565 72.9314 203.812 73.3984 203.626 73.7394L203.621 73.7474C203.472 74.0194 203.096 74.1074 202.742 73.9564C201.595 73.4654 198.509 72.4314 196.929 72.3684C196.96 72.1474 197.174 71.9744 197.443 71.8504C197.849 71.6624 198.343 71.6254 198.843 71.6944Z" fill="#29245D"/>
<path d="M206.333 89.1466C205.553 90.4156 203.686 92.5965 200.437 91.4355C197.18 90.2725 197.091 87.6375 197.345 85.9355L206.333 89.1466Z" fill="white"/>
<path d="M199.64 93.8115C200.578 94.1465 201.586 93.9375 201.629 93.9285C201.849 93.8815 201.989 93.6645 201.942 93.4445C201.895 93.2245 201.679 93.0845 201.459 93.1305C201.451 93.1325 200.629 93.2995 199.914 93.0435C199.14 92.7675 198.593 92.1095 198.588 92.1025C198.445 91.9285 198.189 91.9025 198.014 92.0455C197.84 92.1875 197.814 92.4435 197.956 92.6175C197.984 92.6525 198.647 93.4565 199.64 93.8115Z" fill="#FD857D"/>
<path d="M192.268 72.515C192.268 72.515 190.708 68.191 188.223 70.019C185.738 71.847 185.494 79.782 190.091 79.467L192.268 72.515Z" fill="#FDA893"/>
<path d="M187.534 78.733C187.379 79.168 187.605 79.646 188.04 79.802C188.475 79.957 188.954 79.731 189.109 79.296C189.264 78.861 189.038 78.382 188.603 78.227C188.167 78.071 187.689 78.298 187.534 78.733Z" fill="white"/>
<path d="M190.008 76.9576C189.861 76.9056 189.761 76.7596 189.772 76.5966C189.94 74.1796 187.983 72.4766 187.963 72.4596C187.814 72.3316 187.796 72.1066 187.923 71.9566C188.051 71.8066 188.276 71.7886 188.426 71.9156C188.518 71.9936 190.678 73.8626 190.485 76.6456C190.471 76.8426 190.301 76.9906 190.104 76.9766C190.07 76.9746 190.038 76.9676 190.008 76.9576Z" fill="#FD857D"/>
<path d="M188.106 75.0309C188.044 75.0089 187.987 74.9689 187.943 74.9129C187.823 74.7569 187.852 74.5329 188.008 74.4119C188.034 74.3919 188.656 73.9219 189.633 73.8459C189.829 73.8299 190.001 73.9779 190.016 74.1739C190.031 74.3699 189.884 74.5419 189.688 74.5579C188.933 74.6169 188.448 74.9749 188.443 74.9789C188.344 75.0539 188.217 75.0699 188.106 75.0309Z" fill="#FD857D"/>
<path d="M204.372 77.2938C204.456 77.0608 204.485 76.8188 204.465 76.5848C204.415 75.9428 204.006 75.3578 203.365 75.1128L197.706 72.9488C197.261 72.7788 196.791 72.8058 196.388 72.9858C196.167 73.0848 195.969 73.2288 195.806 73.4138C195.669 73.5658 195.558 73.7428 195.481 73.9428L195.204 74.6658C194.735 75.8918 194.768 77.2458 195.294 78.3858C195.82 79.5178 196.613 80.3058 197.655 80.7298L197.804 80.7868C199.015 81.2498 200.333 81.2158 201.522 80.6888C202.729 80.1548 203.652 79.1818 204.123 77.9488L204.357 77.3368C204.363 77.3238 204.369 77.3078 204.372 77.2938ZM203.457 77.6938C203.054 78.7488 202.264 79.5788 201.235 80.0348C200.218 80.4848 199.093 80.5138 198.06 80.1188L197.924 80.0668C197.057 79.7128 196.391 79.0468 195.945 78.0858C195.498 77.1218 195.472 75.9668 195.872 74.9208L196.149 74.1978C196.348 73.6768 196.93 73.4178 197.45 73.6168L203.109 75.7808C203.627 75.9788 203.89 76.5618 203.69 77.0818L203.457 77.6938Z" fill="white"/>
<path d="M216.46 81.4697C216.486 81.2267 216.455 80.9826 216.379 80.7546C216.218 80.2876 215.86 79.8906 215.364 79.7006L209.703 77.5357C209.047 77.2847 208.331 77.4626 207.864 77.9346C207.707 78.0916 207.578 78.2817 207.493 78.4987C207.486 78.5087 207.483 78.5177 207.479 78.5287L207.202 79.2517C206.733 80.4777 206.768 81.8327 207.294 82.9727C207.818 84.1037 208.613 84.8927 209.653 85.3157L209.804 85.3737C211.015 85.8367 212.333 85.8027 213.522 85.2757C214.726 84.7417 215.652 83.7687 216.123 82.5357L216.357 81.9236C216.414 81.7766 216.449 81.6237 216.46 81.4697ZM215.455 82.2826C215.052 83.3376 214.262 84.1677 213.231 84.6227C212.217 85.0737 211.091 85.1027 210.059 84.7077L209.921 84.6547C209.054 84.2997 208.388 83.6346 207.942 82.6736C207.497 81.7096 207.469 80.5547 207.869 79.5087L208.146 78.7857C208.345 78.2647 208.929 78.0057 209.447 78.2047L215.108 80.3697C215.626 80.5677 215.888 81.1506 215.689 81.6706L215.455 82.2826Z" fill="white"/>
<path d="M196.388 72.9857C195.926 72.4827 194.667 71.3147 192.527 70.6787V71.4327C194.293 72.0087 195.375 72.9687 195.806 73.4137C195.949 73.5597 196.021 73.6517 196.025 73.6557L196.591 73.2217C196.578 73.2037 196.511 73.1167 196.388 72.9857Z" fill="white"/>
<path d="M204.124 77.2755L204.146 76.5615C204.191 76.5625 205.251 76.5985 206.28 76.9925C207.376 77.4115 207.953 78.0185 207.977 78.0435L207.456 78.5325C207.452 78.5285 206.958 78.0165 206.025 77.6595C205.112 77.3105 204.134 77.2755 204.124 77.2755Z" fill="white"/>
<path d="M218.683 80.9317C217.353 80.6637 216.148 80.7677 216.07 80.7747L216.135 81.4857C216.155 81.4847 217.392 81.3797 218.683 81.6647V80.9317Z" fill="white"/>
<path d="M198.786 146.289C198.786 146.289 199.016 150.846 197.569 152.102C196.122 153.357 194.779 146.985 194.779 146.985C194.779 146.985 196.344 154.675 194.538 154.881C192.732 155.087 190.993 147.6 190.993 147.6C190.993 147.6 191.243 152.748 189.915 153.048C188.587 153.349 187.088 147.865 187.088 147.865C187.088 147.865 186.845 151.848 185.897 152.194C184.949 152.54 183.136 147.913 183.058 145.557C182.98 143.2 186.318 144.631 186.318 144.631C186.318 144.631 188.865 143.831 190.096 144.785C190.096 144.785 192.277 143.705 193.867 144.404C193.869 144.404 197.598 143.232 198.786 146.289Z" fill="#FDA893"/>
<path d="M178.43 146.24L152.18 146.25C152.16 146.24 152.1 146.02 152.1 146.01C151.64 139.04 156.05 127.3 159.13 117.04C161.17 110.25 163.85 102.08 169.48 99.7803C170.47 100.95 172.3 105.77 172.43 108.23C172.73 114.17 171.98 120.45 170.88 123.75C169.29 128.49 167.3 134.26 165.85 139C165.85 139 165.85 139.01 165.84 139.04C165.81 139.17 165.71 139.64 165.71 139.65C165.75 139.66 166.01 139.8 166.47 140.06C168.18 141.01 172.65 143.52 178.43 146.24Z" fill="#707FFF"/>
<path d="M166.47 140.06C163.72 141.34 159.83 144.04 159.79 144.07C159.68 144.15 159.56 144.18 159.45 144.18C159.26 144.18 159.07 144.09 158.95 143.92C158.76 143.65 158.83 143.28 159.1 143.09C159.27 142.97 163.02 140.37 165.84 139.04C165.81 139.17 165.71 139.64 165.71 139.65C165.75 139.66 166.01 139.8 166.47 140.06Z" fill="#4F60D9"/>
<path d="M439.133 396.39C439.133 396.39 438.317 397.188 436.645 397.311C436.14 397.352 435.56 397.329 434.891 397.194C434.181 397.065 433.377 396.812 432.485 396.39C432.485 396.39 432.872 379.949 426.224 368.624C419.576 357.299 410.774 341.656 417.815 333.634C424.856 325.613 436.199 336.762 439.913 355.538C443.634 374.316 439.133 396.39 439.133 396.39Z" fill="#4F60D9"/>
<path d="M436.645 397.311C436.14 397.352 435.56 397.329 434.891 397.194C437.027 368.008 423.777 345.464 423.643 345.235C423.391 344.818 423.526 344.279 423.942 344.026C424.359 343.779 424.899 343.914 425.151 344.331C425.291 344.56 438.822 367.55 436.645 397.311Z" fill="#1D38C8"/>
<path d="M461.935 369.856C446.38 395.005 447.454 400.82 447.454 400.82L445.412 400.456L443.675 400.151L441.198 399.711C439.819 388.556 448.386 341.409 463.66 341.409C479.21 341.409 467.234 361.295 461.935 369.856Z" fill="#4F60D9"/>
<path d="M461.348 355.386C461.201 355.633 448.175 378.869 445.411 400.456L443.674 400.151C446.514 378.217 459.67 354.77 459.81 354.518C460.05 354.096 460.591 353.949 461.013 354.189C461.436 354.43 461.583 354.964 461.348 355.386Z" fill="#1D38C8"/>
<path d="M432.344 398.62L430.554 399.101L428.841 399.565L427.814 399.841C427.878 399.618 427.098 397.693 416.155 383.071C411.637 377.027 399.584 360.774 410.634 358.045C420.767 355.545 432.637 390.199 432.344 398.62Z" fill="#4F60D9"/>
<path d="M430.554 399.101L428.841 399.565C425.684 385.476 412.875 368.184 412.734 367.996C412.446 367.609 412.528 367.057 412.916 366.764C413.304 366.476 413.855 366.553 414.148 366.946C414.712 367.708 427.304 384.69 430.554 399.101Z" fill="#1D38C8"/>
<path d="M454.016 435.824C454.016 438.639 419.225 438.639 419.225 435.824V394.456C419.225 394.028 419.572 393.681 420 393.681H453.24C453.668 393.681 454.015 394.028 454.015 394.456L454.016 435.824Z" fill="#3B3E7D"/>
<path d="M93.0033 436.858H67.9973C64.5963 436.858 61.5823 434.256 60.5313 430.413L49.9263 391.632C49.4923 390.045 50.4233 388.396 51.8233 388.267C71.1313 386.489 90.2513 386.487 109.18 388.262C110.578 388.393 111.507 390.041 111.074 391.626L100.468 430.412C99.4183 434.256 96.4043 436.858 93.0033 436.858Z" fill="#3B3E7D"/>
<path d="M108.854 391.082C108.854 392.114 96.2363 392.95 80.6713 392.95C65.1063 392.95 52.4883 392.114 52.4883 391.082C52.4883 390.05 65.1063 389.214 80.6713 389.214C96.2363 389.214 108.854 390.051 108.854 391.082Z" fill="#18285D"/>
<path d="M112.589 338.67C102.447 335.998 86.9514 357.049 82.2454 377.573V347.67C84.6114 343.475 89.1213 337.163 97.3103 330.494C110.045 320.122 121.768 306.812 111.608 304.136C102.087 301.628 87.8474 320.029 82.2454 339.273V300.872C83.8864 298.325 86.5744 294.983 90.8714 291.483C98.8974 284.946 106.285 276.558 99.8824 274.871C94.3254 273.407 86.2184 283.244 82.2454 294.338V281.892C82.9024 278.042 83.8303 272.543 86.3773 266.921C92.2803 253.895 95.4693 240.474 87.6863 241.473C79.8963 242.472 74.8454 265.672 79.1054 283.482V289.887C76.2274 276.853 66.3553 263.355 59.9114 265.052C53.5084 266.739 60.8963 275.127 68.9223 281.664C75.0313 286.64 77.8904 291.297 79.1054 293.802V324.053C74.4904 303.426 58.8844 282.136 48.6884 284.822C38.5284 287.498 50.2514 300.809 62.9864 311.18C72.6093 319.018 77.1544 326.362 79.1054 330.357V366.633C74.1724 346.383 58.9654 325.947 48.9644 328.582C38.8044 331.258 47.5174 340.986 61.8293 352.751C71.5553 360.747 76.7654 369.185 79.1054 373.772V390.859C80.2404 391.177 81.3034 391.175 82.2454 390.859V384.06C84.2364 380.033 88.7853 372.773 98.2923 365.031C111.026 354.657 122.749 341.346 112.589 338.67Z" fill="#4F60D9"/>
</svg>
