<svg width="35" height="35" viewBox="0 0 35 35" fill="none" xmlns="http://www.w3.org/2000/svg">
<rect width="35" height="35" rx="5" fill="#6573F0"/>
<path d="M16.0231 25.9825L13.8311 25.3602C13.6011 25.2969 13.4717 25.0613 13.5364 24.8363L18.4415 8.30458C18.5062 8.07956 18.7469 7.95299 18.9769 8.01627L21.1689 8.63858C21.3989 8.70187 21.5283 8.93744 21.4636 9.16245L16.5585 25.6942C16.4902 25.9192 16.2531 26.0493 16.0231 25.9825ZM11.9265 22.0376L13.4897 20.4063C13.655 20.234 13.6442 19.9598 13.4609 19.8015L10.2053 16.9994L13.4609 14.1972C13.6442 14.039 13.6586 13.7648 13.4897 13.5925L11.9265 11.9611C11.7648 11.7923 11.4917 11.7818 11.3156 11.9435L6.13745 16.69C5.95418 16.8552 5.95418 17.14 6.13745 17.3053L11.3156 22.0552C11.4917 22.217 11.7648 22.2099 11.9265 22.0376ZM23.6844 22.0587L28.8626 17.3088C29.0458 17.1435 29.0458 16.8587 28.8626 16.6935L23.6844 11.94C23.5119 11.7818 23.2388 11.7888 23.0735 11.9576L21.5103 13.589C21.345 13.7612 21.3558 14.0355 21.5391 14.1937L24.7947 16.9994L21.5391 19.8015C21.3558 19.9598 21.3414 20.234 21.5103 20.4063L23.0735 22.0376C23.2352 22.2099 23.5083 22.217 23.6844 22.0587Z" fill="white"/>
</svg>
